<mxfile host="Electron" agent="Mozilla/5.0 (X11; Linux x86_64) AppleWebKit/537.36 (KHTML, like Gecko) draw.io/24.7.5 Chrome/126.0.6478.183 Electron/31.3.0 Safari/537.36" version="24.7.5">
  <diagram name="Page-1" id="m8m3ZyoXTAU3OBZdbSL7">
    <mxGraphModel dx="3267" dy="1438" grid="1" gridSize="10" guides="1" tooltips="1" connect="1" arrows="1" fold="1" page="1" pageScale="1" pageWidth="827" pageHeight="1169" math="0" shadow="0">
      <root>
        <mxCell id="0" />
        <mxCell id="1" parent="0" />
        <mxCell id="VEvJbcezbuQvwwDcVX_y-5" style="edgeStyle=orthogonalEdgeStyle;rounded=0;orthogonalLoop=1;jettySize=auto;html=1;exitX=0.5;exitY=0;exitDx=0;exitDy=0;entryX=0.75;entryY=1;entryDx=0;entryDy=0;strokeColor=#999999;" parent="1" source="VEvJbcezbuQvwwDcVX_y-2" target="VEvJbcezbuQvwwDcVX_y-4" edge="1">
          <mxGeometry relative="1" as="geometry" />
        </mxCell>
        <mxCell id="VEvJbcezbuQvwwDcVX_y-6" value="Authentication (OIDC Authorization Code Flow)" style="edgeLabel;html=1;align=center;verticalAlign=middle;resizable=0;points=[];" parent="VEvJbcezbuQvwwDcVX_y-5" vertex="1" connectable="0">
          <mxGeometry x="0.05" relative="1" as="geometry">
            <mxPoint as="offset" />
          </mxGeometry>
        </mxCell>
        <mxCell id="VEvJbcezbuQvwwDcVX_y-16" style="edgeStyle=orthogonalEdgeStyle;rounded=0;orthogonalLoop=1;jettySize=auto;html=1;exitX=0.5;exitY=1;exitDx=0;exitDy=0;entryX=0.5;entryY=0;entryDx=0;entryDy=0;strokeColor=#999999;" parent="1" source="VEvJbcezbuQvwwDcVX_y-2" target="VEvJbcezbuQvwwDcVX_y-3" edge="1">
          <mxGeometry relative="1" as="geometry" />
        </mxCell>
        <mxCell id="VEvJbcezbuQvwwDcVX_y-17" value="spawns" style="edgeLabel;html=1;align=center;verticalAlign=middle;resizable=0;points=[];" parent="VEvJbcezbuQvwwDcVX_y-16" vertex="1" connectable="0">
          <mxGeometry x="0.0133" y="-2" relative="1" as="geometry">
            <mxPoint as="offset" />
          </mxGeometry>
        </mxCell>
        <mxCell id="VEvJbcezbuQvwwDcVX_y-2" value="Jupyter Hub&lt;div&gt;&lt;span style=&quot;font-weight: normal;&quot;&gt;(services/naavre-jupyterhub)&lt;/span&gt;&lt;/div&gt;" style="whiteSpace=wrap;html=1;align=center;verticalAlign=middle;fontStyle=1;fillColor=#dae8fc;strokeColor=#6c8ebf;" parent="1" vertex="1">
          <mxGeometry x="40" y="200" width="600" height="40" as="geometry" />
        </mxCell>
        <mxCell id="VEvJbcezbuQvwwDcVX_y-3" value="&lt;b&gt;NaaVRE Jupyter Lab&lt;/b&gt;&lt;div&gt;(services/naavre-jupyterlab)&lt;/div&gt;" style="whiteSpace=wrap;html=1;align=center;verticalAlign=top;fillColor=#dae8fc;strokeColor=#6c8ebf;" parent="1" vertex="1">
          <mxGeometry x="40" y="280" width="510" height="750" as="geometry" />
        </mxCell>
        <mxCell id="VEvJbcezbuQvwwDcVX_y-114" value="" style="edgeStyle=orthogonalEdgeStyle;rounded=0;orthogonalLoop=1;jettySize=auto;html=1;strokeColor=#999999;" parent="1" source="VEvJbcezbuQvwwDcVX_y-4" target="VEvJbcezbuQvwwDcVX_y-113" edge="1">
          <mxGeometry relative="1" as="geometry" />
        </mxCell>
        <mxCell id="VEvJbcezbuQvwwDcVX_y-4" value="&lt;b&gt;Keycloak&lt;/b&gt;&lt;div&gt;(&lt;span style=&quot;background-color: initial;&quot;&gt;services/keycloak)&lt;/span&gt;&lt;/div&gt;" style="whiteSpace=wrap;html=1;align=center;verticalAlign=middle;fillColor=#dae8fc;strokeColor=#6c8ebf;" parent="1" vertex="1">
          <mxGeometry x="-150" y="90" width="300" height="40" as="geometry" />
        </mxCell>
        <mxCell id="VEvJbcezbuQvwwDcVX_y-18" value="&lt;div&gt;&lt;b&gt;NaaVRE-communicator-jupyterlab&lt;/b&gt;&lt;b&gt;&lt;br&gt;&lt;/b&gt;&lt;/div&gt;https://github.com/NaaVRE/NaaVRE-communicator-jupyterlab" style="whiteSpace=wrap;html=1;verticalAlign=top;fillColor=#d5e8d4;strokeColor=#82b366;" parent="1" vertex="1">
          <mxGeometry x="50" y="360" width="240" height="560" as="geometry" />
        </mxCell>
        <mxCell id="drxxX0xxiZus8A59z0TH-9" style="edgeStyle=entityRelationEdgeStyle;rounded=0;orthogonalLoop=1;jettySize=auto;html=1;exitX=0;exitY=0.5;exitDx=0;exitDy=0;entryX=1;entryY=0.5;entryDx=0;entryDy=0;strokeColor=#999999;" edge="1" parent="1" source="VEvJbcezbuQvwwDcVX_y-25" target="VEvJbcezbuQvwwDcVX_y-50">
          <mxGeometry relative="1" as="geometry" />
        </mxCell>
        <mxCell id="drxxX0xxiZus8A59z0TH-10" style="edgeStyle=entityRelationEdgeStyle;rounded=0;orthogonalLoop=1;jettySize=auto;html=1;exitX=0;exitY=0.75;exitDx=0;exitDy=0;entryX=1;entryY=0.25;entryDx=0;entryDy=0;strokeColor=#999999;" edge="1" parent="1" source="VEvJbcezbuQvwwDcVX_y-25" target="drxxX0xxiZus8A59z0TH-2">
          <mxGeometry relative="1" as="geometry" />
        </mxCell>
        <mxCell id="VEvJbcezbuQvwwDcVX_y-25" value="&lt;div&gt;&lt;b&gt;NaaVRE-containerizer-jupyterlab&lt;/b&gt;&lt;span style=&quot;background-color: initial;&quot;&gt;&lt;br&gt;&lt;/span&gt;&lt;/div&gt;&lt;div&gt;&lt;span style=&quot;background-color: initial;&quot;&gt;https://github.com/NaaVRE/NaaVRE-containerizer-jupyterlab&lt;/span&gt;&lt;br&gt;&lt;/div&gt;" style="whiteSpace=wrap;html=1;verticalAlign=top;labelBackgroundColor=none;labelBorderColor=none;textShadow=0;fillColor=#d5e8d4;strokeColor=#82b366;" parent="1" vertex="1">
          <mxGeometry x="300" y="440" width="240" height="80" as="geometry" />
        </mxCell>
        <mxCell id="drxxX0xxiZus8A59z0TH-46" style="edgeStyle=entityRelationEdgeStyle;rounded=0;orthogonalLoop=1;jettySize=auto;html=1;exitX=0;exitY=0.25;exitDx=0;exitDy=0;entryX=1;entryY=0.5;entryDx=0;entryDy=0;strokeColor=#999999;" edge="1" parent="1" source="VEvJbcezbuQvwwDcVX_y-50" target="drxxX0xxiZus8A59z0TH-40">
          <mxGeometry relative="1" as="geometry" />
        </mxCell>
        <mxCell id="drxxX0xxiZus8A59z0TH-47" style="edgeStyle=entityRelationEdgeStyle;rounded=0;orthogonalLoop=1;jettySize=auto;html=1;exitX=0;exitY=0.5;exitDx=0;exitDy=0;entryX=1;entryY=0.5;entryDx=0;entryDy=0;strokeColor=#999999;" edge="1" parent="1" source="VEvJbcezbuQvwwDcVX_y-50" target="drxxX0xxiZus8A59z0TH-42">
          <mxGeometry relative="1" as="geometry" />
        </mxCell>
        <mxCell id="drxxX0xxiZus8A59z0TH-48" style="edgeStyle=entityRelationEdgeStyle;rounded=0;orthogonalLoop=1;jettySize=auto;html=1;exitX=0;exitY=0.75;exitDx=0;exitDy=0;entryX=1;entryY=0.5;entryDx=0;entryDy=0;strokeColor=#999999;" edge="1" parent="1" source="VEvJbcezbuQvwwDcVX_y-50" target="drxxX0xxiZus8A59z0TH-41">
          <mxGeometry relative="1" as="geometry" />
        </mxCell>
        <mxCell id="VEvJbcezbuQvwwDcVX_y-50" value="&lt;div&gt;&lt;b&gt;NaaVRE-containerizer-service&lt;/b&gt;&lt;b&gt;&lt;br&gt;&lt;/b&gt;&lt;/div&gt;https://github.com/NaaVRE/NaaVRE-containerizer-service" style="whiteSpace=wrap;html=1;align=center;verticalAlign=top;fillColor=#d5e8d4;strokeColor=#82b366;" parent="1" vertex="1">
          <mxGeometry x="-280" y="440" width="240" height="80" as="geometry" />
        </mxCell>
        <mxCell id="VEvJbcezbuQvwwDcVX_y-113" value="&lt;b&gt;LifeWatch AAI&lt;br&gt;&lt;/b&gt;" style="whiteSpace=wrap;html=1;align=center;verticalAlign=middle;fillColor=#e1d5e7;strokeColor=#9673a6;gradientDirection=east;" parent="1" vertex="1">
          <mxGeometry x="-150" y="30" width="300" height="40" as="geometry" />
        </mxCell>
        <mxCell id="VEvJbcezbuQvwwDcVX_y-115" value="&lt;b&gt;Google&lt;br&gt;&lt;/b&gt;" style="whiteSpace=wrap;html=1;align=center;verticalAlign=middle;fillColor=#e1d5e7;strokeColor=#9673a6;gradientDirection=east;" parent="1" vertex="1">
          <mxGeometry x="160" y="30" width="90" height="40" as="geometry" />
        </mxCell>
        <mxCell id="VEvJbcezbuQvwwDcVX_y-116" value="&lt;b&gt;EGI federation&lt;br&gt;&lt;/b&gt;" style="whiteSpace=wrap;html=1;align=center;verticalAlign=middle;fillColor=#e1d5e7;strokeColor=#9673a6;gradientDirection=east;" parent="1" vertex="1">
          <mxGeometry x="260" y="30" width="90" height="40" as="geometry" />
        </mxCell>
        <mxCell id="VEvJbcezbuQvwwDcVX_y-131" value="&lt;b&gt;...&lt;/b&gt;" style="whiteSpace=wrap;html=1;align=center;verticalAlign=middle;fillColor=#dae8fc;strokeColor=#6c8ebf;" parent="1" vertex="1">
          <mxGeometry x="580" y="280" width="60" height="750" as="geometry" />
        </mxCell>
        <mxCell id="drxxX0xxiZus8A59z0TH-2" value="&lt;div&gt;&lt;b&gt;NaaVRE-catalogue-service&lt;/b&gt;&lt;b&gt;&lt;br&gt;&lt;/b&gt;&lt;/div&gt;https://github.com/NaaVRE/NaaVRE-catalogue-service" style="whiteSpace=wrap;html=1;align=center;verticalAlign=top;fillColor=#d5e8d4;strokeColor=#82b366;" vertex="1" parent="1">
          <mxGeometry x="-280" y="540" width="240" height="80" as="geometry" />
        </mxCell>
        <mxCell id="drxxX0xxiZus8A59z0TH-51" style="edgeStyle=entityRelationEdgeStyle;rounded=0;orthogonalLoop=1;jettySize=auto;html=1;exitX=0;exitY=0.25;exitDx=0;exitDy=0;entryX=1;entryY=0.5;entryDx=0;entryDy=0;strokeColor=#999999;" edge="1" parent="1" source="drxxX0xxiZus8A59z0TH-3" target="drxxX0xxiZus8A59z0TH-16">
          <mxGeometry relative="1" as="geometry" />
        </mxCell>
        <mxCell id="drxxX0xxiZus8A59z0TH-52" style="edgeStyle=entityRelationEdgeStyle;rounded=0;orthogonalLoop=1;jettySize=auto;html=1;exitX=0;exitY=0.75;exitDx=0;exitDy=0;entryX=1;entryY=0.5;entryDx=0;entryDy=0;strokeColor=#999999;" edge="1" parent="1" source="drxxX0xxiZus8A59z0TH-3" target="drxxX0xxiZus8A59z0TH-15">
          <mxGeometry relative="1" as="geometry" />
        </mxCell>
        <mxCell id="drxxX0xxiZus8A59z0TH-3" value="&lt;div&gt;&lt;b&gt;NaaVRE-workflow-service&lt;/b&gt;&lt;b&gt;&lt;br&gt;&lt;/b&gt;&lt;/div&gt;https://github.com/NaaVRE/NaaVRE-workflow-service" style="whiteSpace=wrap;html=1;align=center;verticalAlign=top;fillColor=#d5e8d4;strokeColor=#82b366;" vertex="1" parent="1">
          <mxGeometry x="-280" y="640" width="240" height="80" as="geometry" />
        </mxCell>
        <mxCell id="drxxX0xxiZus8A59z0TH-4" value="&lt;div&gt;&lt;b&gt;NaaVRE-data-search-service&lt;/b&gt;&lt;b&gt;&lt;br&gt;&lt;/b&gt;&lt;/div&gt;https://github.com/NaaVRE/NaaVRE-data-search-service" style="whiteSpace=wrap;html=1;align=center;verticalAlign=top;fillColor=#d5e8d4;strokeColor=#82b366;" vertex="1" parent="1">
          <mxGeometry x="-280" y="740" width="240" height="80" as="geometry" />
        </mxCell>
        <mxCell id="drxxX0xxiZus8A59z0TH-49" style="edgeStyle=entityRelationEdgeStyle;rounded=0;orthogonalLoop=1;jettySize=auto;html=1;exitX=0;exitY=0.5;exitDx=0;exitDy=0;strokeColor=#999999;" edge="1" parent="1" source="drxxX0xxiZus8A59z0TH-5" target="drxxX0xxiZus8A59z0TH-44">
          <mxGeometry relative="1" as="geometry" />
        </mxCell>
        <mxCell id="drxxX0xxiZus8A59z0TH-5" value="&lt;div&gt;&lt;b&gt;NaaVRE-notebook-search&lt;/b&gt;&lt;b style=&quot;background-color: initial;&quot;&gt;-service&lt;/b&gt;&lt;b&gt;&lt;br&gt;&lt;/b&gt;&lt;/div&gt;https://github.com/NaaVRE/NaaVRE-notebook-search&lt;span style=&quot;background-color: initial;&quot;&gt;-service&lt;/span&gt;" style="whiteSpace=wrap;html=1;align=center;verticalAlign=top;fillColor=#d5e8d4;strokeColor=#82b366;" vertex="1" parent="1">
          <mxGeometry x="-280" y="840" width="240" height="80" as="geometry" />
        </mxCell>
        <mxCell id="drxxX0xxiZus8A59z0TH-11" style="edgeStyle=entityRelationEdgeStyle;rounded=0;orthogonalLoop=1;jettySize=auto;html=1;exitX=0;exitY=0.25;exitDx=0;exitDy=0;entryX=1;entryY=0.75;entryDx=0;entryDy=0;strokeColor=#999999;" edge="1" parent="1" source="drxxX0xxiZus8A59z0TH-6" target="drxxX0xxiZus8A59z0TH-2">
          <mxGeometry relative="1" as="geometry" />
        </mxCell>
        <mxCell id="drxxX0xxiZus8A59z0TH-12" style="edgeStyle=entityRelationEdgeStyle;rounded=0;orthogonalLoop=1;jettySize=auto;html=1;exitX=0;exitY=0.5;exitDx=0;exitDy=0;entryX=1;entryY=0.5;entryDx=0;entryDy=0;strokeColor=#999999;" edge="1" parent="1" source="drxxX0xxiZus8A59z0TH-6" target="drxxX0xxiZus8A59z0TH-3">
          <mxGeometry relative="1" as="geometry" />
        </mxCell>
        <mxCell id="drxxX0xxiZus8A59z0TH-6" value="&lt;div&gt;&lt;b&gt;NaaVRE-workflow-jupyterlab&lt;/b&gt;&lt;span style=&quot;background-color: initial;&quot;&gt;&lt;br&gt;&lt;/span&gt;&lt;/div&gt;&lt;div&gt;&lt;span style=&quot;background-color: initial;&quot;&gt;https://github.com/NaaVRE/NaaVRE-workflow-jupyterlab&lt;/span&gt;&lt;br&gt;&lt;/div&gt;" style="whiteSpace=wrap;html=1;verticalAlign=top;labelBackgroundColor=none;labelBorderColor=none;textShadow=0;fillColor=#d5e8d4;strokeColor=#82b366;" vertex="1" parent="1">
          <mxGeometry x="300" y="640" width="240" height="80" as="geometry" />
        </mxCell>
        <mxCell id="drxxX0xxiZus8A59z0TH-13" style="edgeStyle=entityRelationEdgeStyle;rounded=0;orthogonalLoop=1;jettySize=auto;html=1;exitX=0;exitY=0.5;exitDx=0;exitDy=0;entryX=1;entryY=0.5;entryDx=0;entryDy=0;strokeColor=#999999;" edge="1" parent="1" source="drxxX0xxiZus8A59z0TH-7" target="drxxX0xxiZus8A59z0TH-4">
          <mxGeometry relative="1" as="geometry" />
        </mxCell>
        <mxCell id="drxxX0xxiZus8A59z0TH-7" value="&lt;div&gt;&lt;b&gt;NaaVRE-data-search-jupyterlab&lt;/b&gt;&lt;span style=&quot;background-color: initial;&quot;&gt;&lt;br&gt;&lt;/span&gt;&lt;/div&gt;&lt;div&gt;&lt;span style=&quot;background-color: initial;&quot;&gt;https://github.com/NaaVRE/NaaVRE-data-search-jupyterlab&lt;/span&gt;&lt;br&gt;&lt;/div&gt;" style="whiteSpace=wrap;html=1;verticalAlign=top;labelBackgroundColor=none;labelBorderColor=none;textShadow=0;fillColor=#d5e8d4;strokeColor=#82b366;" vertex="1" parent="1">
          <mxGeometry x="300" y="740" width="240" height="80" as="geometry" />
        </mxCell>
        <mxCell id="drxxX0xxiZus8A59z0TH-14" style="edgeStyle=entityRelationEdgeStyle;rounded=0;orthogonalLoop=1;jettySize=auto;html=1;exitX=0;exitY=0.5;exitDx=0;exitDy=0;entryX=1;entryY=0.5;entryDx=0;entryDy=0;strokeColor=#999999;" edge="1" parent="1" source="drxxX0xxiZus8A59z0TH-8" target="drxxX0xxiZus8A59z0TH-5">
          <mxGeometry relative="1" as="geometry" />
        </mxCell>
        <mxCell id="drxxX0xxiZus8A59z0TH-8" value="&lt;div&gt;&lt;b&gt;NaaVRE-notebook-search-jupyterlab&lt;/b&gt;&lt;br&gt;&lt;/div&gt;&lt;div&gt;&lt;span style=&quot;background-color: initial;&quot;&gt;https://github.com/NaaVRE/NaaVRE-notebook-search-jupyterlab&lt;/span&gt;&lt;br&gt;&lt;/div&gt;" style="whiteSpace=wrap;html=1;verticalAlign=top;labelBackgroundColor=none;labelBorderColor=none;textShadow=0;fillColor=#d5e8d4;strokeColor=#82b366;" vertex="1" parent="1">
          <mxGeometry x="300" y="840" width="240" height="80" as="geometry" />
        </mxCell>
        <mxCell id="drxxX0xxiZus8A59z0TH-62" style="edgeStyle=orthogonalEdgeStyle;rounded=0;orthogonalLoop=1;jettySize=auto;html=1;exitX=0;exitY=0.5;exitDx=0;exitDy=0;entryX=0;entryY=0.25;entryDx=0;entryDy=0;strokeColor=#999999;" edge="1" parent="1" source="drxxX0xxiZus8A59z0TH-15" target="drxxX0xxiZus8A59z0TH-43">
          <mxGeometry relative="1" as="geometry" />
        </mxCell>
        <mxCell id="drxxX0xxiZus8A59z0TH-15" value="&lt;b&gt;Argo workflows&lt;/b&gt;&lt;div&gt;&lt;/div&gt;" style="whiteSpace=wrap;html=1;align=center;verticalAlign=top;fillColor=#dae8fc;strokeColor=#6c8ebf;" vertex="1" parent="1">
          <mxGeometry x="-600" y="690" width="240" height="60" as="geometry" />
        </mxCell>
        <mxCell id="drxxX0xxiZus8A59z0TH-16" value="&lt;div&gt;&lt;b&gt;k8s-secrets-creator&lt;/b&gt;&lt;/div&gt;https://github.com/QCDIS/k8s-secret-creator/&lt;br&gt;&lt;div&gt;&lt;/div&gt;" style="whiteSpace=wrap;html=1;align=center;verticalAlign=top;fillColor=#d5e8d4;strokeColor=#82b366;" vertex="1" parent="1">
          <mxGeometry x="-600" y="610" width="240" height="60" as="geometry" />
        </mxCell>
        <mxCell id="drxxX0xxiZus8A59z0TH-33" value="" style="verticalLabelPosition=bottom;shadow=0;dashed=0;align=center;html=1;verticalAlign=top;strokeWidth=1;shape=mxgraph.mockup.markup.curlyBrace;whiteSpace=wrap;strokeColor=#999999;rotation=-180;" vertex="1" parent="1">
          <mxGeometry x="300" y="1040" width="240" height="20" as="geometry" />
        </mxCell>
        <mxCell id="drxxX0xxiZus8A59z0TH-34" value="" style="verticalLabelPosition=bottom;shadow=0;dashed=0;align=center;html=1;verticalAlign=top;strokeWidth=1;shape=mxgraph.mockup.markup.curlyBrace;whiteSpace=wrap;strokeColor=#999999;rotation=-180;" vertex="1" parent="1">
          <mxGeometry x="-280" y="1040" width="240" height="20" as="geometry" />
        </mxCell>
        <mxCell id="drxxX0xxiZus8A59z0TH-35" value="" style="verticalLabelPosition=bottom;shadow=0;dashed=0;align=center;html=1;verticalAlign=top;strokeWidth=1;shape=mxgraph.mockup.markup.curlyBrace;whiteSpace=wrap;strokeColor=#999999;rotation=-180;" vertex="1" parent="1">
          <mxGeometry x="-600" y="1040" width="240" height="20" as="geometry" />
        </mxCell>
        <mxCell id="drxxX0xxiZus8A59z0TH-36" value="NaaVRE Jupyter lab extensions (front-end)" style="text;strokeColor=none;align=center;fillColor=none;html=1;verticalAlign=middle;whiteSpace=wrap;rounded=0;" vertex="1" parent="1">
          <mxGeometry x="300" y="1080" width="240" height="30" as="geometry" />
        </mxCell>
        <mxCell id="drxxX0xxiZus8A59z0TH-37" value="NaaVRE services" style="text;strokeColor=none;align=center;fillColor=none;html=1;verticalAlign=middle;whiteSpace=wrap;rounded=0;" vertex="1" parent="1">
          <mxGeometry x="-280" y="1080" width="240" height="30" as="geometry" />
        </mxCell>
        <mxCell id="drxxX0xxiZus8A59z0TH-38" value="Third-party services" style="text;strokeColor=none;align=center;fillColor=none;html=1;verticalAlign=middle;whiteSpace=wrap;rounded=0;" vertex="1" parent="1">
          <mxGeometry x="-600" y="1080" width="240" height="30" as="geometry" />
        </mxCell>
        <mxCell id="drxxX0xxiZus8A59z0TH-40" value="&lt;b&gt;Cell repository &lt;/b&gt;(GitHub repo)" style="whiteSpace=wrap;html=1;align=center;verticalAlign=middle;fillColor=#e1d5e7;strokeColor=#9673a6;" vertex="1" parent="1">
          <mxGeometry x="-600" y="410" width="240" height="40" as="geometry" />
        </mxCell>
        <mxCell id="drxxX0xxiZus8A59z0TH-41" value="&lt;b&gt;Container registry &lt;/b&gt;(ghcr.io)&lt;b&gt;&lt;br&gt;&lt;/b&gt;" style="whiteSpace=wrap;html=1;align=center;verticalAlign=middle;fillColor=#e1d5e7;strokeColor=#9673a6;" vertex="1" parent="1">
          <mxGeometry x="-600" y="510" width="240" height="40" as="geometry" />
        </mxCell>
        <mxCell id="drxxX0xxiZus8A59z0TH-42" value="&lt;b&gt;Cells builder &lt;/b&gt;(GitHub actions)" style="whiteSpace=wrap;html=1;verticalAlign=middle;fillColor=#e1d5e7;strokeColor=#9673a6;" vertex="1" parent="1">
          <mxGeometry x="-600" y="460" width="240" height="40" as="geometry" />
        </mxCell>
        <mxCell id="drxxX0xxiZus8A59z0TH-43" value="&lt;b&gt;Object storage&lt;/b&gt; (MinIO)" style="whiteSpace=wrap;html=1;align=center;verticalAlign=middle;fillColor=#dae8fc;strokeColor=#6c8ebf;fontStyle=0" vertex="1" parent="1">
          <mxGeometry x="-600" y="770" width="240" height="40" as="geometry" />
        </mxCell>
        <mxCell id="drxxX0xxiZus8A59z0TH-44" value="&lt;b&gt;Knowledge base&lt;/b&gt; (dev version)&lt;b&gt;&lt;br&gt;&lt;/b&gt;" style="whiteSpace=wrap;html=1;align=center;verticalAlign=middle;fillColor=#dae8fc;strokeColor=#6c8ebf;fontStyle=0;gradientColor=#E6D0DE;gradientDirection=east;" vertex="1" parent="1">
          <mxGeometry x="-600" y="860" width="240" height="40" as="geometry" />
        </mxCell>
        <mxCell id="drxxX0xxiZus8A59z0TH-45" value="&lt;b&gt;NaaVRE website &lt;/b&gt;(documentation)&lt;b&gt;&lt;br&gt;&lt;/b&gt;" style="whiteSpace=wrap;html=1;fillColor=#e1d5e7;strokeColor=#9673a6;" vertex="1" parent="1">
          <mxGeometry x="720" y="600" width="160" height="80" as="geometry" />
        </mxCell>
        <mxCell id="drxxX0xxiZus8A59z0TH-53" value="&lt;div&gt;db&lt;/div&gt;&lt;div&gt;(PostGIS)&lt;br&gt;&lt;/div&gt;" style="shape=cylinder3;whiteSpace=wrap;html=1;boundedLbl=1;backgroundOutline=1;size=15;fillColor=#dae8fc;strokeColor=#6c8ebf;" vertex="1" parent="1">
          <mxGeometry x="-760" y="537.5" width="110" height="85" as="geometry" />
        </mxCell>
        <mxCell id="drxxX0xxiZus8A59z0TH-54" style="edgeStyle=orthogonalEdgeStyle;rounded=0;orthogonalLoop=1;jettySize=auto;html=1;exitX=0;exitY=0.5;exitDx=0;exitDy=0;entryX=1;entryY=0.5;entryDx=0;entryDy=0;entryPerimeter=0;strokeColor=#999999;" edge="1" parent="1" source="drxxX0xxiZus8A59z0TH-2" target="drxxX0xxiZus8A59z0TH-53">
          <mxGeometry relative="1" as="geometry" />
        </mxCell>
        <mxCell id="drxxX0xxiZus8A59z0TH-55" value="&lt;b&gt;voilà&lt;/b&gt;" style="whiteSpace=wrap;html=1;align=center;verticalAlign=middle;fillColor=#dae8fc;strokeColor=#6c8ebf;fontStyle=0" vertex="1" parent="1">
          <mxGeometry x="50" y="930" width="240" height="40" as="geometry" />
        </mxCell>
        <mxCell id="drxxX0xxiZus8A59z0TH-56" value="&lt;b&gt;jupyter_videochat&lt;/b&gt;" style="whiteSpace=wrap;html=1;align=center;verticalAlign=middle;fillColor=#dae8fc;strokeColor=#6c8ebf;fontStyle=0" vertex="1" parent="1">
          <mxGeometry x="300" y="930" width="240" height="40" as="geometry" />
        </mxCell>
        <mxCell id="drxxX0xxiZus8A59z0TH-63" style="edgeStyle=orthogonalEdgeStyle;rounded=0;orthogonalLoop=1;jettySize=auto;html=1;exitX=0;exitY=0.5;exitDx=0;exitDy=0;entryX=0;entryY=0.75;entryDx=0;entryDy=0;strokeColor=#999999;" edge="1" parent="1" source="drxxX0xxiZus8A59z0TH-57" target="drxxX0xxiZus8A59z0TH-43">
          <mxGeometry relative="1" as="geometry" />
        </mxCell>
        <mxCell id="drxxX0xxiZus8A59z0TH-57" value="&lt;b&gt;jupyterlab_s3_browser&lt;/b&gt;" style="whiteSpace=wrap;html=1;align=center;verticalAlign=middle;fillColor=#dae8fc;strokeColor=#6c8ebf;fontStyle=0" vertex="1" parent="1">
          <mxGeometry x="50" y="980" width="240" height="40" as="geometry" />
        </mxCell>
        <mxCell id="drxxX0xxiZus8A59z0TH-58" value="&lt;b&gt;jupyterlab_github&lt;/b&gt;" style="whiteSpace=wrap;html=1;align=center;verticalAlign=middle;fillColor=#dae8fc;strokeColor=#6c8ebf;fontStyle=0" vertex="1" parent="1">
          <mxGeometry x="300" y="980" width="240" height="40" as="geometry" />
        </mxCell>
        <mxCell id="drxxX0xxiZus8A59z0TH-61" value="" style="group" vertex="1" connectable="0" parent="1">
          <mxGeometry x="-600" y="40" width="280" height="130" as="geometry" />
        </mxCell>
        <mxCell id="drxxX0xxiZus8A59z0TH-19" value="&lt;b&gt;Legend&lt;/b&gt;" style="rounded=0;whiteSpace=wrap;html=1;verticalAlign=top;dashed=1;strokeColor=#999999;" vertex="1" parent="drxxX0xxiZus8A59z0TH-61">
          <mxGeometry width="280" height="130" as="geometry" />
        </mxCell>
        <mxCell id="drxxX0xxiZus8A59z0TH-20" value="" style="rounded=0;whiteSpace=wrap;html=1;fillColor=#e1d5e7;strokeColor=#9673a6;" vertex="1" parent="drxxX0xxiZus8A59z0TH-61">
          <mxGeometry x="10" y="40" width="20" height="20" as="geometry" />
        </mxCell>
        <mxCell id="drxxX0xxiZus8A59z0TH-22" value="Operated within NaaVRE" style="text;strokeColor=none;align=left;fillColor=none;html=1;verticalAlign=middle;whiteSpace=wrap;rounded=0;" vertex="1" parent="drxxX0xxiZus8A59z0TH-61">
          <mxGeometry x="50" y="65" width="230" height="30" as="geometry" />
        </mxCell>
        <mxCell id="drxxX0xxiZus8A59z0TH-23" value="" style="rounded=0;whiteSpace=wrap;html=1;fillColor=#dae8fc;strokeColor=#6c8ebf;" vertex="1" parent="drxxX0xxiZus8A59z0TH-61">
          <mxGeometry x="10" y="70" width="20" height="20" as="geometry" />
        </mxCell>
        <mxCell id="drxxX0xxiZus8A59z0TH-24" value="Developped &amp;amp; operated within NaaVRE" style="text;strokeColor=none;align=left;fillColor=none;html=1;verticalAlign=middle;whiteSpace=wrap;rounded=0;" vertex="1" parent="drxxX0xxiZus8A59z0TH-61">
          <mxGeometry x="50" y="95" width="230" height="30" as="geometry" />
        </mxCell>
        <mxCell id="drxxX0xxiZus8A59z0TH-25" value="" style="rounded=0;whiteSpace=wrap;html=1;fillColor=#d5e8d4;strokeColor=#82b366;" vertex="1" parent="drxxX0xxiZus8A59z0TH-61">
          <mxGeometry x="10" y="100" width="20" height="20" as="geometry" />
        </mxCell>
        <mxCell id="drxxX0xxiZus8A59z0TH-26" value="External service" style="text;strokeColor=none;align=left;fillColor=none;html=1;verticalAlign=middle;whiteSpace=wrap;rounded=0;" vertex="1" parent="drxxX0xxiZus8A59z0TH-61">
          <mxGeometry x="50" y="35" width="230" height="30" as="geometry" />
        </mxCell>
        <mxCell id="drxxX0xxiZus8A59z0TH-64" value="&lt;b&gt;GitHub&lt;/b&gt;" style="whiteSpace=wrap;html=1;align=center;verticalAlign=middle;fillColor=#e1d5e7;strokeColor=#9673a6;gradientDirection=east;fillStyle=hatch;" vertex="1" parent="1">
          <mxGeometry x="160" y="90" width="90" height="40" as="geometry" />
        </mxCell>
        <UserObject label="&lt;b&gt;VRE PaaS&lt;/b&gt;&lt;div&gt;https://github.com/QCDIS/VREPaaS/&lt;b&gt;&lt;br&gt;&lt;/b&gt;&lt;/div&gt;" link="https://github.com/QCDIS/VREPaaS/" linkTarget="_blank" id="drxxX0xxiZus8A59z0TH-70">
          <mxCell style="whiteSpace=wrap;html=1;align=center;verticalAlign=top;fillColor=#d5e8d4;strokeColor=#82b366;" vertex="1" parent="1">
            <mxGeometry x="720" y="280" width="530" height="280" as="geometry" />
          </mxCell>
        </UserObject>
        <mxCell id="drxxX0xxiZus8A59z0TH-71" value="&lt;b&gt;VRE app&lt;/b&gt; (Next.js)&lt;b&gt;&lt;br&gt;&lt;/b&gt;" style="whiteSpace=wrap;html=1;align=center;verticalAlign=top;fillColor=#d5e8d4;strokeColor=#82b366;" vertex="1" parent="1">
          <mxGeometry x="730" y="330" width="240" height="170" as="geometry" />
        </mxCell>
        <mxCell id="drxxX0xxiZus8A59z0TH-73" value="&lt;b&gt;VRE API&lt;/b&gt; (Django REST framework)&lt;b&gt;&lt;br&gt;&lt;/b&gt;" style="whiteSpace=wrap;html=1;align=center;verticalAlign=top;fillColor=#d5e8d4;strokeColor=#82b366;" vertex="1" parent="1">
          <mxGeometry x="1000" y="330" width="240" height="130" as="geometry" />
        </mxCell>
        <mxCell id="drxxX0xxiZus8A59z0TH-74" value="&lt;div&gt;db&lt;/div&gt;&lt;div&gt;(PgSQL)&lt;br&gt;&lt;/div&gt;" style="shape=cylinder3;whiteSpace=wrap;html=1;boundedLbl=1;backgroundOutline=1;size=15;fillColor=#dae8fc;strokeColor=#6c8ebf;" vertex="1" parent="1">
          <mxGeometry x="1082.5" y="480" width="75" height="70" as="geometry" />
        </mxCell>
        <mxCell id="drxxX0xxiZus8A59z0TH-75" value="PaaS configuration" style="whiteSpace=wrap;html=1;verticalAlign=middle;fillColor=#d5e8d4;strokeColor=#82b366;" vertex="1" parent="1">
          <mxGeometry x="1010" y="410" width="220" height="40" as="geometry" />
        </mxCell>
        <mxCell id="drxxX0xxiZus8A59z0TH-76" value="virtual labs" style="whiteSpace=wrap;html=1;verticalAlign=middle;fillColor=#d5e8d4;strokeColor=#82b366;" vertex="1" parent="1">
          <mxGeometry x="1010" y="360" width="220" height="40" as="geometry" />
        </mxCell>
        <mxCell id="drxxX0xxiZus8A59z0TH-77" value="" style="shape=image;verticalLabelPosition=bottom;labelBackgroundColor=default;verticalAlign=top;aspect=fixed;imageAspect=0;image=data:image/png,iVBORw0KGgoAAAANSUhEUgAABAQAAAJgCAYAAAAd0rGZAAAABHNCSVQICAgIfAhkiAAAIABJREFUeF7snQdgW9XZhl/J27Gzl7MX2ZOQAWGEsPceZe/CDy2U0UJZpWEVKKXsWfYolL0hQEgCCSRkQMjey9nbW7b/7z3SdWRZtuXEJkrynlaxdO+5ZzznStxvHl+pFaiIgAjEDYHNmzfHNBafzxdTPVUSAREQAREQAREQAREQAREQgWgE/NEO6pgIiED8E5AuL/7XSCMUAREQAREQAREQAREQgXgmIIVAPK+OxrZHEqiJoF+TunskTE1aBERABERABERABERABESgUgJSCFSKRidEYOcRkKC/89irZxEQAREQAREQAREQARHYUwhIIbCnrLTmucsQoDLAe8UyaCkPYqGkOiIgAiIgAiIgAiIgAiIgApEEpBCIJKLPIhAnBCTox8lCaBgiIAIiIAIiIAIiIAIisJsSkEJgN11YTWv3IBCrUiDWersHFc1CBERABERABERABERABESgNghIIVAbFNWGCNQigUjhPvJzLXalpkRABERABERABERABERABPZgAlII7MGLr6nHJ4Hw/AGeMkBKgfhcK41KBERABERABERABERABHZlAlII7Mqrp7Hv1gSkBNitl1eTEwEREAEREAEREAEREIGdTkAKgZ2+BBqACJQnUJkioLLj3tXVnRdnERABERABERABERABERABEQgnIIWA7gcRiEMCChWIw0XRkERABERABERABERABERgNyMghcButqCazq5PINLSH/458tyuP1vNQAREQAREQAREQAREQAREYGcRkEJgZ5FXvyJQBQEK/hL+qwCkUyIgAiIgAiIgAiIgAiIgAjtMIHGHW1ADIiACtUrAUwT4fD6nFAj/y468YzvaqRQOO0pQ14uACIiACIiACIiACIhA3RCgDPBbFCkEfgvK6kMEakCgtgR+r0sJ/jWAr6oiIAIiIAIiIAIiIAIiEAcEKnuGr21FgRQCcbDYGoIIRCOwPYqByn44orWvYyIgAiIgAiIgAiIgAiIgArsWgcjn/R1VECiHwK61/hrtHkCAX/LwL7r3PvLLH4ki8rrI8/osAiIgAiIgAiIgAiIgAiKwexHYURlAHgK71/2g2eyBBKpTFOyBSDRlERABERABERABERABEdijCHgyQU09BuQhsEfdJprsrkagMmE/Vq+BXW2+Gq8IiIAIiIAIiIAIiIAIiMD2E6hMfqisRXkIVEZGx0VgJxHw3H74tyoNX02+7H6/H6mpqUhISKiyzZ00ZXUrAiIgAiIgAiIgAiIgAiIQhQCf+YuLi5Gfn4+SkpIoNSoeqk6OCL9CHgIV+emICMQdgUjhP/JzVQOmMiA9PR2JiYlSBlQFSudEQAREQAREQAREQAREIM4I0EDI53g+z/O5PtYSq7wQe4ux9qx6IiACdUog1i83B8G6KSkpNfrxqNPBq3EREAEREAEREAEREAEREIEaE6AygM/1NZUFqutICoHqCOm8CMQRge35AaBGUUUEREAEREAEREAEREAERGDXJuA919dEJqhuxlIIVEdI50VgJxMI/8LH+uVnPe9VVR6CnTw1dS8CIiACIiACIiACIiACIhAjAT7Xhz/nx3JZdfKDFAKxUFQdEfgNCXhf8h3psrov/o60rWtFQAREQAREQAREQAREQAR2LoHaet6XQmDnrqN6F4EqCYR/0WP90sdar8qOdVIEREAEREAEREAEREAERCCuCcT63F9VPSkE4nqJNbg9mUBVX9zKuEReE/m5sut0XAREQAREQAREQAREQAREIP4JRD7fR36u6QykEKgpMdUXgTgl4P0YhP/d0R+IOJ2qhiUCIiACIiACIiACIiACeyQBPt9He+7fXhhSCGwvOV0nAnFMQIqAOF4cDU0EREAEREAEREAEREAEdpBAbT3vSyGwgwuhy0XgtyBQ3Re+svOVHf8txqw+REAEREAEREAEREAEREAEapdAZc/3lR33eq/svBQCtbs+ak0EdjoB78te2Zd+pw9QAxABERABERABERABERABEdhuArX5vJ+43aPQhRUIcGF+kz3fS0oAvx+lxcUI/Pg1Sqf/gMC86Shdm42STeuBnM1AUjL8zVohpdcg+A4+AQkDDqgwXh3YPQiEC/6RSoDIz7vHjDULERABERABERABERABEdgzCUTKnOGfI8/FQshnF5XGUlF1YidQXFoCP3x1oxzgcvl8KDJFQOCVB1E89xekm59HYUkpTE2AYjvtLWiCvUv1+xBISELpsech9ZKbgQTpgGJfyZ1TMzs72/Q9fveigol/WTxlU+TfaAoBHvNeTZs23TkTUa8iIAIiIAIiIAIiIAIiIAK1SmDt2rVOLoh8eZ1UZaCOdk7SYS0tT16gAIXFATRIqYcEX+WRGBTSSkxhQKHdWxCnyXEKBDtWlSIhpAwoeOcZ+J4ZiSSrX2T1t5r6AaYOsI/WbtBLgW0Wu3MJ8AUCqP/R88hPSUPqBX+2SkGlQi1NXc3sRALRlAHecDyFwE4cnroWAREQAREQAREQAREQARGoRQLe83+4cO/kSQqTVsLfx9KtFAKxUKqiTom579OCO2HFTFw56mF0a9IWvZp2wAW9DkeXhq3LFsQJZ/Y/vykLEnwJ5VsMrl3ZsfC6ZQdDYQKBiV8DpgwoNGHfqQBMueArKXYyvucZELxJguoBnqOmIafELM3vPoOSESfD366LlAJVrOmufqoqJcGuPjeNXwREQAREQAREQAREQAT2ZAI7IvxH4yaFQDQqNThGZQAXZVBWN6QmpeDL9dPda96G5Xjj2FvK9oh0Lh32vzW5GzFnwzKszNmADQVb3PkGqRlolJKB5mkN0SKjEVqmN3Z1o5XCD19GWoIfBaV23nIIUNgPFwC3XVOmHnCagmLrJy1QiKIxHyHlnGukEIgGN06PhX/pYx1i9Hsi1qtVTwREQAREQAREQAREQAREIJ4JbK+MEBk2IIVANatM0M7B3/4m+CMs+6FraflPT0zBs0dci0s+fxBzcrMxceVsrMrdgGZpDZz7xqaCHNz546v4aMEPWL5pNUpSra2QW4drprAYaUhEo9RMpxgY1rYPrhpwAtpmNAt6GTCOPHcrSlYuQZHlCygrdA2ospQPXyheNMvVdjdQlddVPMlQhypDGiIucezsGgZCJITi4Cu2qiO1QcBTAIQrAvheioHaoKs2REAEREAEREAEREAERCA+CHjP+JEhAk6+C5cvYxxu5cHuMTawO1bbJsgG4/yZE8BTBgTMBZ/5ArYW5iGnKN/k+CIXBsDX3s33when3otzOg3HKn8uXv31K3d8+dY1OPa9m/HErE+xZLMpA2yxEgvslV9S9vJZNsC84kIsz1mHqVsX48XpX6DIYv9ZyoQ9uv87ITuoBIhN2LO6YZK/LzXNtbldN4vNhdcFhfyKK8/jxTZG7zzrkpuUARVZ6YgIiIAIiIAIiIAIiIAIiIAI7GwC8hCIWAEKtBRiPZd9uvdPWjUHszcsxZz1dPVfjw15W0wpUGjCvg8Nzd2fuQL6N++EQS27Y79WvfDkYdcg7/Mi3D3lDfRr0RkPT34HUzYtMiWAue6bwZzivBOc7S81MvxMmZ3tJVrfhVbpkRFXolPDLHg5CjhMX7368DVsiuTsBbargI2QVvdqPQTYAZUCQa1AQs992FRZn+5DjGXGusVIsl0K9rL5hheXHcH6oPIjXPmwbMsaTF+3CGvzNuOMbgchya/bLUbUMVWrTCFU2fGYGlUlERABERABERABERABERCBXYJAZV4BlR2PNilJaBFUqAzINiv9u3O/w5uzRmPOxmXYVFoAXyJj9k2wprs+JflQCr+leevwy+aleHfZBCQUlLj4/8GteiA1MQmFhYU46b3bLdu/JR60mP8ibkcY2oHAUwJ4f4MWex8KU4BLuxyJ00yADlcGlFq+AF9CApJ67A3MmGD9c2NDbxTRljbsmFXkQudlNETakEPdCadMiKF4NxOF+zM/uhNrirbgun4n4/pBpzslgJcokeNfsCkbU1fPx3fLfsH32TOwfMtarEcerupxHM7uMaLcfGLoWlV2gIBbm9BrB5rRpSIgAiIgAiIgAiIgAiIgAnFEIPw5f3u8viOnIoVAGBEm/Ht2+qd4ZdZXWJSzxgR/k/xNCZBgwrffvPfLXPVDyoDgpWYZp5LAhK9iE/iX56/Hu4u/d0oDhgHwf57g7u0nb62VGdLZpnOxTzIB3e/DBZ1G4L6DLgta3MOEdk+ATxxxEnLfeTq4s0C5cUQurX2mVwC9A0zJke4rQeHxF8LfpEU5j4EoV5U7FBy/Dx/OH48F+WvgKyjG7ZNfQ/P0hjjPdlKgJ8WMtYtxz6Q38O3SaVhXkgsfBdGA5RtI9KNbehb+Puw8V89n81OpOwLyDKg7tmpZBERABERABERABERABOKVQE08AiLnIIWAEfEs8WOW/Yy7TLAtTbaEfwELHSil4B50gw9XBkQKXsWlFttvhRoan71NMHd+JiK0zQCdR0CpCfxONUB3gATbFYDeBrZTgDtgyQST7H9Ds3rgst7H4OS99o9co+DnkHDv79ANCQcdj9Rv38UW2v1DeQa2XRTmN8D2ExORaePbutfeyDj18popAzxlhTXevUk7F++QaFsmBkzRcdeEV3Fuz8OwaPMqHPP+LVhTbDsm5AVMr5HglBkm/aM4UIqRB1yE5IQkp/TwvCOiT1BHRUAEREAEREAEREAEREAEREAEfksCUggYbc9yf0rXA9G9cTu8PONLjF0+HdPM/d2k2dB6mKBNTwCGDVhhojxavT3lAJUBxeZRUGyW+BIK/GYhT0tMRl5pkV1jF4QE+o4ZLdA2szmyMhqjqe0m0LVxGwxr1RPdGrV1CoVYtDsp51yLnIlfI3nLRhRaTD+YbJDKCF7PwfEffjYhPNM6z23ZHul/fghISQ0qBEIzquqP8wywNhJ9wVvk4Lb9cWSbgfhs5RTb7aAYKwMb8PniSXh8ygdYE9iMxEKbptVn0kUK/iVJwPFthuLojoMVKlAV6Fo4F6mgqoUm1YQIiIAIiIAIiIAIiIAIiMAuRiAWWTJySubd7ezWKhEEcm0HgcW2I8CvlhTvR9tCcOrqeS6h4OqcjdhalAdLEuBc/INmf7uYwnhhAA0S0i3BYGfbMvBE9GjcFl8vmYo/fvWY0wfwn2Gte1qCvYMx2BIQ9m7aoVyvXkLDKhfDWd9N8J7wJYr/cRVSCvNRYIoKDiWRSoAwr/xCO17a/wAkX30vfC3a1sg7gGPYUphrDFa5ZICtMpogIzkNh7x1A35cMxdJ5gXRKCUDq/I2uvwIXmiEDQ6l5gXRNKU+xpz5L7TLDG2bGD6wKieok9nZ2U5JxZfzOgl7kU5krJD3Febf8Pf0fOGrZcuWgioCIiACIiACIiACIiACIrAbEFi5cmVMskKkzOBNPfK4FAIRNwUF22JL4Mds/+Wka6u3sWArVmxdh/X5W7AxfyvW5W82oTnPeQo0Ss20uPoGaFWvCXo2bV/W6qaCHPR64WJ3rc9k+ZKg5G45AIBD2gzAgwf9Hp0btorJM6Cs0ZBSoHjeLyj5+BUULpoNX2o6/K3aw9e8je1GkImE5FSUNmuFxAGhEITQNdV9Bzyt0kRTglz5zSOYs3YpUixBYrv6LbB/q94oKgng5TlfobSo2OVMoJ+EUykxCoKeAZykzfGNo27GMZ2G1ChUoJhbMLCpkPIg+Hf79tOsbp7xfL62FAK8j6kQyMrKiufpamwiIAIiIAIiIAIiIAIiIAIxEvBkhQRLOF+V8TBS8PeajzwuhUAE+FIToLwEfiXFlknQrLSekFzTGHgvbv6U9/+Gz1dMQQITE5pLPRUItP4WmVv9Xhkt8e5xd6Bjg5Y1Uwow4WGMOwU4ib2GFvrD3vozxm+cC1+eCZUm+PuY9NCSBCLfJsG2Qh4PzJfAwn+L/Ca8W1f/OvByXNr36BopA2K8//eIajuqEPC8BKQQ2CNuF01SBERABERABERABERgDyIQrhDgtMO9ivm5vHG1IphIhcAun0OghHH91RR/DbLbUxlQumoZShkLnxWy9Ifc8J1LtksOuE3AplV8zuK1+Oy7eVi+arMTjHt1bobTjuyD1OQgXioAKDIzuaAvtO1ggC4Cll5gfvF6/O6juzDq1PtdzgEmAIhcpKjjpzKALuHOOk8Fg/XBcXmv0JiLzZ3ftefM+BVLeNueAmNC9kxMWjvXFBjWvo2HGxRylwW/5U8otH7a1mvmQgHa1W+ONxaPM28BKics8WBGa9yx7/k4tvPQGisDim0io8aT4VZLWmhJEHMLsGlLAdLTknDVWUNQL41sVGIl4CkFYq2veiIgAiIgAiIgAiIgAiIgArsOAc9ovaMj3uUVAlGF5e2hEhLyA2M+RPGTt9tWgpYg8JzrkHTsuWWx984lg8K9/Z+KCPb91Js/4oX3f0HrZhn4Zf461/MHY5Zi4YpNuO3y4a7eegsvoFBNZQITDnL7vVZJjbBvVk+c1H0/9GjWBhlM+FfTwjjz8Guc5T6kCQgd91IixtJ0UHEBvPTrl87a7641PUKChU8ETJlRnJqAq7ufgN5N2mPOxuW4bd9zsP+vvbFs61r0adYRw9v0Q4OUek5hUlNvimJTNoz6fgEm/LIcazZahkIrPuu3floJLjxpgFMI1NZNHwsL1REBERABERABERABERABERCB3Z3ALq8QuOiWd5Fo8RP1zJJMQT1oCKcVH8jJLXSbAtxw4TD0NKt9lQKlCdKlhQUoeO1hJG9cy00CUPzKg0g67FTLzp9W7j5wAq9TBkzEw2/MwBWn9MZVZw/B3x77Bm98MZc2fsxZFFQO8MKC4kKnCEi11PsDW3TFOT0OxVGWfb9pWn189s0CPPbqAiQmz7bx0R4fFMsDFk+fm2fXWZb/S07qi2F7ty9TQniDYZ0Pv5mNrOYZGNq3bYX5Za/Zgr8/MRoFtrVhRnqySzxIpQbHviU3gHZZ9XHzZQc6HYLHZlXuBrw/7zv4zerPrRZLTCtQmuRDciAR1/U9DTcPOQujlkzGu/Otjnk7XND7iHJstnd7wWQLSbj/hmBbr35s2z8+Nc465rjTq3V72d2/pJqfCIiACIiACIiACIiACIiACNQFgV1eIdCxTSNMnbUSY6YG3fVdtnsmtwsUYEjfVujSrjEy68Xobk4PABP+k0xg5s6BOQ2bmXm8PCJPcP55zio89MpENG6QjLOO6eMUEDddeoAJsClYmL0ZF53Y160Xhe8bh5zprOgHmwW9e5N2ZetI4dkS9aPQl4/Pxy6APzHNQhUCzjKeUFqA4YM7oGH9dDSq7ykkXHxAmfA+Y95q3PzoOHRomYq3/30m0lJMKRJWGLLQyfjMX7YBn42zEICkdOelwPZ7dKiPffu3KnMo4FgSfAn4fOEkbEooNFnc+rJX94ZtneX/gl6HmxdAJxcKsF+rXnhz1mjMXLcYPcxbgMdYqMqoqWdA+HiZVJC8jh/eDf95+ycsX5sfUvAEa1Wp0Ck3c30QAREQAREQAREQAREQAREQARGojsAurxC41dzyWV58bwrue368CaSMe0/Ezb8/AOcc16/c/CNj88udNInel5SMlEtvRu4TFjJg8nDa72+zRHomZIfCCYL1gwL5Kx9Mg88E+HYt6qFxQxO0rU6KCeDXX7hfBebHdd633DEvOz+F54MHdXKvn2aswP/9/SPkFhSj1ATz0w7thdv/7+By1zFhBIs3nI+/neOs6AuXb8L0uasxqHfrckNt1CANN1wU3GXgx5+X4eJb3zOlQ5J5TAzCOccGFRZeB54gPySrO/697+/RIDkdXW3bxA62u0B9e8/CjPWlljUwPTEF9ZLScNwHt2FAk86476DLypIilhtwDT8kJGwLgEi3EAGfLxg6UMNmVF0EREAEREAEREAEREAEREAERCAGAuVC0GOoH3dVigLFbkyHDeti2wUGUMjt8AKF6NWluRPS+Zl/qy2h2PuE3kOQ9tAHSP33B0joFxLuw+Ly+XbjlnyM/3mpSchFZsEPWu+9Lrwkh+HJDmlBpxLAGwcTEXrKCdbjHAb2bIXjD+5qoQqJCBQVYPbCdXa8xBLsbbvOmwOt6Dl5RRg7eRGKLfkh0/59YUkNoxW2zT6aNU63LQN9GNC9uVMGcCzF3KkgVLzxdDMlwMW9j8SpXQ9E36YdnTIg2AfDJLjjQvCClTnrsbJ0Cz5dNBFbi/LcQXof7EgJXye+58tTguxIu7pWBERABERABERABERABERABESgIoFdXiGQlBhMmxdg0L8r5u5vAjPdzynkJtlWeVV6BnhMKOlSCDWlgo9eAXyZsB1emPiO1bLXbsXqdTlOAZGWmuSO8UXB29MdUGgPL/zkkgqaYoAvT/hlPb9dxGv37W/hBKUB6zaAqbNXYKXlAEg0q3n4+D1Fw/S5q7AoO8c8GYJjHPPTIuTZloBhugvXfQITD1ofP81cCV9Cqikduru+2Q7PuRIcvNu1gLsrcF58cYtE1mVSQS/hIOfA/9GjwGdd10sMJkP0jnvhA8GGI/6lAiLyxb4rKZx3pJKA4w5/hZ+vpBkdFgEREAEREAEREAEREAEREAERiEJgl1cIeALhNqGZoum2UoW8WR4HJWl7+ZgzIPQeJgiHl4QEO2/VuCWeq2uvTEvWx2M8R8E7XHgvs3Kb8EwBOvzFerS8s9BVntfu3aMVGmeyvQQ7l4Dvpi5x5z0lAN+zL5ZR4+c7RQJd60vNU2Hpyq2WS2GFOxdeP1gbmGIhCYkmwe/br40bo6ewKLUt/lyjVA7Yy+UvMAZ8+Z0ioHxJ8ieW5QrwlAApCTZm+x9zEETNIeB5IoT68Ppyf9l3mKdCRHfudLBK0FvAKVDCXpFKg8jr9VkEREAEREAEREAEREAEREAERCA6gV0+h0D0adX8aOnmDbbLQD5QZAn1CvLhy8sB6jeEv3Un11hBYQDrN+U54T171VZ3jAJ/rlnlV6+ntwA9FEotgWGqy+hPS7knHE9bswBjl/2MJZtXu235+jbvjEEtuqFlvUblBtqwfip679Uc3/603ARzP8ZPW4Yzj+pTrg4FYIYSfDRmDk46pCvWbczBN5OWWX8+jJ64yHkZhCslKDxzl4HvpyxG7y4N0LKpZTG04tXx2Q4NJWtWoOTXiSieN92UCzbupi3hb98VCb0GwZdq+QOoVbF+GRqwLnczUhOTkRswVmatJ4PlW9YgMzkt6FFgbTdKzbQcAyHPAWuPc3FeCbMmo3jmZJSsNW+FtHQkdO2PhD5D4EsvPyZvwu4a65qeGZxHfkEAP/6yzMIp1ro5dWzbGMMGtEXDzO3YsrEcVX0QAREQAREQAREQAREQAREQgT2PwG6oEIi0ace2qHn3Xw3/9B8tht9c+s1qXt9fjLwBI5B2x39cA99PXYor7/zYXPhNQKXs72L3i/HRt7Msg/8cJ7AWFAF/OGsQrvzdYKcMoALg1vEv4O0FthNAWnP0syz945b9grunvYVWqY1xdZ/jcdXeJ7r2qVCgsmH44E74dnK2hS4U4Zc5K12+Ak/gpeWf/UyYttSOF+O8E/ph4vTl+HriChPkC/HVhPm49oJhSEkKejaE5HgsXrEBKzcEbDeEzk4RwLwEDEWwZAUoeu3fwBf/RaEpFPxdLbfAlo3Au88g2ZrIbd8TKX+6DwldggkIn5r2Ef72wytI9yUhz7ZSJIM8BHDy+5aE0ebL3Ai5/gAe2O8SXN7vOBf64DdPgyLjWvLyP5E0fTwCrToDbbugdNVylFjfJR26wn/JbUgceKBTRlB54Ao9A/iPTaJhZhq++XEhbrdtHddsDNgJ1jFlhPXfISsDD914JLp3bOqUDuHKkGBD+lcEREAEREAEREAEREAEREAERCAagd1QIRBtmtUfS73gRhT/aoLr/55EwrqVphgwYdR2HfBKpzaN8Yezh5gg7cP8Jevx7lczTfj0o49Z9A/d14RcK7TcD+rTyr2fu2E5Tv14JObnr8KdQy7ANXufXNbWyzNG4crRj+DGn17E5sJc/HXoWU4AZtm7RxZSEkpRYMLx8tW5mGXW8KF925j1nVqIYKVPx85F04ZJ6GxjSjQLfwK+tYSBrL8Vk6YvM6u5bQVI0zqvMAXAd1OW2OcARgwJjtOm4Dwhcu/9I9J/+hx5XQai3j/eKNtisdi8BXL/finSF8/ElruvQr1HPoa/Xib2t+0Gbx50JlL8SXjp1y8xd+sKJBT7cUmfo5GV0dj1lW+KjMEtuztB3ikDxnyI0oduQHJBHoouH4n0485342LJf/YuJH/wDPLuuQL+B96Bv0O3snPujbVH5ca/XvoeH42ejaMP7Op2UthiIRuvfvQzZixYi8UWKnHbI1/h1ftOc/kiVERABERABERABERABERABERABGIjIIVAiJO/c0/whcyGCJi3AC3Q4ckI2rdqgCvOGORqTzKr/LtfzzZDdSL6dcvCZaftU452bqAAl37+T8wvXouLOx5SpgxwMfcmqJ/b81B8Mn8CPs6ejPsnvYljOw9B32adnYW7fauG6NKuEaYvWOes7t+bME+FAMX7BOf+H3DW8mMPMsu6fe5g9ft1z8JkSxpY6kvE1xMWOIVAsPAqn6vfvmUGOlu7jNenFT4w4SskjP8EBeb+X2KeAs7qTpcCezFUwH/4aSh+71kkZS9CyY9fwX/wiRiS1QNDWhkjK+NXzMRcU3b4TU9x1YAT0b5Bi1Cf9ifkmlAy9xcE/v0XpBXmIf/YC5BqygDnBcDcCZa0sXTTBqd4Sc7disKv3kbqxX8NXssmmDzQvBAWZwcwZWY2/vvgGWjdPLOsjwP2bo/TrnsLq9ZtxbTZq/DrvFXobxzkJbBtGfROBERABERABERABERABERABKoiIJOqR4fJ9UxQ9bdsiyJLkues6CZwe4WCJrcwpLv9JnPjp9DLY/kWJ8BjPFdQFHCy8CszvsLEzQuQkefHub0PN+u9bYdolvMSOxmwXQGKzJV+RPvdTvMEAAAgAElEQVS9bdfCAIr8pXhj1mjXTZGNITUlEf17WAy/JegrtTwE4yYvDgq5Ie+AH00ZsWFLEU4Y0cNdw4R7zkPBrPZMLjj2pyUur0Ew8Z7fhRz8Mmc1jrBtGVnKthq0cSbb/FJsVwPmT2D4ABtjn7ZvIxK7DjBhPxhaULxwpruWXgacR8A48a+brJV1eZvLjvEct1jkuYLn70Vqfg62JKQg5YQL3TFHlDs4sL0ls92xEuu3ZNUyd8xNyP2xv6akqJ+RhPuuP9wpA7iFIkMr+LdZ43o4dEgHq2lJDq3enEXr3HVcExUREAEREAEREAEREAEREAEREIHqCUgh4DFyGfAtcJ4WbCcY24kw4ZLHGHfPF2P9KbjyWNnxRLq3J5owXIw3Z482gdyPNvWaYJ8WXcHM/MkJSS7Gnn+TzJW+nyUWtJz+zgtg0so5bhTcNYDlwH06OOG71NpauGwD5i3Z4AR8lvdHzUT7rHro0amZ+8yy/4B2lujPFBomiC9eucUs5tll56bNWom8wlIcNKhD8JiLvzcxetAIFJx6JUoOOgFpf7o/GB5hCgkf523j8zVq6oR3fi7NCSZR9FuegURjxFdQYA+OidsXese5LwG3KSyeNQVF0yxnAJvr0hu+lu2Cwj45h7gm9BhotS2JoX1OGrB/cHwec2uauxxk1kt2SRop6Hvs2R8/t2nZwK4OKg+25lpOAyvSBwQx6l8R2N0IrFixAvvssw/+/Oc/725T22nzefzxxx3T77//fqeNQR2LgAiIgAiIgAjsXAIKGfD4U5IMCeRBt/OaLQyN4hbMj+yt6zB19Txz8Q9gqz8fL8/40nkGbOvGYuutnwWbslFs0rbP8gWszF3vdiWgoMvSt2sLNG6QgvUbc5FXlOBCFPZq39is/XkYa7sFnH5Eb7fNoZeIsGuHJpZUrxmmzl7jBPVPx8y17QXbura+mbgQjesno0/Xlu6zU2awJKcg9YKIB2vLR8BS/MuPKHznaRPWzZ3fidyh8Yd5TAQbKf+vU5C4XAdsYwIyLOkiUxn42+7ltjR00joZhzinXnYbAiFFQNLgQ4KNhc65iA2rz1wIfAWVNMFxBJtgO1RY2HmO0MuZEGIYbXw6tvMIzJgxA+edd17ZAK666ipccMEFUQd01FFHIS8vD6NHj456vrYPclwc3/vvv4/WrVtX2vyCBQtw+umnY++998bTTz/t6l1zzTUYN25chWt4v2ZmZqJz5844+uijccIJJzglYXip7NrIxm655RaceGIw+WjkuZp+DgQCGDp0KHr37o0XXnihRpe/8sorbg5nnWU5T1REIM4JXHzxxZg2bRq+++47pKSkxPlo4394s2bNwrfffovhw4ejW7eIfD/xP3yNUAREQAREoAoCe7xCgC70FHw963wVrKo85Yn8i7asRL657lMSXpW7AX///uVyCgE24gRa+1/XjCwUW8hAx4wWzpWfngMUghvVT3PJ876csMQ+l9j2g0vxu2P6YPKMbAtXKMKxw4P/MabXgLfzwGEWNjB19lr7bFsMTltsifcKkWmW9W9+WIjh5h3A5HxBRUfQql9mSg8J4KXLF6L4O8spMOod+CwcoNSs83TwT6HUTc8JljClSTQYrv2Q0FOy0kIA7FK2EshsEP16q5s45NCypsqNL1oHoWNlegV+5nSoDPCmRYWEp/Soog2d2jkE2rRpg02bNuG///0vzjnnHCQm7vyfIArIVAj8+OOPOOmkkyoFw/MsQ4YMqVDn0EMPRb169cqOU/CmRfvnn3/GlClTnNLggQceCHrWRFwdeW1k4x06dIg8tFM+v/rqq6ZQTJBCYKfQV6cisHMJUCHwzDPPoFWrVlII7NylUO8iIAIiUOsEdv7TeK1PqWYNelZ5hgp4luuateDVDqoE8hmLz7cWQtCtYVt8ffr9Lr4+3DpIwZcSLL0C+J5joDKAxcmzJn8P7NUKX4y3/AGmXPjh56VO8P94zBx0bF0f3To0dXWd237Iej98cAf8+9UfUFBQjBVrCtzuBK2aZWLl+jwceUAXV7+cPM9rLUQgMOYDBL58G6W2wwLadEbS8Rciad9DUbJyKfx/PtVCIOzCkJDvKT1cY1GKm5dnBS3Md3K6BR+YF0ToNnPzjighjwJeF5zPtvORnyMvDbYWDNsoO+d5GERW1ue4IEDLNJUCzz77LEaNGoUjjzxyp4+LAv5//vMf/PDDD1UqBHiehQqEyHLllVeibdugV074uUWLFuHyyy93lrVvvvkGI0aMiLwUlV1boWItHKACZsyYMRW8FWqhaTUhAnFF4LHHHrP/bpbIOyCuVkWDEQEREAERiEcC5X1Y43GENR5TFKGzijY++GYmxlrivjJBtoq6VZ4Kddsg2ayEIcm7wLLkpyelon5KPWQkpZW9MpPTkZmchgZ2vGFqhr1PL2vak6e5s0CSn3kB4BIDfjZuLsZPXYLjhtuWflbCtxWkIM7dCfp0sbh/S4hYYrH+E6wudxzITEuwnRCC4QLhsnLp5vXI+9tFSHzgavinjkHCxTch7bFPkXzsOfA1aYnSLRud1Z3T8qz+FciGFBteRIET4D2hPzWNERTmzm9X5QVzEERlzAnzZdcFFSVVUi53MuQUEPsFqhkXBE47zbaITEoCLc7xUPr164e0tDRMmjSp0nuw2JRnkydPRv369dGjRzChZyxjp3X/sssuc1XjJU47PT0dqamp1Q6/oKAAGzfa78BuUvj7smbNmt1kNhWnwbXimqkECfAe571eXdnd74vq5q/zIiACIiACIrAbeggwVR/lywria9lqe+fWbsjFTQ99g4tP7g9uY7cjxReKr29bv7lTAuSWFGKtZd9fuGklOtiWfOyTYQLRSrgl3HtPL4COrRthztJNFidfjPuf/855DxwytFOFJqgcYMK9AywZ4aSZa23yhfhw9GykpyVhcJ/WaJCRWhZa4Ckr8l96EGlTR6PAUhvighuRYp4BrgPbYcDtAmDvGZfvxmxJEVkc11DvbiZOw0DPiuBBF+dvOwD4zArpb9bKWfwLzMWgZOkCr0Lo6og/IQVKGZ0YrfyVr3D0bnQ0Pgg0adLExdUzZn/q1Kno379/tQObM2cOXn/9ddDivnLlSmzdaltVFhaCbR1wwAFgTgLG7HulJvVpNR84cKBz6+d10eJjf/31V+Tk5IDu/ZG5AKobvNdeXQijTApH74abb745qncDvRrogcDcB0zGV1kOAS/emkqR6dOn46WXXnIKjOuvvx6//PKLWyuvMAmdVw466CD885//xNKlS13/hx12GO65554KSB555BG8+OKLoNXWC7moyRpVaLCaAx6XJ598Eu3atcPzzz+Pr7/+GoMGDcKdd97pri4qKsJrr72Gzz77zI2fv9HMIXHIIYfg/PPPr6A0IRvWnzlzJjZs2OAsz40aNXLX7Lvvvi4EJrzQxZprw5CRzZs3u/uzb9++LpdG+D3Pe5lceG8vW7YMW7ZscTk0MjIyQGUV7+1Onbb97ntryFwWTz31FL744gv873//c/Hyb7/9dpmnCj1weJyc2Qf7z8rKwnCLAb/kkkvKjZX5MSZOnIgJEya4UBcqwNq3b+/CQ4455phqaG87/dVXX7lwIPaZn5+Ppk2bOo8a9teyZVAxzdrefXnsscc6F3TG+S9fvtyNk/V4H/3+978vCymq6X3OPqLlEIjlvmBIE+/VsWPHIjvbcv0Yi2bNmmHw4MG48MILK+QZ8fq59957wfnz/li9ejWSk5PRs2dP/N///Z/L2eEVb/26d+8Ozp/XLF682N0jjRs3xv7774/f/e53GD9+vOM0e/Zsp5ij0tK7H7p0CXr9hS9MrPdbOJtYxrxq1apy98Add9wBvrxCxS5/4+iN8fHHH+O9995z8+FaUiHTvHlzd9+deuqpGDZsWPiQ9V4EREAERCBOCOxWCgHPhd5lBQgJldHczil/Mv7+uXcmm39+Kjq2abTDy+EJs83TG2KA7SDw/ZrZ2FCcix+yZ6Jjg5YmNls2/VCGf68zhgzwGLfta5JW3x3mQ6k3vv0Htsfc5TPM7b4E2esKsXf3xmACwSLbei8pLE7eSxR42L5d8PArE1w+gsUrzLJnOxpccsrA8nOj0L51k4UKfIjCUj8K0zNRb/ixQWUAmYXyBZRa6AO382MOA3M4CBWqB4IfnDBuA+U2inx5Y/eEpYRu/bE1eBilM39C6dps53ngSrjAH1IGlOZuRaklOvQ7ZUTVor53uRsJeQVbDf7L9ipRvIRX0/udS+Dss892QiYfJmNRCFAA40MmhRoKDIzXp5cBrfYUgvjQ+tBDD5VNqqb1KbRQIcA8AdEUAlXlD6iOJBUJLOEKi+quifX8fvvtV2W4A4UKFtaLpfz1r391AiYLhQ4KhfSKaNiwId566y33u8oHe6+EC6qxtB9ep6ZrVNP2Wf+NN95wQi6F0xYtWjiBnIXCy7XXXuuErj59+uCUU05xxyhUM06aghgTR3o5Lj766CP87W9/c0oAKjQo6FKwo/BIRQ+FsfBC5cEf/vAHJxQefPDBTqDkPUqlhJdP4sADDyy7hAoncqYAyXubgtTChQtdeAfPUciiQBheKHQyMSfPc5wDBgxwSgQWKnQefvhhl/OBChwK3fxvC4VOjjuy8LvDOVFw7dWrlxNAOc7bb7/djYtKt+oKlS5UbDAk6IgjjnD3+7x589zYmSD05ZdfdoJheCFX3kNUqBx//PHu1KeffuoUOFTYMPEmS23f55XdF7m5ubjooovcbw1/B4477jjHdu7cuW4eDPuhsoBzjCy8PyjMcx4UgqngYT9XXHEF3n33Xcc3vPCe4XeAbKlo5L3F794777zjXvRw4LkzzjjD3T9kyfaosONvZ3jOkpreb944Yhkz+6GCjAyoJKRQH66QoFKWhYq2Dz74wCk1qDzh+vN7xzlSsUJll4oIiIAIiEB8EtjlFQLOdZ7Z+ino2gOPy+hvx7w9610m/sRtkRHcDSDRPk+ftxqvfTIdxUXFSE8NYaCFvKywXRM5vWPm1s72i83i7WROFjsfrBI8XmKCcaI9gJ3ebTi+WzvLMu4DT/78EU7rdqBtOWhb8VkuAc/OzrYSLbb+w3njcd2YJy3XwANok9HMzcMTeIf0bYv/vPezxfHTCl+CI/bfy51fYsLzD+vX4qz2HYMu/aHhdGrTEP0tPGCy7TZQaokBG6QnYGhotwG3bSEHzsZztwAWEuDc+U0I96UFHyJL3baDdoxJDOghwBrUBphiwXHgVoj+JKcUcGMkb1NMFJhXgWPD+XFLQnuf0GsQfB26IXGxcSjIQcH/nkLq5X9zeQtc4XDogWAPWyU2lrxrTkDihTciab8j7XioDquFYHAdva0Xg0sSWitTWviMD+uxjrc0wU70b7wS8IQACgq0DFaV3Z9zoBAWLZkfhRuGIFB4oRBDwXV76/M6CoLnnntuBWxV5Q+oUDniAIU6lmiKhuqure48hVkKgVRYUKCN9F6gMEzFSbhVv6o2aSWmAENBiEKNV5j74JNPPnECJgXd2ig1XdPt6ZOWZwpoJ598cjn+nAuVAbRcM8eDV/g79o9//MNZ1j///PMyy6gX3kKhtjolCNdh5MiRTpDmdeGC4KWXXuqs7g8++CA8hQDXjwJ8tEKBjUIzxxqZf4ICFoVICu085wmIVEDRc4ACJXeSiGZNjuwr2k4W/G7SQ4TCZ3UKAXpY0BuDijXOjYoQr5AjPVioaLntttvKdU1FzE033VTuGO89rhmFyz/+8Y/unq7t+7yy+4IeIFQGUGH5pz/9qdy4OJ6///3voJfB3XffHYnQcfKEY+8k157JRL/88ktn9Q8vXBfu3BGeWJUeA/S0oQBN4T9S8cD1fu6555yiiLuxsNT0fgsfQyxj5v3J7zwVIlQIUHnBNQovVIx9+OGHbrxkGEuoRrkG9EEEREAERGCnEtgmKe/UYWx/57SOMynflpwCJxQmmuDrtzj69Zvy3BZ7ycmJ7rz3ojKAe9bf9ujXKCyiS3yJy8bviotnp0Dr7Pkozc8NHQticn3Zi9Wc4G7iZ25+oRNUkyyLP5UBLGf3PARDGpvwbokFJ6+eg6tGPYycQhuPtR0cB+smYsb6Jbhs9L9xWPuByEoPatmpqFi4fKMTsHt0aobmDbnxXwLSU3xutwCWJvZQ8I/ZM/DlSrO622d6BHhb840Y0snGZmM0IX5In7Zo2nBbDGWZsJxqeQ7S66PExpO4dQOKZ01x86RwbhNByaJZKHrpfuRbv4k2h9LNG4Lnk0x5EBLQ0xLNmm/X82Htw/nfu+NJ1ic9HpzlPikZqedf75QGRgglH7+CwKi3g8oGciJn64/eCkW3nufqp/Qd6limp6c6xQv5FhQG3DFy9/rmlov8HNRvBHc2KAoYJTvG0AmVXYMAXax5n/PBd3sLH6Y9qy8tptWVyup37NjRCcAMYaBlMrzQykW3eSYNjLRwVtYfFRUU2Cg8vPnmm044jHyI9q6lAECBPfJFa2N1hQI6BWtafiOt1GvXrnVWRbqWx5IzgH3RMkkX6HBlQHVjqO3zla3R9vTD8AUKnJHKGLo20+LOuYYX/sYwvILF867ge1o5KRhVpwxgXe4sQSXXmWeeWcEqzHuIFlbeGxSiqytcOxZ6F0SWrl27uu8O76twa/FPP/3kcgkwYWcsygC2G229GQ7CdiPvq8hx8DOFfrrWM19GuDKA5+gtwNCKcJ5eG55HQ3ibvJ7z5j1NwZiltu/zyu4LJv/kPcDQgMhCJQUFfArjFMIjS7S5eAlIozHkdzJcGcD2PE8Pvl+/fn1kF2VK0fD2duR+q+mYKwwodIDKWP6W836TMqAySjouAiIgAvFLYJf3EPjh52VYsz4Hz783xVzbTZi1RH78Dzpj7tdszEVW00wkmRKAx3JMETBv6Xp8MnYOlqzMt/+ABS3g9eubgGxJ9ooWzkLxhy8hs7QIefbf++KJpjR4+UEk2NZ4CXv1wWrLOTBvyTo8/64J0D6zbJvF/NOx88yNfxJ6d2mBTm0boXnjeki1mPvnjrwBZ33+ACasmo1n53yDSavm4cyuB6J7k3bItTGOXfoL/jPjc5zZYwQeO+SP7g7JzS/CH+/6CEMsoeA9fzrc2kpH765ZGD15LQb1aoj2WQ3df3Qb2gNTsgkC18/4GZ80aIDWaekoonXQROj9B7bDo6/bbgOBRAwb0Na167wkQgJ1KS3/mQ3hH3480r94FXn24Jj7r+sth8BFKG1ucf/Tf0DhtAlIOfps5L/6sKUj2IrAtx+gsFU7+Fp1hK//fkisVx8Hte2L97MnmtKkCI9N/QALNmWjZ5P2yM5Zh8zENNx34GVIGHoYAhfehOTn70WC5VTIf+BPKJo0GknDjjAFQAqK501H0QcvwG/9pt/7Ooos3GLmnFUYM2kRFq7YbJ4CJbaGwMgnx+D0w3uiV5fmaJCZioXLNtj62dZ1n053PKgYeOWjachqZjG35iHBBIsq8U+Aguxee+3lLGuMF472cFrZLCh8UEij0EvrFEs0V2jv+ljqczy0cvEBmzkFvMKwBC/ut7LxVLVdId3u77rrrjLvhcg2aOmLNvdIwSryOu8z3a0Zh0wvBrqce8UTwHg+1hJrn7G2V5N6saxRTdpj3crmwzhvhp5EE7o8IY25KrzSoYPlZ7EwAMZcc60p+FBIjVbYNguF4GiCfAP7zWZh+9F2puBvGu/pdevWuXh+lmj3NufmKUldpVChhZslUgkSViWmt2ybCjCGLlRXPAGV93G0OVOQpss517gybuF9eAoKfr8976Hf4j5nLgWGlnieRpHzphKGVnKuHcMwqitsi4XziLV4c2cuicgSzsU7t6P3W2Qf2zNmfpeo4KDnBXO90PulOq+vyH71WQREQAREYOcR2OUVAn958AvnHZBingBZjZPNpsyHJCaMKsEjFk9PYZEWZT7cBJjwzv6ybqsmrJtimfxLkdXccgj8/AlKn7oLgcICbGnS2lm52U7J+8+hYNp4ZI58CV+OX4Cn35rilA7syx43zTpfiqfenGTWplRcYskJzz++n13oRwez+H885CzcP+FlvLVqDmZsXILrJ76GhJQEpJmA3jyhPh486HJc1veYMoH9i+/mIXt9kSks5uGMo/qgf/csHGBC/bc/rcQh+3Z2dwk9ATifNLPM03Zy2eSJeHHQUDQ113+GS3SxHANd2zdx2w4O27udE5g5mWL7yznRos+/9S76q1mRLLb5+8+QumoZkp8bGQwN6DkYKbc8AXTsgWJjUfLes+YhsAl+E+rzm7VG+oPv2MX1cV6vw/Hdsl/xyZKJyLUtBj9aNgkfL/gRPZq2w1X9TgjuTGB9ppx+BYradkHhm4/BZ54HaeM+MNPbhxwQ8pLSkXzChUj+3R/hS0nFMlPW3Pjgl1i3MQdZTSxelgO1wt0Vfvo1G3ddPQIHWl6Fx//7I76bsty8EUpsHVJcHa7DXU+Pw7EHdsGtVwwPXqh/454AXXPpFk2lAN9XVRh/TfdpCh+M23b3dhWlpvVpzaNCgO734QqBWPIH0I023EpLLwO6pVOgYux9pCt/+LBpVY0mGFYxtXKnvPwAVAiEWzY9hUA8J/Kq6RrFyqSqehSumfCMr6oS5oUL23Qf/8tf/uJCCfii6zaVAnRl59qH58HwlAxe8sLKxhLePhPHMbyA+QDoXRBNAVBZO5HHvZwV9ErZ0UIvCgrxHE+kNTu8bW/OnndFtH6jKS+i1eMxz6OF3jleqev7nN9ZelZUlevDY0rvhVgUAtHmUdmcveO8t1ii3QPR2tue+62qMUTro6r6PMcxM//Ifffd55KM8kVWVKDQ24NJZCPDH6prU+dFQAREQAR+OwK7vELgs6fOc27iFIa9rfiIjw8fCYybtxIUHIJx786i7I55x+3hw4R0DDkSyfschmTGA9CK7tqwOibcpzKG3yzatFKfcmgP5/ZPN/1gP0Eh27nsm3M/LypeMhWl3z6CjKXTcbc1dKXVn2ku9ptti8HibsejfdcDMLBZZxdCwOLFxn9vgi9LfmEp7nlmDF6+91Qcc1A3s3g3QP8eQWsELf3FNro8xuLbA8xUy7R++vhxuKdPfwtTaOK8BP51/ZFYsykXbVsGLVEJnEiokNMMe5gZtW41Jh92HnJb90Lj1ctRmpqOjHZdMKD/vjihZRYaWL20s65GYPgJSMteDH+DJsjosi1TcqqFZbx49F8wbc18LNuyFqmJyW43hc4NwqwmDmApkvY9zL1KFs5EYKVl8y7Ig79hE2R2N3dY69cVq9fedlV4+6EzXY4H8uRacR1DzThFCMvIqw4JMjO2LmeEFT8rue6qFhJdZZW4IUC35kcffdS5PtPFujLrIWNtmfiMFnAKvXwYZ7wuX4yXZnxreKlpfV7r5SigYM04eq/ws5ecrTJwzOQfKdQzhIFWZcbxx5rUr7L2qzpOqyGFUybEowDFB3q6NFORQctdx44dq7q8Vs55Co+afP+2Z41qY7DeGCmgXHfddZU2yeRoXqG1nYnhmNCNnBmKQcss71u+mIiO2eRZvPaZn4AJ+iorzDLPwjZ5Pfvjd4Drxfuan+mdQoXZzireulIpUJVCwJszPSg8gTZyzPwOVfb9jqzrKQ/Yr1fi4T6PHGd1n6PNI9ZrqvouhXOp6f0Wa//hfVR3Dc9T6B9huSwYssLvBj1CGGrF30DutkElQTwrJ2OZo+qIgAiIwO5KYJdXCKSm1NIUmN2er1DxROhtojTD6xPg1bBo+fL3BAVRSxxYuno+St+5AYmBLcgxITUp2Y/W9lDT2nYcsJgFYLJt39XjSBdDX2LJ8xiHz4cGCsCLV2wy74OAKQos2/XcdRaOMBcnjOiO/Qa0L9fX+oJC5Jm3Ax8EEkwpMMse/k/7fgyOa90Wx5gwv3ezpujXqj4C1ma+9bEiLxfzc7ZiysYN+GbVSsy198Up5klhQ85p1AqFjduYQG3zM2XDW7/8hHumFuOYNu1xWqs2GNKqA8BXlML++5lig6/w4u2e4I5RUKfyxJQifvM64Kt8ZVO+OKHfcj9Y1TQvwWOU/rxDtbbmVfShU78NAQoZzKLN7ORMYsYt36IVJqqitfKJJ54oZ4ln3WjW95rWZzt0E6aQNmPGDGc9pvszY2P5YMvtvqK59Ucbq3fsggsucA/DTOxWlwoB9kd3agqp3OKO7/lAzrFXFcpQ1dijnavKwusJgdwKMtayPWsUa9tV1WOSRS+UoLpkeeHtcP70CODLK/Pnz3eJCZlskAkD2bZ3n3C7w1ja5zZ9VODQoyAy+SMFqpoWr38vlKam129Pfa9PsvFczrennequqcv7nGtHZVo0V31vXPQMYKkN74vq5hrr+Zreb7G2W1m9qhQV5EehP1zw95JKMnGmFAKVUdVxERABEdi5BJSBrRb48z+Qzi5tOQUKP7sXiUVbTWBPQLJJ3IXt90XRfpciv/OByLUkfShZh/wpb7penVU7VLiV4JbcAvtU6lQNTAz4zpe/unCCgL1YPGv4uLVrsMmkZ3/IkyHJFA7FZn35YOtmXDZrOg776ksMG/U5Dh79JQ4ZPQrHjxuNS6dNxuPZyzDDlAOFVt+XZzkUbK/rdHP3b2yhAw3yc1AvNwe+wiJssv5eX52N0ybaDgg/T8Emum3aHN1uB2HFKTLsGL0luMOAtwFg5PaKVAYEJ8DEDGbxYV3P8sMQhjAO5TrQhz2CADON80GSAmK0QksVre20EIa75Uery2M1rR/eDr0EKJzRysXihQt4ycEq6zPacV5DBQOtvMxLUJcl3J2a/dRFuACFaM8dPXIujJen9Zdx77GUHVmjWNqvrg6t8HTNj5ZDoLprw8937tzZeQHQ3ZwKGBbPI4OW/1iKlzivQ4cOsVSvtg5zVrAwDOG3KjWd8/aOq67vc64BcyB4gn/kOKkA4m8VPW/ipfxW7D0lGrdmrElhUkkqW2JJ+lqTdlVXBO04BIwAACAASURBVERABESg9ghIIVALLJkNn0Jt8ZyxSF49HbkBy1PgN6G711GWMM92G5j3LZIseaA/2bb3Y2b+tfMr9ErlAEMfqCKg4F9qeQqmz1uDZas2B0MizNrPOswF8NKiBQxOMPWCCeQMXzBrf/PEBAy0tltZbP6GpEQstoYW5OdhWaAIW0zA8dkDq988FPiXfbAdKjFKrM2AKR+K7cXdqanccNsGmsKg2Or+d+1qnG6KgUWmLEhgPVr7w4rZ9u0TX3TzD8byM57fe4VbE2xorp9i28rQRuSUHawXzeLgnQsPAynXsX1wdezFOnx57yPr6XN8E6C1jRm86YrNGOrIQkGT7tNM5BVp9eS94z2gersD1LR+eH+e4O8pAmLJHxA53vDP9BJg4b7qdVkYw04PCm97RIYp0Pti0KBBtdYtFTK0nkbbT5zMmYGfXgr0rogskYqEHVmjyLa35zN3cOC9Q4+TaL8/sbZJhcKcOXOcwONZjWnlp9DIfBeLbC/66gr3mGdhO5HF4xa580VkvfDPAwYMcB4Q3NOeSfJ+i+LtiEHX8JoKjDUZX13f5959EU05OWrUKKcsoJU7mldSTeZRm3Vrer9tb99eQsNov9FVtUmFKO9f7z6vqq7OiYAIiIAI7BwCteRvv3MGHz+9Bi39JXPHOSE9+Mn+thuI0k/vRGJyAvK/fhT+AnM3zEiCL3Pb/t7eHLgTQvPGGZizxLLrm9WdRvPcQh9+nrvKZc2ndd42PcSYNasxcfNGJJrVtMgeOltYb1d12Qsnt26HhvZQusUUAB9mL8fjC+ZhoUnoiebCywdel2MhApjzaqjkGBUGLH6zBkxPCeCcSRPw/N6DsVembVdo5zzvBipCQqH9kU1V+Mz8B8ESJBRegQK9l0uBx7fVrdCME/69rQjLn63YbsWrdSQeCXBvdibf4/7eFDoj45UZn8qYcybgYwZruqYzAzu3CeRuAyxMaHX11Vdj8ODBLp61JvU9JgwNoDDHrP18iGUYA11yq4oFr4onY2qZW2Ds2LFOWI62DRz3b6/K84FzCU9aF60/CqQU/rklGnMt0NWcc6mq3WjtVHWMyhI+3DOHA9tmnx06dHA7RLAwQR/7Zj4FboXHNaTygMqJaNuube8aVTXGWM9xT3gmkGReAHpvUIjmeJmDIc88pyiIM8mlp1C57bbbXOgI3eHpDUGBm8qAiRMnOgUI2/PCJsic4QOPPPKIa4NhAxSGeD+xbb5Y5/bbby/jxn3qb731VseNyhImzeS4POULM7dT4XDqqadWO0Xer1wj5tbg94oCI5Nbsn8q1Ki44b7ytVn4naP1nhn4Tz75ZBe2wnF4PPmXjKtLHFrdmOr6Pvfui2effdbdt/zecz2oWKGyjVvqefd7dWP9rc7X9H7b3nH17t3bremnn37qvGu80BBu3cnfNYYncQcN3uveThr0fvG8rXgvqoiACIiACMQnASkEamFdKDpTFC3Jsa2FKEhTmjf7e/Hin+A/4HKUzP4SpesscZ8l3Csyj4GkAy8N9mrWchZPwO1mOwR8N221WehtH3Rrgzb8n6Yvx3GWWJBu+CYH47mF8+Gzh8mACerHWBLBW7v3Qtt02zYxVDItD8JZbTvg8OZZuHfODLy+fJlt31eMJLPK07ofTQlQdnHEGyoS6DWQkF9gyoVSnPfTj3hh4GB0M6UArfEU2leu3YJJv660MTMfgs3bzZ08+N6P7p0ao0OrRm5LxWkzs7HWtoLMt/eFlgMh1RQlTRrWQ/fOzdDStof0Ctv+bspiC6EoRqfWDdDDznuFY2I/+QUB23lgORbYFoRr1291CSSzmtV3uywMCCVgLLtIb+KeABO8DR8+HN98840bqxcX6w2cSf5olaPgxGzs9BjgNbTAU/jgLgXcQ5wWfQonNa3v9UNBj4ILXe7fecd21LDCccWaDM1rx/vLMZ9//vkuPvzFF1/EyJEjI6u4PdyrKkykWJ1CgNdTIKNCgIoQ73NV7db0HB/o+YDPNWI/kXHUFPaYGZ2CNhOIUUDmGtHqSjf2yHlu7xrVdNzR6jNfBK3ZzzzzjFtrJqXkWlHg4zm6hFP49AqzpdPlmS7jDA2ggEtBjCEDVGxQCA4vXHMmBuSOBNyKjdnrqWhiBnsKTF5CQV5DPlQ4cN2oFOO9z/65ewFzajD04O2333YW/1gUAmyTCgkqATgvXu8Js+ybCoG6KFTI8R7nd5RrzdAbzpk8aV3m+9oodXmfU5DlHOjRQ+UGFUacB7dN5PagVLR4Lvq1MZfaaqMm99v29sn1Y9JIJoFlnhWGpPB+8ry2qCTklpdURjLkgr8FXHsqEvnbwd9lFREQAREQgfgkYN7hIVNwfI5vlxhV0KLvR9FHdyBp9ufIs10CKM4n2paGxe2GIqFNL5ONLeGgZeZPHHpuhTl5CoEJPy/Dhbe87wR4WuBLfYno3qEB3n04qFmfaf+RPXbcN+hkD5VXdDSvgDZtXVu05ofvJBD++X9Ll+COmdOxwcz4paZEcG7/Vp+W/eqW3rO3e94AJfZAkGSW2Xf2OxD9GzR0bXw2dg7+8tAE26JwC/xJaW6e1DpwDgkpGbjk2Da48pz9LPxhFc64+jX4E9Mt96J5SVgCRioPSgJ5aFo/EWce0weXnjbICfs5eYU46aqXsXpLKk46KAu3XznChRYE9Q0+vD/qVzz3v0mYv3wLEiwMg8oHtwbWd9N6BfjqxZDCpQLpXeMAhS4KJ3yRcfiLM4jMueCtI/+Gv/ggyxcFAxUREAEREAEREAEREAEREIFdn0CkrBAuM3B2nqwQKTN4M488Lg+BWrgnvCABf8/DUTLzUxNMg/H0RSU+pC3/EYWLJjjht9iE4YReR8CXYRbvkCWd3Xuu8oN6tULPjo0xY+EGZ3Fnwr4163OwdkMOmjaqh2aWK+C1ocMwqJFtLxi6nhb/cGUA2+NnJxja+1PbtsNAs6beP2cW3i9YhuLkFJSadYt5AthGNCd7z4uAf0vNXbLELH2lZuFqbZ+PbN8J6XaM53htSnKitZWH5MRiHLZfKzTMTAl6PJjiochiFPbpzauCY0pPS0KBKRROO2wv9O+ehdy8Inw+bi5++Dkbj7z6k/MSOOGQHm7sDTPTsMa8CerZNSylphDwWVjFo6+OxxOvTzLGSWjZJAVHDOuItlkNUWQeBzMXrEXr5panQUUEREAEREAEREAEREAEREAERKBaAlIIVIsohgoh4Tyhk+0o0OckpM6yrQWLSlFkWfTM2O1c50vNUptugnPJIhNm+xxNCdcd9wotuXTBP/2oPrj98XHmHRBwWxDm5Pmwel1QIdA0JRV8sXhx/NEEep53VuVQvY71MvD4gH3wu7bt8caSRS4PwXoGJLCOKS+ccoKOIq4xUybYWNxnc/nraP0NbdIUw5u3xMHNLMu7xdmy0GLP+uwnYPNMsmb+cO6+aNOigTsfWdgF58i6h+3XFUP7tXFVTjy0J87/y1uYsWgLvhg32ykEqCBheAN3V+AwWBJNGfD1D/Px+OsT3TCP2K8Nbr78EDRumBasoH9FQAREQAREQAREQAREQAREQARqREAKgRrhqr5y0hE3oKRJewRmj0bJxhVAznokl9p2hBbDX5rRGCUFW922gtsE8GCbnuvGEcO64Jm3fsLyNZZE0FeE/MJiUwpYTgErLuO+ScO07HseAtWNyIUehPo7oGkz8LXKPAR+3bwJkzesx4KcLVhn1v+ASd4JphyoZ9b/rNR0Sx6Yib0bNkIHUyY0CIulpSLCUzZ4fdvuii5MoJjbCEQUWvtd/ZDmgp83bclDYZElRTSrfr20ZPTaq4UpBHJcngEWbrnoFSoRWDj3Z9+aaEqTZHRuk467rz3KvBPMe8GOB3sNeTx4HZW1oDciIAIiIAIiIAIiIAIiIAIiIALRCEghEI3KjhwzYdY/6Ewk26t061p7rYOvMNe2ITQ3+3pNkNgo6ELP7QfDC4VmCr8NM1Nx4Un9MfLp8U6QTrDYfy+kgPVjVQSUa5sf2H7I3N6CuxPYa0TzFjHN1NtxgKEIZfkEQle60ASnEQA2mKDfYLOFF4SUADyWbgJ/cpLN3cn1QeVA/YxUd4yvzTkFmGi5E+it0KdrcG9n7lEeWeYtXYdZ81bbPFJwyuG9nTKAXgpMJhgs3t/IK/VZBERABERABERABERABERABEQgGgEpBKJR2dFjTvo1q3hGU/diiUVcZUIIyuynH9Ebn4yZi8lzN6FeagBtWtYPthFLI1WMPTzvgJdjwKvuNe3Z+J3HAgV7qxCZoyC8Cy+JHV38f3/LOy7xn9cG3fyfufMU9OjUPKSM4MkSjJ20AOs2bEX2GgsT+G4u5i/bjH7dmuD8EweG5rltomyfZeHS9SgIMJQhH53aBpkG4wl2EEoVvHRKBERABERABERABERABERABHZnAlII1MXqei7vTpi1F63o7MeE7HB3+OhdWzy+Wc7v+dNhuGLkJ+jbtRlaNMkoZ3WPfl3sRylCeyEKVV5VQ/f75KREGzu3R6QiIeTdEOb+H1SLlODF935xOwL4EhJRankS+nVriufvPtW2KQvejuXHFlQIFBQUGwO2alsoMmFBEGeVw9dJERABERABERABERABERABERCByglIIVA5mx0/4wRqewX/H1N7njDcLqsB3rj/ZOdWzxKTAB9TD7VbKZgfwIR/8254+Nbj0aFNI5eU0BsvcwSwBL0TKNz7cdYxvdCrS3NMm52N976aidmLNuKlDybbtoPR9ikOCv8Z9ZINI7cWTMHGzXlOQRJyHqjdCak1ERABERABERABERABERABEdhDCGzL3raHTHhXmSYF3sx6KW5bv3guTiFglnuWRg1S0chyIDRukI5G9dPcy4vxDzoKmELA6g8f2hknHtYLt191KM4+rr+FAvjwnCUMXLl2i2vHCxMIn3f3zrbDQXqypV5IxGjbbcBTOLikgkEnDEtqWBJMvBjPwDQ2ERABERABERABERABERABEYgTAlIIxMlCRA6DAm80wTiyXjx9TkosnyiRY+NWitsKcwiUIj/ftlQ0QZ6vYw7qhiRfPrbm+/DDtKWuavi8mVSRpVWzTOzbv50J/cX4bOxcfD1+vmubCRfpiMGX9zmsQ70VAREQAREQAREQAREQAREQARGohEB8m58rGfSecjhewwTIPyimB4V3Wv/5efqcldiwKejOz7EHTHivXy/VkgDadouWD9B5E1hoAYV3CvIU/Lu2b4JWzRtg6ZoAfp23Cicc0tPOsw4FfdYJrjbrXnXOfhg/9Q3k5Ptx/X0f44KTBmL4kM5o1qie5WgoxZIVG5GRnoLeXWPbPWFPuY80TxEQAREQAREQAREQAREQARGIRkAKgWhUdKxaAiE5PWjpL/UjrzCAa+7+2CUT5P9LbTcBf2IqBvdshufvPc0J/4VFlhgQlkgwdHFxsX0yr4IBPbOwdPRSjJu0CEUXl7itFosCrOt3YQAsAfu7lykPHrv1BNz+2FdYvGIrnn77Vzz5xg9OIcCtETduLUWfzo3w+r/OrHb8qiACIiACIiACIiACIiACIiACezoBKQT29DtgO+fveQjUz0hBp1bpluvAhHK6AYRK0EMAaNeqoTuSlpqEXnu1QH5hMTIzkoK1Qo0cMawbps9bhyR/CZav2oT2ds1e7ZqYsmEjWrUIbrnIpIUMMRjUtw1evPdUvPP5r/hu8iJLSFiENRtykWo7FHRt3xgHDupQNga9EQEREAEREAEREAEREAEREAERqJyAzyy3nrG38lo6IwIi8JsRyM7OtpAK5kfYFjrhhVBwEJGhJN5XmH/DXyWmoOErKyvrNxu7OhIBERABERABERABERABEag7ApGyQrjMwF49WSFSZvBGFHlcSQXrbq3UsgiIgAiIgAiIgAiIgAiIgAiIgAjELQEpBOJ2aTQwERABERABERABERABERABERABEag7AlII1B1btSwCIiACIiACIiACIiACIiACIiACcUtACoG4XRoNTAREQAREQAREQAREQAREQAREQATqjoAUAnXHVi2LgAiIgAiIgAiIgAiIgAiIgAiIQNwSkEIgbpdGAxMBERABERABERABERABERABERCBuiMghUDdsVXLIiACIiACIiACIiACIiACIiACIhC3BKQQiNul0cBEQAREQAREQAREQAREQAREQAREoO4ISCFQd2zVsgiIgAiIgAiIgAiIgAiIgAiIgAjELQEpBOJ2aTQwERABERABERABERABERABERABEag7AlII1B1btSwCIiACIiACIiACIiACIiACIiACcUtACoG4XRoNTAREQAREQAREQAREQAREQAREQATqjoAUAnXHVi2LgAiIgAiIgAiIgAiIgAiIgAiIQNwSkEIgbpdGAxMBERABERABERABERABERABERCBuiMghUDdsVXLIiACIiACIiACIiACIiACIiACIhC3BKQQiNul0cBEQAREQAREQAREQAREQAREQAREoO4ISCFQd2zVsgiIgAiIgAiIgAiIgAiIgAiIgAjELQEpBOJ2aTQwERABERABERABERABERABERABEag7AlII1B1btSwCIiACIiACIiACIiACIiACIiACcUtACoG4XRoNTAREQAREQAREQAREQAREQAREQATqjoAUAnXHVi2LgAiIgAiIgAiIgAiIgAiIgAiIQNwSkEIgbpdGAxMBERABERABERABERABERABERCBuiMghUDdsVXLIiACIiACIiACIiACIiACIiACIhC3BKQQiNul0cBEQAREQAREQAREQAREQAREQAREoO4ISCFQd2zVsgiIgAiIgAiIgAiIgAiIgAiIgAjELQEpBOJ2aTQwERABERABERABERABERABERABEag7AlII1B1btSwCIiACIiACIiACIiACIiACIiACcUtACoG4XRoNTAREQAREQAREQAREQAREQAREQATqjoAUAnXHVi2LgAiIgAiIgAiIgAiIgAiIgAiIQNwSkEIgbpdGAxMBERABERABERABERABERABERCBuiMghUDdsVXLIiACIiACIiACIiACIiACIiACIhC3BKQQiNul0cBEQAREQAREQAREQAREQAREQAREoO4ISCFQd2zVsgiIgAiIgAiIgAiIgAiIgAiIgAjELQEpBOJ2aTQwERABERABERABERABERABERABEag7AlII1B1btSwCIhBGIBAIYMQxZ2HoiJNx0JFnoqCwsM74XPGnW/Hqf98va599zpw9r1b6e/G1d5C9cnW5tu598Encdf9jtdL+9jYyfcYcnHbuldj3kFMc49LS0ho1Fcsc1q3fgGdeeKNG7cZS+aep0zH86N/FUnWXrXP6+Vfh0y+/jZvxf/n1OJxyzhVxM57aHkhd3au1Pc6d1d77H3+JCy6/Pmr3/C3gq7bK7Xc95H6TeL+VlJSUa/ayP/613G/19vY5bfpMDDv0VOTm5VdoYurPM9y5nJxcd+640y9x4/Fe/O05//fX46vR35ddu3R5drk64fVrk02FweqACIiACOwEAok7oU91KQIisAcS+OXX2SakAqM+fAUnn305pv08E4P36bfLkXjp9XfQu2dXZLVsXjb24446pMYCeG1P/PX/fYDuXTvj9ef/jcTEmv+0xzKHdes34rmX3sSlF5xZ28NXe78xgd69uuHqKy78jXv97brTvfrbsY6lp6MOOwg//vQzxv84BcOGDozlkhrV6d2jK1JSkjH151+x35Dy7VPh2KN7F9Srl17W5s03XInhBwx1n3Nz8zB63A+4ZeQ/0aRxQ/Tv27Os3psvPopGjRqUG0tyUlKNxqbKIiACIhDvBOQhEO8rpPGJwG5CYMKkqRg4oDcy7KFs8N79MGHilN1kZkCvHns5JcHOLBSA+NC7PcoAjruqOeTlV7S67ay5RrMA7qyxeP3G45iqY5LVohkOHDY4arVis+LWpQdP1E51sMYEdqV1SklJwSknHIn/vvNRjecZywUJCQkmyPfCT1OmV6j+05RfMGjvvuWOp9p4MjPquVeL5k1xxsnHmCJhb3zx9dhy9erVSyur59Wn4kFFBERABHYnAjU3I+1Os9dcREAEfjMCP0ycimOPGuH6GzpoAF576wP8sQqPZXoUPPrUS5i3cDGKi4vR0gSYF596ACnJyaB7KM/NnrMAPp/PCcLX/N+FzkIeS5k4+Wc8/swrWLR4GTIz62HEQfvhikvOdm2zfPTZ13j1zfexfPlKpKamYOjgAbjh6stw2PHnuvNXXnub+9u9aye88OQDzr2WY6TViaW68bE+QxioHFm2YiW2bM1B/z49ccfN17iHz8hSVBTAY8+8DLp5b9y4CY3NinX04cNx2UVnIcHvB91uf54+y6xjM/DwEy+gb+/uePrhu8ua4dgOP/F83Prnq8qsYjz5r0efw+q163HP324oNwe6Wx9z6sV4/F8j8b/3PsW47ye6sd30t/tdm3SfZTnrtONtDS+wts/Dnbdeh8EDt3l80D348ovOxmEj9jfL4DTj/TJWWKhFTk4eGjWsj7NOP8FdX13hnJ958Q1c94dLnHcC1/upf98FKikeefJFjP1+krWZg86d2uPKS88ts+59NmoMXnj1f1hma5hkHhPNmjXGhWefiqOMG0tV90B1461sTGvWrsO/HnvercPmLVvRrGlj3PHXa9x6sHz97ff479sfYeHipaCV8ZgjR7j7Nlqpbn7V3UPX3nQn2rTOwrVXXVzW/LdmBeV1n7z9H4z65js8+Z9X8fYrT7jzDGk44+Rjsdzux48//wYjb70WA0zAquq+8+6TIw89EL/OnIut5pKdlJSI/7N14DEW9jdj1lykpaYie9Vq8F7mfdK0SSO3Bhs3bUZ+fgEOP+QAt8ZcX5YV2avwwMPPgKEwfrvHabUlK/4OVNcv5/mX2/7h2om8V6u7L9xFoUImbVplYfWatW6cFCLPPuMEnHTcEa5Gdd/LO+75N+pnZuBPoTVgGM/Rp1zkFDE3Xbftx++ksy7HH35/nvsdqmre7DPaOpEn76u3P/gMq1avRcvmzez7dTxOOOawsrmM+f5HPPP8G1iybAXS09KQkOB3a1BZ4Zr9/uqbMXfeQvcbyDH/6cqLnRX+2pvucgrQi849rexyCt38ffj03Rfcb1K0ctJxh+PFV9/G4qXL0b5t6wpVuK5/veMB953dvGWL473/vvu431UqOqs7T6H/s1Hlw3Ko2PplxmxcfP4ZFfqLPMAxcWwqIiACIrCnEZBCYE9bcc1XBHYCgU2bt2D23AW487brXO9DBvXHnfc/CgpQzZo2qTAiCshX//kO0I39thv/iPr1M9wDOQV2xoFeZw+kp5tF5x9/v9HFpL5mwvt1f70b773+lBNIqip84L7tzn85IZgPtatWr7OH0Pvx6hvv4aLzTndCyj3/fAI3XXuFGyfbo8BCQf27L99ygvW9d/wZe/frBZNeKnQV6/j4sHvT9f9nAkdLJ9xecc2tTvi+8JxTK7T5soUpUCi/b+SN6NCutVOS3DryQXugb4zTTjoaTzx0p11/ixP2aemKHBetZ3xYpqDrucmykwmmpKGAU1lh7O9xRx+C8353ErrtReXH/RZ3fIPjwOIJb5Vd7x3v2qUjbr/xamRkpKNeejqm/jLT1usuHDRsCFq3alHd5Vi6LBuPPf0yjj/6UAwzAYHlwUeeQ6n97+Vn/om0tFR8YkLsn2+9F2+/+gS22v1DYezu26/HwP59ECgOmDCx0SlgWKq7B2IZb7Qx3fL3B01wScC/77vNWR3zLJ450wRCrzSon4nLLvydUxRQ4XWjCa0HHzgU/Xr3KKvjvalqfp7SqKp7iEq3dz74vFy7XO8hFqZT2bpRyXaECfIjb7nW3d8vWb6Mqu47r/HB+/THX01oo5Ljy2/G4e77Hzfhdl/3mYXr87ebrnZhNhTqzrvselM29MRD/7gVjRs1dOtx7mXX4aD9h7j7lJbva24cid+depyt4Q0oLCrCvx9/HiPvexSP/fOOsjlV1i+F12j3KnN/VHVfVFgEO8B1vO3GP6Bhg/qYZvct85Pw/uhlLurVfS/7mZLvvY++KGt2jgnXm+238AfzlvIKeXBc/fr0iHnekevE3BRUdDxw51/RKqu5KWDmOX7t2rTCAFvHWXPm2712H2689nL3/S8ynu9++AXGjZ8YbcruGBU4V112Htq2yXJKohtvv88pYy4wpdq+piClJT1cIfD9D5Odhb0yZQDbbNSwgVMQvvXOJ7j+6ksr9F0/MxPX//FS+52o576rGzduNt634LMvxzhlcnXnBw3si4effMEp46iIYeH3zO/zo2+voFKuQqdhB1aaMoVjVBEBERCBPY1AdDXunkZB8xUBEahTAj9OmobWWS2c8MtCgahTh3b4YeK0qP1OtphPWgWvNosgBUYKQG3N2skyySxRFHAZx97YYjtp5brysnORk5vrLEHVFVr/KazQ4kirE9unJe0HGyMLBSA+8PIBlOOkIMAHYRb2y8Kx8X20h99Yx9eubasyHnz4phBTWeLDr8dOwBmnHOvc+hkHSwHylOOPxDdjxgfHFbLI+U1BUdm4KCBOtBher6xctcZZw3i8svL0I3fjMuNMzwsKkZw3i+vDXt7nyq73jpNhxw5tnfInPT3NCQ58YKe1MpbS0oSyl57+J0498SjQ1Z0C4idfjHYeAWybiiJabSmMU/hZY14PHB8tp1QmUejcq3OHsrwP1d0DsYw3ckxUYtEz5A+XX+D64vwoTKabMOyVgQP6uHNs/4D9BqGbeZjMmj2/AoLq5uddUNU9tK8xXrRkmWPhFQqiQwfvXaE/7wCFNAqNzO3B70Z195133T42L0/4p5W7yBKILl6yzdJKwdTLudGkcSOnDGhoXiJcF5ZW9tvAGHDv/p8y7Vd3b3FNaZ0my3NNKcXjtMpX129l92p190U0MPTu4HqxUGingE3hl6U6Pv37FZHp9QAAIABJREFU9nAWdi/khvzJh/fKkqXBe5+ePfxtI5dY5x25TlQ6nHPGieD9wHXjmPezdaYCkIXJ8sicCjWyZF/8bauq8Pvax/JMcO5Ufhxr3iyTJv/iLuG9RY+QzZu3ljXx3Q8/YX+7p6sr/B375ItvyhL8hden8tV9T+077n7zTRnRxwR5z2pf3fnOHdu58ZKjV+i50M/WoSpFMZXKY+13n54lhx48rNwUTjvvKhxy3Dllr3sfDHrUVDdPnRcBERCBXYlA1aa0XWkmGqsIiEDcEmC+gEjBc6hZ33ncCyMIH/yadevR0qyJ0QROWnGyWjYrZ+Wk8McH3FUm5FZXlq9Yha/HfO8sal4ptQdCulezrFm3wSkvtrds7/gouFJQiFY4r/AkhqzDz+wr1kIhnA+zVARQwUFrMZUyzZtV9NDw2oym8Ii1v/B6tPiOMsvxlGkznPs1rfWcK0MZYil+c28OL3SL5rWn2q4K4SVgwiLd1ikQMZzjJEteSbf3Ht06m5Jnb+flwFLdPRDLeCPHtDYkeMfi8eCNmdZIWjMjS3Xzi6zvfQ6/hyhkciz0eGF4CT0aaImnh0BlJfL7tj33He8ZWnejzSt8nPS6CS9u7FuC9z8t0hSYKYiFF7q5U/EXrcTSLxUwVd0X0dqNPMbfnrX2G8FSHZ8O7do4D5EZJjxTGUSl4zFHHOwUWlQOUICfZgoBCqws1c3bU0xErhPXdeR9j+Dufz5eNlx+P074f/bOA0yKYmvDhyXnIFElCiZYA6KABBUwIMEsSeQqBkARzIR7DVcJCgYQyaj4I2BAESXoVVAyKqiwGMgsIDlnJPz11dqzPb09OXXPfMUzDzvdFd+qPtN16tQppQBAwLakKpXP9dwL549yahvC3AU/6KRQ7J6t5A/agBV/yBSY+df3o1w0ysSE/wKlYIRSDsoBa1imJvPz1PYGPKOQE+s3ZEqFljd4ovm7D0UQlFNQysLaBAEOBaF8swZYqA18I+skhePHT0i+fHn1lhXr79SwwS/qLU5GgLULAwmQAAkkGwEqBJKtR9keEnAgAaxUYTVppml/JyZv2I+K1RnrCy6agPu+wsmTOSeSdtfs0h87flxuV6vrjz9yv91tfQ0rnJEEu7rYXTOXAbNWfxNkHNtoDieDnEwbaTDxx6QAE0RsxViilDGwhIhGyJ2mLCf8nHI4bNR4vboIPw0VypXVK5Rt7+sedtHH/5lMfj55tGcbgDWzscMGypq1G2Sl2guN1Uzsh+7+cCft2CzQGIikvuYVbGudrN/B7dQp72PYECeY9lnzwnfrGMqyCvlVKwSgfIOlR6gm0eGMu7S0XH7HMuppPX7OXPdjaoKG1d7/G/O6XTP1tgO7EKhcWJL4Gxd2eVqvQS7lKZD96hSID6wKMOnHKvsK9T+2TmAryaIfluntPsuVVQnkEUKgdlvrYnyHcuW/fR/37SRSyUvDP4qvPAJdh2wybzWBlcBC1QYoBBYsXqotEMxe/P3lh21N2PaAbV/mAD8H/x0wVJ5U2waaX3+t9vj/mtoaZIRA9xGvTu105U9huk4CLnj2zX40jLxgXWQoCuCI8PVhY7XlmDWUK3uWllcMJEACJJDMBLyXXZK5pWwbCZBAQgisXZ+pV3reHfmqTFAv+J7P2Df0C9vvNibTZdTeeKyS2k2uyqmJrV5BNZ1njRW3PaqMsspEO1DAxBjOBH2FMmoLAlbUfAWsUmJFyVeItH52+cL0fOs2b+sH7DvG9VACFABQzoAdFANwlhhKMLZMWNsPx4y+rBuQP7YqwPwbx4HBFBmrwZGEMv9YNfjrR+RfXa1GYjtIH+Wroe0drZSp91JdbKAxEE59S/9jgo1V3khDsO0LVI5WCKh+RoBCIFQFULTGXaB6Wu+jf7aoVW881+EGX2MV+fkaF8GUtW7DJmVhk/XcBcMHzkKxLQAr2+ecU15bMqFfsC0K/kb+XL3e4wgz3HYj3Xo/Mg3H5pm3jgTTTmscbD8pWyZb3mAsLVZHCMJRIp4ru1V4ax7Gd2yPgoIBShFzgNIQbHBEIfw0YCKObVBGCHQf8bBNaJ2yKtizd7/ewlNYbVFCXtYAxRisrPBpcdN1anvC2conxGfWaPxOAiRAAilBgAqBlOhmNpIEEkcAZqVw3gfzdOMFDP9jfyj28WOl2hpg5n36zGm1ijRem47CKSFMnvHyCdNbvEy+N+ET2as87mO1cPS7k7TjMux5DRTwMopJEkxWYbUA0+YdO3d7Vh2x8rVUvZjiPl6i8WK51bQVAR68F6oVMThERL2sIdL6WfPDd9R5yucz9f54nJkNz+vTZnwjja+2PzbOLg9cq39lbb1Sj5VKWBhgshJKwMQDAd7ywR11QbigejVtToxVX/TRyt9XeSkI4PzwlxW/CVZToTjAmIAyCEqNcAKc88GPwrDR7+t98jj2b8/efbJpy1at7IDCAg7gYMqM8hDnp5+Xe7ZdBBoD4dQXe56xCjxi7ARtmYCxhfaFcyRhoPYFywyrpfv2H1TjZp2agK4MWQEUrXEXbH2NeDD7VgNJryLjOcPEGc9iKOPFbqwGGhd29cS4wjiHrJmgHI+uWbdRrm2YdX59MHzgRwC+TaCQMU7hwFaOEmpCOlmdDIBtAIZvlXDbjXp8/Nl0vXcedYUDVrACNwRsE8Eef2MvPu7bKWLN7T+mHJ1CNkLG4dnGyRNwgGkEOOtE/njOfJnl2/HENViE3amsI9B+s4UM/MGsWgvHi4f0MwzniFAMbVfbjCBbAt1H3vhtgU8KKBvA/IrLatlaoJnrBssHOPuEU1djO4hxH6eiQIaYP4ZCFM/6mPcm+2omr5MACZCAawhwy4BruooVJQF3ErDzH2C0BF784cgJ3v3NASvI8C4+YtwH8snnsySP8hFQunRJ+b/Rr2tnU68ob/s4NhDHysHU+PwaVWXQy709js38kYIX80fVEV9QIvQfPFzvHS2pXsrvvPVm7XEfK1QPd26vX/RwH07N8KIOD/8IcGb42ltj5TPlyAsm2OPeHuhVXKT1s6t7pw536Jf8x3u9rF/Qsbp1ozqm7a7bmttF93ntsksv1g7OuqgTCRrUu8Kvoy27TNC2B9TxXW+8/Y6e0MPkuXuXTupIr7uV9/ahcsMt92qz4YsuqO61haDbg/do7+5NWnQQrFbWVi/pt7W+Ud5VSp1glDh2dcHpE6+oPcCdlMd6KDewbx2rryNxJOHRo7qP9IRcTZCKKQUCPJDjpR8h0BgIt77PqzrhqLzOj/ZSyo9T2mneC70f00qsUIO/9hmnJQTKE84qL1Mm6//q8pTul1oXB1aYmfOM1rgLVE/rfYyzgS8+K0NGvKsUYbO0807IBJjf93vuKWt02+92Y7XtnS39jgu7jD74cKq8838f6/GOEz5eVscxGvvxg+FzvvJbAR8lH306XV4f0NdTRF11MgNkDJwMGiHcdsPzPyayOGXjsBrvkFmYPD/b82E99lAGLBseffJ5VVQupYQoKlA6+Qpw1vrJ5wvlf7ffp6PAyV/Htrdpx4JGwHYvOFiELMH2DquPE195G9fh4HDsex9qedSkcZapPrZOQHHVqs0DemUfPj9geYCjBMEv0P226lQKBDzfL73ylv4bx8UGEyAP8Tvy7oSPvdLgmEdruFX5NIDzTfi5yPfPUbXWOPxOAiRAAm4ikEut5vjZ+emmprCuJJAcBLZu3apXNPDByoX5gxZajwwzHmH8b/5gRQWfChWynOUlBx22ggRIgATiQwCTwfvuuUubsDPYE3h92DhtndW1cwf7CLxKAiRAAiQQdQLWuYJ5zoDCjLmCdc5gVMR6nVsGot5FzJAESIAESIAESIAEkpsAFM7fzFmgti7l9OKf3C1n60iABEgguQhQIZBc/cnWkAAJkAAJkAAJkEDMCcB3APYGXXxhjZiXxQJIgARIgARiR4BbBmLHljmTQFgErGZA3DIQFkYmIgESIAESIAESIAESIIGkI2CdK3DLQNJ1MRtEAiRAAiRAAiRAAiRAAiRAAiRAArEnwC0DsWfMEkiABEiABEiABEiABEiABEiABEjAcQSoEHBcl7BCJEACJEACJEACJEACJEACJEACJBB7AlQIxJ4xSyABEiABEiABEiABEiABEiABEiABxxGgQsBxXcIKkQAJkAAJkAAJkAAJkAAJkAAJkEDsCVAhEHvGLIEESIAESIAESIAESIAESIAESIAEHEeACgHHdQkrRAIkQAIkQAIkQAIkQAIkQAIkQAKxJ0CFQOwZswQSIAESIAESIAESIAESIAESIAEScBwBKgQc1yWsEAmQAAmQAAmQAAmQAAmQAAmQAAnEngAVArFnzBJIgARIgARIgARIgARIgARIgARIwHEEqBBwXJewQiRAAiRAAiRAAiRAAiRAAiRAAiQQewJUCMSeMUsgARIgARIgARIgARIgARIgARIgAccRoELAcV3CCpEACZAACZAACZAACZAACZAACZBA7Ak4QiHQsMd7UuKWQTL+6+VeLe41dra+/uDrX8aeBEsgARIgARIgARIgARIgARIgARIggRQi4AiFQArxZlNJgARIgARIgARIgARIgARIgARIwBEEqBBwRDewEiRAAiRAAiRAAiRAAiRAAiRAAiQQXwJ54ltc5KV9vzxTXp4wT1as36EzS69aVv7TsZE0Tq+kv9/Ya6Is+X2L1K5RXrbtOSR7Dh6TiyuXlqsvrijzVmTKmr/2SOEC+eSWBudL//ubSN48WTqRRb9tlufHfy+/rt0uRQrmk8url5fn722s82cgARIgARIgARIgARIgARIgARIggWQj4CoLge17D0ubl6bIj3/+JaWKFpCzihXUf9/93ymCe+awevMeqVK+hJQokl+Wrd4mwz7/UXYfOCJX1Kggew8dlTHTf1Y+C37VSbbsOih3vPCJ/PDHX3JJtXJSpngh+WbZernrv5/IwaMnkq3P2R4SIAESIAESIAESIAESIAESIAESEEcpBHq8/ZV2Imh8Rn6x1KuLJn6bIcdOnJQrzq8gK8Z2keVjHparLjxbX5vwzQqvuC/ff53M6N9OJvS+zXP9xxEPyLSX20i31nX0tbnK2gDh4+9/kyPH/5Z/3XCp/O/VDrJ42P1S/ZySysLgsPy8ZptXvvxCAiRAAiRAAiRAAiRAAiRAAiRAAslAwFFbBkqqVf8iypzfCFjJP3T0b8/3dVv36r8b1qooudNy6b8bqL+xsr/2r6x7nsj//FGlXHHPpWPHT0rBfHmkWoWS+truA0f1/6uUNQHCe8piAB9z2H/ouNd3fiEBEiABEiABEiABEiABEiABEiCBZCDgKIXAC/deI51uuMTDFccOmq0EcuXKUgKcOXPGE8f4859bOfokT57cnmun/4mcJ3eWYcTJ06f1vVP//A9/AbA+MIdaVcrkyJMXSIAESIAESIAESIAESIAESIAESMDtBBylEAgEs9rZWSv78zM2qUl8llJggfob4bx/7gXKw+7+2aWL6svwNzD44WZiKAzs4vIaCZAACZAACZAACZAACZAACZAACSQDAVcpBO5pWkte+2iRdhJ4yYOjNH84BCxcIK90vD7bsiDUjrml/gXyxidL1CkEm6RGp7elZJGCcuLvk7Lv8DH5ZdRDUlo5GWQgARIgARIgARIgARIgARIgARIggWQi4CingoHAYmI+Y0A7ufbSytoJID74e+aA9vpkgHDDZdXLyQd9bpNL1QkDx0+c0scV5s2bW+VdRR1LmL3lINz8mY4ESIAESIAESIAESIAESIAESIAEnEYgl9qPn70h32m1Y31IIAUJbN26VdLS0vQHfjPMH+AwfGkYaIxHGP+bP6eVbwx8KlTw9ouRgkjZZBIgARIgARIgARIgARJICgLWuYJ5zoAGGnMF65zBaLz1uqssBJKiB9kIEiABEiABEiABEiABEiABEiABEnAAASoEHNAJrAIJkAAJkAAJkAAJkAAJkAAJkAAJxJsAFQLxJs7ySIAESIAESIAESIAESIAESIAESMABBKgQcEAnsAokQAIkQAIkQAIkQAIkQAIkQAIkEG8CVAjEmzjLIwESIAESIAESIAESIAESIAESIAEHEKBCwAGdwCqQAAmQAAmQAAmQAAmQAAmQAAmQQLwJUCEQb+IsjwRIgARIgARIgARIgARIgARIgAQcQIAKAQd0AqtAAiRAAiRAAiRAAiRAAiRAAiRAAvEmQIVAvImzPBJIQQKt7n5A/jd7vqflGb+tkrs6PiL1m94h9ZrcLmfOnHEVld179up679i5O2C9Q4lrZAZWS3/JCJi3vwgDXx8p/Qa97S9KwHtdH/+PfPDh5wHjxSNCNNoTj3pGWsbn0/+nxxaejb+2bvfKbuS4ifJE736RFqHTd3/qBXl79P/Z5vXIk8/LsNHv63vP93tT18f4NLj+Lv3svvP+R3Ly5ElPems8cxo8A4FCODIBz8i1N7fzZD3mvclR4xOovriPOn85a7ZXVDy7d9zT1W/yWI3luzs9KjP/973fssO9OX7ip7J12w6/yadMnS7zFy7xG8fuZrjpfOVVu971drdsr7W8vaO8NXyc7b1EXMRzNHTEez6Lhkxv0qK9fh5Hq/FuHW9WmY14v/+5xja/SMeL3ZgINLbD+T00V/6xJ/pKpepXSKkKF8qAQUNt28WLJEACoRPIE3oSpiABEiCByAhM+mSaXHj+eTLp3SGSJ4/7xFCRIoXl+d49pFjRIpGB8JEaL3k1qleRKy6r5SNG6l1u1byp6xRH4fZSxXMqyHnVKsuUz2dJ9y6dws3Gb7orr7hE5sxdnCPOib//loyVf8q97W7z3Gt5UxPp0e0+/f3vv0/Kyt9XSf/Bw0Vy5ZL7O95lG8+ccZHChXKUY73gRpmQ8duf8v2CHwR8QgluHMvvT/pUal18vlQoX9ZnUz9VCoH0WhdJw6vr+oxjdyPcdHZ5XVXnMnn5hV52t1x/bcPGzfLFzG9lwtg3pLqSDwhbt++UHl2zns1QG9j94U5yXtVKoSbzxA9mTFgzj+S3889Va2XCpCkyf/Y0ufii861Z8zsJkEAEBGghEAE8JiUBEgiPwO49++SiC6u7UhmAFufPl0+aX3+NFCiQPzwATBUygZoX1dATkniGI0ePxbM4T1m50nJJuztbybQZ38ixY8djUocra18if65eJ4cPH/HKH6vep06flkvVxM4IUNoVVUowfEqVLC6Nrr5S7ml7q3z97TyvtOZ4Rnz8n0spDgIFt8uEQO0z30/EWA6lfkZcjIPjJ06EkzTuaU6dOqWflYrnniM339Q07uXHo0CsrhcqWMCjDECZFcqVkcYNrgqreDzHZ1coF1bacBNF8tu5Y+cuKVK4cETKgMNHvOVduO1gOhJINgLuW5pLth5ge0ggxQg89FgfWZ7xh/yy/DdtGnlJrQtl9ND+Hgp4sbvx1k7yWv++cml69qQE5pFr1myQV1/uJTt37ZbBQ8fK0p9XyFG8BKoV1fs63ik3Nm2s8/n4sxnyvznzvfKFKe27Ez6Wj8YPy0G8dZsH5cnuD8g1DbNWttZtyJT29/eUF/v29OS5fccuuaXtQzLz03fltHpRbnFnZ5n24RgpW+YsbZL55vB39QTr9KnTUqpUCblGvaQ9/mhnT1kwZ0abt+3YKSVLFJduD3aUm5pl1ddcoXsefELWrN0gcxf+IOOUWTbC7OkT9YsgzMknfDhVmZLv0N+vqnOpPN3jISlRvFiONuHCapVPj2f+K7/9sVpOnPhbrrg8XbcJkzSEo8eOyVsjx8u8hT+pieFhvSr9iKrXZZdcnCM/vIyizVCELF/5hxxVk+Uypc/S3NCH1rB2faZ06NxTFvzvY8mdO7e+jS0WYD39k3FyVqmSQXEz8oUpKsZG36cfEaMuNzRtpM22UZfixYrKjYonVq+xknbg0CEpc1Yp6fPUI4IJGAJMZM89u4Kqxy7Zt/+AFMifXzq0uUVua3Wjvg/LjDHjJ+s2gT0msqOG9JNfM36XYaPelz9XrdPXoMzqqVbMYeXy2x9rpPMjz8qsz97TdTAC+vHWFtfLnbc216b/g4eO0XVNS0vTfJG+vHqZ9xUw9vGyPuub7+XWljfYRnuu3xuyQj1Le1VbsO3m4gtryHPPdves4mK7B1YUd6jnBf1/7tnl5Qk1JjFuLqhRTQoXKijLfl2pJ/hGwDOVXvOCgMquyhXPETwT0Qi+ZEKg5zxQ2f76bctf27Vp/9dT35dixbIsfT6ZOlP30xcfjVVju5TOfsbX38n/Tf5MJr0zxKu4N4aNkw8/na6vwSwbYXC/Pvr/Q4eOyIsDhsiPy5arcXZQqlY+V/79zKOaOYJ5LEOWjHpnoi5nj1KUFlJ9Uk6Nixf79MyxeosxO2jIaPlx6XI5fOSoGm9F5BzVp2PeGqDzRZj9/UL5cMqXsn7jJsmXN6+0UNYLGGtG8McEcfCMtLm9pWz5a5tM/2qO9H6qm/R67hWd/JEnntP/X3h+NXlv5GD9txEaNb1FViqLiZlfzZZXX8vaqpS5Zqk80qO3snaqJv/u1dMTF2bfUB69/uqL4isdJn7vf/CxNuffmLlZCisrk+saXy2DBjwvZ51VUud1VcPm0uWBe1VbM2XSR5/J2BGva9nQb+Cbsmzx/3Sch7o9JUt++ll279ojZ9S/yy9Ll+FDBkolNX6tAX3xskr74cdTtazCava56rdl1NuD1LPlrYxEOX1eHCybt2yTAwcPalnSsH4dLZ/QNkNGQcav/H21HFKKt7x583jJfZQHs/sZijOepRIlimlZBgsSa/hh6a/y2NMv6svGeBs66HnZr8bXyHc+kCkTRliTBPyOvr7vnru0TIfsw9jHbwR+L6AohHwyj1sjw4OHDsv1rTvqr3Zjwt/vjsEllN9OlPPd3IVye5v7dZnYLoDw6YfvyLVqTPgbJ9vV7+1FlzaSLz59X8a+O1FmfT1bNq1ZJs/0eUm9PyzXMnDT5r/k+PETcu01DXSbv5+3SD2Le/UzdudtLeWVfv8OSqmpK8VAAi4lQIWASzuO1SYBtxIY8ebL0rXnv+XaRvXUi2cLbXZsDpg8YvVy4Q/LvBQCCxcvldtbZ03cXhgwVK/Sjx/1mhQtWlgWqbgvvTJMzqtSSaqfVyVkNJigQUlhKASW/Pir5FYTtyU//uJRCOA+JkGYzOOlxhzwYtj02qtlwAtP6wnf/gMH9QTMHGCa2anDHWoiX1CZgs+UV9QEt8k19fVLuzmMHzVYv4DXUO3ofO/d+haYQJnwmlKCYEJ/5RWXyt69+2XgGyN1PgNefMYrD+NL7txp6oXvTqlc6RylRNkjz/5noGDSg2sIr781Tr8k/9+Y16SgUjDgxfQZFWfKByM8SgNrxpdfWlN6PdlV84fJ6JN9+smXH4+T/PnzWaMG/B4MN3+Z1L/ycj0Bxgs4JvBQurw1+AU94U5T4+qNt9/RSqdRQ7P33ZcrW1qe69VdK1F+XfG7YM/t+dWrKqVB1gv/ps1b9d761jc3kwbqBR8vxk+qfft3q7H6yn97aWXQxI8+V+3uL1MnjZKLLjhPKwIw+Wt2bQNdXYwPKHXqXXW5Xm3v2eslveLf//mnBSb5Q5Ty6KVXh8nbr2W94PtqY5s7WsqEyVN9KgT+pcZTPtUPMMmHQuD5/m/qfcXP93pMZ4nx1fDqOvo+JixQJvUb/LZ8Pnm0Hqd4+f9JKQDMCgF8r6vMrgMFKLYwgYlG8CUTInnOA/XbOWeX05P+FWoS26DeFboZS376Jeu5V/8b2wDw3F+WnlNBhi0UmLjPVVsGjH4E02/mLNB9cV3j+nryByXWq2+O1goljE1rmPXNXD3xhjIBk/tjSkmHySgUjdaAPA4cOCTvjhik5d4hNTHbuXuPVzSMxYfua5fVNrX1A7Lkusb1tMVHICaYsCKgHCjXXvr3E1L7sppaqXeDUtIOVHKmtnr+rTIbab77+lPpeH93qaWUSc888YjOJ5jtYL7SLVr8kzzb9yUZNWyQnvRBOfTEM8/LE88+L+PHZu8df/6lQXLXHa1kzPDX1PN6pUyb/rUu2wiP93hYj/1iRYtqWffwI0/rvecjhmYpOcxxP1Jb2SZ/NFUmjh8uVdVvCSaEf23dJudUKO+VJ74gv6cee1ArDfB87dt3QMmSf8us/82Vls2zt5BgC0MfpSSAnIeSuv+g4R65P1kpbj7+bLq89J8nlRyprvr2oBoro3KUhQv4TRzy6nNaCfH11PE6jjHebBOEcRF82t/VWik/qusJMJRPduMWCmV/YyLQ7465asH+BlzTqL58Mmms3P9QT1nzW9ZWJ/wuBjtO0O8d2t0hPR55wDMuoWQa+darWjkExcG1198uV9erIx9PhKK/tFZEXdPsVmnRvJmgfAYSSGYC3DKQzL3LtpGAAwlgoo2ACRt+0I3v5qrWr1tbFi1Z5rm0R01+V61Zr1/cDxw8pC0DHnmoo3qBLqf38cMyAC+u380P3aEVCsELP1bOjICJQWu1uotVGSPgvt3KOV7+d6mX8jpqclWqZAk90YTiABN6c2hyzdV6hRYm1x3b3qZX5zdmbvGKgy/gkQv/DD7/rK7PmbtItx8TDbyAVjy3gnS5v72yJPjRy7mbOcNq6qUWdYYSA5Peptc18DiYwsQUq5KwCECdMcHHSnmePLnlD7VX01eopybhiIvQVk1yofjIUKvyoYZgufnLFxNaY9IBhQwm69hbqxkqfjc0aZTDoRasGQyLCqzCQ8Gx0DTWyiuFwfujX9Mr+zDHxQQZ4/TBf7XVfVdarU5i7MH0FJNJlIMVd6zaGmHJT7/qvsbnZ7UCjxd3sMUWE4zXjmp/Pq5jP76/cP11DdUK83493u0C+hdloD3o48ZXXyWZm7LHFPZ7YyzCGgMvv9c3aahXIg0z8Dq1072cV2KVDKuZmHz4C7D+mPjRNEH9zAEO9pq2usfrY3WMaJevnUyI9DkP1G+oBybJy/957jFUZ4pHAAAgAElEQVRxh5NCPPd4/o2gFQKXZFsqGdfRp5Bh5ufU2BqByTrMuKFwwIojxpIvx26wVkEcWJtgogWrGyinDCseMy8oCjBxNOQeLEjMWzsQF88EZA/GBBQ9F6jV/D/+zHqeg2GCPJ7q8aD0eqKLHtd4vgwLH7TZl8zGdeh2EQdpglEGoCxf6TCxv6HZtdK65Y3KgqOosl6qIn2VlQEsEP5WsssIrw74j7Y0uE6t7ua1KFcR56ILaujJPawKSiuLoeY3NlGWZus96c1/YPJf8dyz5bJLa0lxxQ9869S+VP9tDVCegDNkBPoK8ji95oWy0fT8IQ1+FwylL34D/laOOA25/+13C+SOW5prXzGw+MI4KFrE3i8NxpYxvnQfaN7eynRrHUP9jnZgWxb6EHnjd9XXuPU3Jvz97pjrFMpvAOqDeiEY4wvXgh0nM6dNlN5PP6b71gjV1ZgyLEXKlS2jlQFnqTECZQBC5UrnSp0rLlOyOjIHv54C+QcJOJgALQQc3DmsGgmkKoH6amUVTst27d6rJ2CwAMBKLCY2WHlFsDq3OltNfrBqGU7AC//rygQYEyW8ZPy8fKU8+/jD8u33CwSTH6zuY2KAVV5rQPzbW9+kVt9f0abzeLGvrV7w6l15mc8XNkwMCxYooJUbwYZtaiJ3jmW/JxhgIoP911j5DhQwacSEDwETQ6S9U3mMN4eTapIK89ZgAl508aINhUioIRxu/srAih2CsX0Af2PyDcUH+tVQYljzqFC+jB5nRkhTVhXmAO6IY375xsswJnvblUMvBFgqYGXeCIt//FlbByDA9Dpz0196kmwOWEWDUsHXdg/ExaQDigSYpmOiZw2btmxVK5Lfywa1koUxAOuGMqWzzKkRF/34pdoy8KeaAO1SFiLb1eQT4ZTa1oKAif/gIWO0RQtWlqH0yqfKxAqhOWCij9VNBJwsAMXBnWoi89B9bb3iwSKha+cOXtfsVrq9Ivj4skNxRwj3OQ+m36As+0ZNyhBWqNV0MLhDWSE9qk5gwGQF/LB9yDrp9lFln5ehSEJeyNM6iYOC76NPZ+jtC5coBUVNte0DygQ7bq1ubiovK8sSWKOgjzABvabhVVqW+Ap45g05EwwT5GNMvHzlGY/rm7f8JVUqV/QqCpM3jD/ILpjyI+ROy9qO5KtO69ZvlI+mTJNVSsmJ8b9u3UYp78MxYqsWN8rocRMEpxTUvaq2euYuUQqEptpywy5gu808tbUL20/w/K1XY6WCj+09WXVN08pcoz+w3aCKmnQ6NUB++hq3odTZ/LtjTheN34BA48SwekkLME5Qr5JKoX9EWYWYA+q+f9/+UJrLuCTgSgJUCLiy21hpEkhuAlglwyR88Q8/a/PLhUuWqv2Z2fuc0XrzkWdZ308pU9YsLnihxct3sKGqevEsVKiAXknDBBIv45iIYMKE1UL8vUa9SNpZCKCMxx+5X5taYm89VtehzLhUKQdefu5Jn1XAxBMT8lDCSUt8K4NAeWEl1ijz+D/O6mA+HowXeF95Y5U7LVdOYzNj1ddfP4TDzVc90pQjPgRzeXDOh2BMgO3SQgGSp4D/n8KTJ3P2k/laXaUQeHHgUD0xOLtCWflBWQj8R21lQDimJs8Yy/835nW74gNeu+OWm+S2dl20N3FzwBaQex98Uu5tf7sae7coZVkJ7fF+5tdzPNGwv7eSWvG8TU1yocCAifl9XbO3l8B6AM/aMrUyjokpVshhMWGs/hkZmSf6mMw8+GhvadTgyhyrwNgOY53AB2xggAjWMa65B7kwGqjfLlMWIvChgTLwnNdVK+LYcgT58efq9bJn7z69auvP10OA6uvbxgQbFixWtugDPIPYtw1/FLBKGjLiXXln+Ks5rIxgkQELnRVazqyTyZ98of0PwL+BLwenmDCbx38gJsG0J5Q4kAP+ZIC/vKwWNHhWQwk4JvGaZrdJz+4PyiNd75dyauV3+qxvZPLH9kep1lBWVMt/miPL1N7yZb+s0PvW//3CQPlmxsdqK4S3nxT4ePmv2rr2pNo20Pz6a/Xz95raghUoQE4ZMhjyPJytVoHKiNZ9Q37ajdtQyjD/7ljTReM3INJxYtQJCorTZ7KUpZ5ravxaf3etbeB3EkgGAjnf4pKhVWwDCZCA6wlghRV+BLAHGxMsY5+zYc5nPRMb3/HCh4CVDTg+CjbgRQCrgFgh1RMDZSaIgL3U8COA48VgneBvsoMVeryw4yin/zz7qCxQPg/CDVg9tnr3Rv52bcYEAy+joYYy/+xRhgO+cANWluF8yc46AWbTCIH6IZrcwmnHug2b1ITPt3VFOcVJW1OocWgEKI3gAK7sP1YZWAGGw7gfl/2a5blfrfwbR0ZCubRFORVEmnACtqFgQv7J1BleyeE8sWDB/NofBJwmYtKa13SEJybucHLZudPdet83HG/CT4Q1XKm2DcCUHAFbE65S/imswZjoY/yjnVAwjBw30Rotqt+Dec79FRhMv8GJJlYQwQnPvdH2q9SRjPie5T8g53YBo1w8e8ePR34KBOqA7Svt7molr77US28LMG9XMrcTZt1X171CH/c4+q3+sk0pimAhEkwIhomvfLRMUsotfwGm3MeOevMogRXWAwf8JdOKJWu6c5TzT/P2F2SA74hrJ2/sCliqnkc4aXyyZ1e92n+uUo7ZbSswp82XL6/UU3y7PfwvmfDu20pBlq4VA9bw07IVWjkDh3zYjoXfB2whCSWUUmzgG8GtIZgxEUzbIvkNiMY4CaaOjEMCyU6ACoFk72G2jwRcSuBqZbL5g3opx15rrGAb5y7DIzhenuFADhNkTDhh9vuLchDXSO2hRji/RlVtPg1zfwQ44sIEyl/QfgRUHlA+YO8sAhQCv6z4Te8Pt9tHbOQHc2OUh0kYXvC+m7fYr/LAXz1wD87K0G7sv4aDOqywwYwYygk4MYMZ52Zliv7O/32sJge1c6zUBsof92EeDSXIsNHv6wkFjtjDiijM0M2TX2teeg+6mhiA/SDlLK20Wnk2vPib4+IFGR+wQMCE2Jh4GvGizc1aV7vvaCPMQvcqM1A47IPlx7UN69lF1ddgqo8VvfcmfKLToD9GvztJT67hjd8IUGDBd8AiZdWCsWSs2GIPsepA7ZwLYwOO3bC6b1Xu+KyAugHngl/M+Fb1e7aSCyv+8DAOj95Y4ca2hN/+XK3qeEAfvwafATAlX/pzhu5PlImxjWAuG1YwmNxg28TvaoW6TgD/AUjfqf0d2ov99xafHagHnkfrB+MX92A5E6wCKpjn3B+zYPoNikCY6cMPBywC6qhJIwKee8geX35DjHLLKUUS2gOFAsZFOEofjAns0wZ/cIMMwvOILVDWgO0LkGkYhzhx4Otv5ulJqN32AmtafA+GiV06XCuv9ljDsSvqC0WgXYAZ/4JFP2hnbHDShn5PV3znzV+sHeYhbFDjZs26DV7J7dLh6MA538+XGbO+1Wlhjj/ojeHSrEnjgJN6I3NsDcDznqEsKuB3YM3a9fKzsoLZrbY4HTnqbRqONJC3uL9t+w71bB2QxcoybdWadbYnEmAr2yqVH35bIA9h3QHFH7YlYEU9mIBx9vn0bzxm6vgNgVx3SwhmTARqS6S/AdEYJ4HqaNyHBRhOlIEvDwYSSDYC/u0kk621bA8JkIBrCGDSjxerR598Xu667Waver/Qu4fygDxGH2t3XDm1g5MtOMHCcVgIMMOFR/9uyoM8Vt8w+YVDKX8BE/63Ro3XDumM1V2sXOClB8eOwdGWrzB+4hT9QogXZZiAXqT8CLzQp4ev6AGv36F8Evyi/Bjc3am7VobA3BwTy0cfvlebE2/btlNPSDF5e9pPvQIV9JzyRv+KOqmg00NPabNIlIWJ5kh11J6vbQTwCq1f7tViWK2LL5DXlHd0qxm0Ue4zPR/SxzGOemeSmqAW1MfimUO0uQVqL+5/oDztQ5GCSXMVdfrCy/95Qu1V9r2PFyuyr6hV2+FjJsh7H3yit0dA4TTo5d5eJ0RAgTX+gykC54/du3TyVAXpB774rO63KZ/P0uPLmOz2e+6pYKqs/VKgjjghAqvDCHA8d5c6+aCLOrEDk0Lsr26glEOwFMD2BZx40evJLtokfujI95Tzs7JaeYSjGns++199tB4CxhDit7yrs3aaiO0NgQLi4YQQ9CssdwyTePgawMcacMzkzl17tRNL8xF41njW74Gec2t88/dg+w3PPfoWq/LG8YNQCIIJwjPqWE9fARM68Hu4R1/dB3ieQg2r1mzQfQRFGxQKeP7uvPVmfQqLNcyZu1j7hNillA8Yh3Bk9+K/H9fOTIMJwTKxywtONV97a6x89uXXejyOe3tgjmj3d2qnlAY/6eMAwXLuN59LG7WdZY7yxXJJnevUyQhFpJLaM3/Q4jvFLl1jpaR78T9Pa5N9HAsHBReuDRqQdfRhjsJtLsAh4EOd75GWt90judRzV+O8qnJ902u0pUC3x3rJe2O8j5LMWPm7PPffV2WL2tsPCy0oFB64r720anFDjtzhN2bZLyulVZsH9NF1sJzBs4BjQj9SPj/gwDNQeLhze+3J/86O3bRSFw5C7RQVgfJJ1P1gxkSgukX6GxCNcRKojsb9Y8oaCD54rNZ7waZnPBJwMoFcSoMb/EZbJ7eEdSOBJCGwdetW/YJtePrFKpbxQROtTqmMRxj/mz+YTONToUKW8yW34rnngcflsS7/8qzau7Udbq+39fxoN7bHfO62G+vv5jpPVRPJ2d8vEpydzkACJEACJEACJBA+AetcwTxnQK7GXME6ZzBKtF53zJaBzz77TOrUqeP51KtXT5/Ha4QlS5boe82bNw+fHlOSAAm4isB6tb/7L2WaDkdnDCRAAu4l8Lty2Nmgfh33NoA1JwESIAESIIEkJeCYLQPLl2ed4YzVzH379qmjo47K77//LpdfnnV0Uzz5X3vttcob8yF5//335eKLL45n0SyLBEjARODr2fO04ybj6CDCIQEScCeB3k92dWfFWeugCJSq4O2FP6hELoq0Z+sfLqpt8lXVCeOLYyD5xhVblE3AMQqBFSuyvBz36tVLpk+fLl9//bVASZAIhQAHCAmQgDMIPHx/e2dUhLXQDgIXz/7U1SQ+Gj/M1fVn5UnAqQQ4WXJqzyRHvTi+kqMf2QrnEnDEloED6kiaDRs2aEo1a9b0rMobSgIzvoMHD8q//vUvadCggdxyyy0yZswYz5mu2GIwaNAguemmm6Ru3br6f3w3jgX66quv9LaDdu3aebJ866239LWXXnpJX2vZsqW2DkC499579b01a9aYq8C/SYAESIAESIAESIAESIAESIAESMD1BByhEDAm/tguUKJECY9CwNhGYKaMSf+qVaskX758yhPsFhk1apTA/wDC8OHD5cMPP9RbDipXrqyOjdmvvw8bFvyq0IUXXujxmHzeeedJrVq11PFROc9udn3PswEkQAIkQAIkQAIkQAIkQAIkQAIpTcBRCgFYByBgUg7vh3v27NGTfnMoXbq0LFiwQObMmSPNmjXTt+bOnau9qX/6aZY5K6wCPvroI3nttdf0/SlTpnisCLwys/kyePBgKVSokL7z/PPPy3vvvaeOqPF9JJVNFrxEAiRAAiRAAiRAAiRAAiRAAiRAAo4n4AiFgGEJYCgEMCGvUqWKhmfdNmA+fq1hw6xzXnfs2CE7d+70nEpw5ZVX6rTG/yfUebKIw0ACJEACJEACJEACJEACJEACJEACJJBFIOFOBbGyv3LlSl2b8ePHaxN/hL179+r/oSyALwC7cOrUKX3ZrCQwxzPOZzfi5M6dW99GmQwkQAIkQAIkQAIkQAIkQAIkQAIkkMoEEm4hsG7dOjl8+LDuA+z937Ztm/4YjgDt/Agg7smTJ+W7777T6cqVKydlypTx7PX/8ccf9XXj//z580vZsmW1fwKE3bt3i1lZoC+aQp48WXqSI0eOWG/xOwmQAAmQAAmQAAmQAAmQAAmQAAkkBYGEWwgYE374DZgwYYIHKjz7t23bVlavXu3ZCoCb2BoAiwGcBAAHgwg33nijthJAfOz5f+aZZ6RSpUqSmZmp77dp00Y7CkQZcEYIxUPHjh0FFgN2JwjAZwDiPPbYY1K8eHF5//33tcKBgQRIgARIgARIgARIgARIgARIgASShUDCLQQMhQC8+ZtDtWrVpHDhwtoZILYU4G9M1IsUKaJX+GH2X716dXnqqaekefPmOmmXLl30B6cVbN68Wf//8MMPS7du3fR9pO3bt6+UL19eKwKgVKhYsaJXufjSvXt3qVq1qseKAD4IGEiABEiABEiABEiABEiABEiABEggmQjkUqbzZ5KpQWwLCbidwNatW7VFCz6Gfwyznwz8bQ7GI4z/zR8ozfCBYoyBBEiABEiABEiABEiABEjA/QSscwXznAGtM+YK1jmD0XLr9YRbCLi/S9gCEiABEiABEiABEiABEiABEiABEnAfASoE3NdnrDEJkAAJkAAJkAAJkAAJkAAJkAAJREyACoGIETIDEiABEiABEiABEiABEiABEiABEnAfASoE3NdnrDEJkAAJkAAJkAAJkAAJkAAJkAAJREyACoGIETIDEiABEiABEiABEiABEiABEiABEnAfASoE3NdnrDEJkAAJkAAJkAAJkAAJkAAJkAAJREyACoGIETIDEiABEiABEiABEiABEiABEiABEnAfASoE3NdnrDEJkAAJkAAJkAAJkAAJkAAJkAAJREyACoGIETIDEiABEiABEiABEiABEiABEiABEnAfASoE3NdnrDEJkAAJkAAJkAAJkAAJkAAJkAAJREyACoGIETIDEiABEiABEiABEiABEiABEiABEnAfASoE3NdnrDEJkAAJkAAJkAAJkAAJkAAJkAAJREyACoGIETIDEiABEiABEiABEiABEiABEiABEnAfASoE3NdnrDEJkAAJkAAJkAAJkAAJkAAJkAAJREyACoGIETIDEiABEiABEiABEiABEiABEiABEnAfASoE3NdnrDEJkAAJkAAJkAAJkAAJkAAJkAAJREyACoGIETIDEiABEiABEiABEiABEiABEiABEnAfASoE3NdnrDEJkAAJkAAJkAAJkAAJkAAJkAAJREwgT8Q5MAMSIAESCEDgovtGyNY9hzyxChfIKzWrlJGn764v119RLUBq99/+8c+/ZNXmPdKhaa2QGjNl3u9StkQRaZRe0ZOu5/Cv5dSp0/JW95tCyouRSYAESIAESIAESIAESMBKgAoBKxF+JwESiAkBTGBb1T9f53346An5ZO7v0q7fZ/Lpi3dJ4/RKMSnTKZlCITB98ZrQFQJz/5D0amW9FAIdm6XL6TNnnNI01oMESIAESIAESIAESMDFBKgQcHHnseok4CYChfLnkRKF8+sq4/8et18la7bskdc+WpT0CoFo9tMV51eIZnbMiwRIgARIgARIgARIIIUJUCGQwp3PppNAogm0rF9DOg74XP4+eVry5kmTv3YfkmdGfyPzVmTK4WN/S7UKJdS2gqvlrmsu8lT1g28z5K3PfpD12/ZJwfx5pVntqjL2yZYyevoymTLvD/lqYHtP3A+/+00GfbRQfhr+gL5Wp9tYqVyuhPy166DsPXRUcql/d197sezcd0Swir//8HHJnZZL+nRoKFiJN8KIL5bKuJk/y5adB+XcMsXk0VuvlE43XKJvw6z/6VHfSuNLKsnSVVvl4JHjUrFscRn22E1yabVy0mvsbBmp0iOUuGWQ/n/yv2+XAvnyyAvjv5eNO/arNCekdPGCOt9Hb7lSx2nY4z3J2LBTZvywRl6ZvFBf2zy5p/z73TleWwYW/75FnnvvO/l17XbJlSuX1K5RXvrf30Quq15Op8EWg59Xb5NihfPJ+q37dBvr1zxXRj/R0qOg0REZSIAESIAESIAESIAEUo4AFQIp1+VsMAk4hwAm5ydOnpI9B49KuZKFpcsb06WAsiT4/vV7pUSRAvK/peul29AZclHl0lJL+Rz47teN0uPtr+TNbjdIU6UIyJcntxw5/ndIDTqvQkkZ91QrPRlesHKTtOgzWV7sdI0M7tJMCikFw7RFq+TB176U2xpcKEUK5hUoFT5Sn8l971DKhOKybPVWufPFT6T6OSWlQc2svf1n5Iw8cksduaJGBT0pf3LU/+T5976Xqf+9W03Or1NKhKIyY8kamfZSG13X3Glpus0jH28hxQrll6KF8sni3zbL3S9NkZZ1a0iV8iXk+zc6yT0DPlPtLivPtr1ap8uT29sP7AGlSGij0jzUorZ80Oc2pSg4I8Om/ihtXp4iK8Y+rPkgFFRMhz5yk1RVChYoWlr0nSRjlQLlKeXDgYEESIAESIAESIAESCB1CfCUgdTte7acBBJOABNwhKNqUr/v0DGZqywDXrj3Gj0hhkIAlgENa1WSLxev1vFm/bhWWwTco1bvK5QqImcVKygV1Yp9KAEm98bWBUzoyxQvpMsz6tKqXpafgz827dLZvvfVr3p7AxQAsGKoe9E50kw5Qpzzy0ZPscULF5ArLzhb0pR1gdIHyF2NL5Kf12zT93EtTV3EP0zo8UEc1P3CimfJ2WcVkaIF82nniiWLFJQ1f+3V6WCpgH9Ib6TzFPjPH3OXb9TKhT7tG+p2lC9VWF7o1FhbHPzwx1+e6DXOKaWVAQhw6NhCKR2M+lnz5HcSIAESIAESIAESIIHUIUALgdTpa7aUBBxH4ODR47pOmFBvVmb8CJWUub05VFbfN+88oC9tUycVYPIezVCyaAE5olbNjYDJOpQRUFAgbFBbE7oNmSmPDZvliXNSrcTf+8+WAbu6lCxaUJvmw/cf8rMLp06fkU/VFgdYKWxRbd+x97DsO3xMTqoTBIIN4FKpbDGvMqA8qKCUDAYzu7xK6vZlsbe7z2skQAIkQAIkQAIkQAKpQYAKgdToZ7aSBBxJ4M/M3cpkPp+egG/ZnaUQOHnqlKprluUAKv23+g4zfCNgi4FdwEr5mTC872P13uq1H9eMiTmsF8YoHwUt6la3K9b2GtIjnDp9OoeZv5EA+/7nLs+U/9zTSCqprQjlShSWqx4ZZ5ufv4vwv2ANJ22umePo9qm6MZAACZAACZAACZAACaQ2AW4ZSO3+Z+tJIKEEcPRg40sq6xXuc84qqusCJ3vmkKm+n1M66155tU0AjvHsQoki+fWqfLTD2arsVZt2R5QtVu2PnvD2dfCd2nJw342Xyg11qumtA7BUsAakO3bipPWy5/s5pYsp64IDSvGQfQzh8b9PyfZ9hxWz0LZS+CyEN0iABEiABEiABEiABJKWABUCSdu1bBgJOIvAkeMnlUn8cf3ZpEzdX/y/ufLVT2s9ju0wIa5/8bkyYOICrRRAvM/m/yGLftsiza/KWp2/XvkPwL55nDSwVW0f2Ln/iGTuyNpOcIny6L9W7b//bWPW3v+9B4/JT6uy99GHS+Nmtd9+1PSl2rT/4NETsvvAUV0/OPQLNuBkglWbd8uv67bLdrU1AJP28sqsf6FyJIgVfrR19s8btNIAChAjIN38jE2yYft+nc5qANFInWyAlf7B6ujGXYoF4vSfOF/7CbjqwrODrR7jkQAJkAAJkAAJkAAJpCgBbhlI0Y5ns0kg3gS6vzVL8EEoqI7cq1W1rPLC30YuOy/reDxcH/n4zeoIv2+kwWPvqpXxU8pfQHF5Q50oYMTByQIwsR+gJr3d1Z7+wsopIY77g4d9OM574s560rLvZMmXN01KqX38sCiINDx5Vz3ZrpQPHfp9JgeUQgBlllPO+17veoM0Tq8UVPZNLqsi1yhLiOa9JikngSIjerSQ5zs2li5vTpdz276pHQI2VHndf9NlanK/WK664Bx9bGDn5pfJQqWIuFIdl4jTCOYP+ZdXeXCOOKH3bfLi+3PltY8XaweEl1QrK5P63i7582adMBBUBRmJBEiABEiABEiABEggJQnkUntus21NUxIBG00CziKwdetWNbFL0x/snTd/UFPzfnp8Nx5h/G/+nFYrx/hUqFDBWQ1kbUiABEiABEiABEiABEiABMIiYJ0rmOcMyNCYK1jnDEZh1uvcMhBWNzARCZAACZAACZAACZAACZAACZAACbibABUC7u4/1p4ESIAESIAESIAESIAESIAESIAEwiJAhUBY2JiIBEiABEiABEiABEiABEiABEiABNxNgAoBd/cfa08CJEACJEACJEACJEACJEACJEACYRGgQiAsbExEAiRAAiRAAiRAAiRAAiRAAiRAAu4mQIWAu/uPtScBEiABEiABEiABEiABEiABEiCBsAhQIRAWNiYiARIgARIgARIgARIgARIgARIgAXcToELA3f3H2pMACZAACZAACZAACZAACZAACZBAWASoEAgLGxORAAmQAAmQAAmQAAmQAAmQAAmQgLsJUCHg7v5j7UmABEiABEiABEiABEiABEiABEggLAJUCISFjYlIgARIgARIgARIgARIgARIgARIwN0EqBBwd/+x9iRAAiRAAiRAAiRAAiRAAiRAAiQQFgEqBMLCxkQkQAIkQAIkQAIkQAIkQAIkQAIk4G4CVAi4u/9YexIgARIgARIgARIgARIgARIgARIIiwAVAmFhYyISIAESIAESIAESIAESIAESIAEScDcBKgTc3X+sPQmQAAmQAAmQAAmQAAmQAAmQAAmERYAKgbCwMREJkAAJkAAJkAAJkAAJkAAJkAAJuJsAFQLu7j/WngRIgARIgARIgARIgARIgARIgATCIkCFQFjYmIgESIAESIAESIAESIAESIAESIAE3E2ACgF39x9rTwIkQAIkQAIkQAIkQAIkQAIkQAJhEaBCICxsTEQCJEACJEACJEACJEACJEACJEAC7iZAhYC7+4+1JwESIAESIAESIAESIAESIAESIIGwCFAhEBY2JiIBEiABEiABEiABEiABEiABEiABdxOgQsDd/cfakwAJkAAJkAAJkAAJkH1o6HcAACAASURBVAAJkAAJkEBYBKgQCAsbE5EACZAACZAACZAACZAACZAACZCAuwlQIeDu/mPtSYAESIAESIAESIAESIAESIAESCAsAlQIhIWNiUiABEiABEiABEiABEiABEiABEjA3QSoEHB3/7H2JEACJEACJEACJEACJEACJEACJBAWASoEwsLGRCRAAiRAAiRAAiRAAiRAAiRAAiTgbgJUCLi7/1h7EiABEiABEiABEiABEiABEiABEgiLgCMUAvfcc4906dIlrAYEkwh5P/DAA8FEZRwSSAoCuXLlSop2sBEkQAIkQAIkQAIkQAIkQAI5CUTrfT9PzqyT78r9998vp0+fTr6GsUUkYEMAwuHMmTP6TrQEhU0xvEQCJEACJEACJEACJEACJBBnAub3+2i866eEQuCqq66KczexOBJIPIG0tDQqwhLfDawBCZAACZAACZAACZAACUSNAJQAeM+PVoheTtGqkU0+Y8eOlQsuuEDy5csnpUqVkjZt2siuXbs8MZcsWSINGzaUokWL6hVR41O6dGkdx7xlYNu2bfp+x44d5fzzz5dy5cpJpUqV5IMPPrApmZdIwF0E7LSEhrWAu1rC2pIACZAACZAACZAACZAACZgJ2L3X273/h0LN8QqBefPmSffu3aV///6yc+dOweQfygCzz4E77rhD0tPTZfHixbJs2TJp0aKF3HzzzfLzzz/7ZHH99dfLihUrZPv27TJo0CCd3/Hjx33G5w0ScCqBQELg77//dmrVWS8SIAESIAESIAESIAESIIEgCZw4ccJvzEDzArvEjlcITJkyRU/wMekvXry41KhRQ15++WWZNm2aYKKze/du2bJlizz99NNSs2ZNufzyy+Whhx6SjIwMqVixol2b9bUmTZpI/vz59d933nmnAO4ff/zhMz5vkIBbCezfv59bB9zaeaw3CZAACZAACZAACZAACSgC8Il34MCBqLNwvEIgMzNTqlSp4tVwfIcyAOb/JUqUkDJlysjUqVPl5MmTcuTIEZk+fbpUr149aFi5c+fWyoa9e/cGnYYRScBpBHxpBPFcwKoGz4ydmZHT2sH6kAAJkAAJkAAJkAAJkAAJZBHA+zve42Etj/d6u+BrHmAX13rNFU4FrSbP5u+YzH/yySdy4403yksvvSQFChTQVgLDhw+3ttXvdzhm8AXYb0LeJAGHETALBMPhyKlTp2THjh1as4i/IVjwt/ExvqMpdkoDu2sOazarQwIkQAIkQAIkQAIkQAKOJmA3cTeu4b0df+N/44PvmO+arxnxcM8uv1ABOF4hALP/DRs2eLUL3/PmzSvly5fX14sVKyZwILhp06ZQ28/4JOBaAhAAdhN1u+uGwDCEjDkdhAoUA4bywLhnjmNXjmvBseIkQAIkQAIkQAIkQAIkkAAC5gm88bf5f+N93KwQML/HW6tszs98z9d1a3p8d4xC4NixY14nB6ByhQsXlltuuUX7EPj888/l2muv1XFgCdC8eXOtFEBYtWqV/hsm/9hCEAoAOyi8RgLJRMB4HgwBg7YZE3yzMgDXfCkBqBBIphHBtpAACZAACZAACZAACSSCgJ1CAPUwJv3426wUwHWrciDa9XaMQmD8+PGCjznA+/9TTz0lr776qjz55JOyceNGKVKkiHYI+Pbbb3ui4thAWA3gSEIEKBJwpOCQIUOkUaNG0WbG/EjAcQQgLDBp9yVkUGHjPoSK8bfZMsCIYzTOqgSwfnccBFaIBEiABEiABEiABEiABBxKwLpo7eu93VACGEoCI575u11aa/7BYsilXvLPBBvZifHgXKFatWry6aefCo4SRID3xccff1yfPjBr1iwnVpt1IgGfBLZu3eqlCTS0hGZhgMT4bn58rY8yJvu4Zlw3/jauIw/zffN1n5X7J42/+7xHAiRAAiRAAiRAAiRAAiSQRSCYiTrimN/5ze/9uG4oA5Cj8bevOYIRx46/XV0cYyFgV+FgrmGrwaFDh/QeaDgbzJMnjxw8eFCfQAC/AgwkkGoEDEWB+YE3lAKGsLEqCfDdECpmxYL5b4OjnSBJNcZsLwmQAAmQAAmQAAmQAAmES8D8Pm38bUz0jf+Rt/lv83dzmnDrYKRzvUIATgf79esnXbt21RYBgINjCJs1ayaDBw+OlA/Tk4CjCWC8myf75gm8IShwLdDf5nysSgDrd0cDYeVIgARIgARIgARIgARIwMEEjPdyo4rWyb35e6C/rXnguzX/QChcv2UgUAN5nwTcRiCULQNom3VF3zz5N+6Z/4c1jTmdNY41T4MfFQNuG0msLwmQAAmQAAmQAAmQgFMI2E3Uzdd8KQaMLQNoh52CwHzd+re17XZ1cL2FgLWR/E4CqUYAD7YxWbc+5MY98//WrQHBKgRSjSvbSwIkQAIkQAIkQAIkQAKxJBCMQsCXosCol10eodSZCoFQaDEuCbiAgJ0SAJN+f9etzTLiWq/zOwmQAAmQAAmQAAmQAAmQQOQEzBN55GY3sfelDLBej6Q2VAhEQo9pSSBOBKwCw1qsrwm8nRLASBtoC4CvPK1l8zsJkED0CAR61qNXUlZOgeRAtMtjfiRAAsERoCwIjhNjkYBbCQTzjCOOOZ7xt6+0vq4bjHzdp0LAraOI9SYBPwTwwJtf9O3+9iUU/GTLWyRAAgkiEOnz6mviH2m+CcLBYkkgZQlE+sxSFqTs0GHDHUbA7lk2XzP+Nqx8UX3z3/hul0c4zaRCIBxqTEMCDiQAoQBB4W/y70+o2DXJLIzs7vMaCZBAYggEegmwvvQHip+YVrBUEiCBSAkEerYpCyIlzPQkEF0C/p5Z6z3zd/Pfxvu88XzjnjVtKLWmQiAUWoxLAg4mYP3RR1UN4WAWGLhuVgzYfTc30xrXwQhYNRJIOQLWFwDrs55yQNhgEkhRApQFKdrxbLYrCVifV3MjrPcCfTfSRvK+ToWAK4cRK52KBCAQ7Cb91mt28azXDOHib/Lg714q8mebScANBKwvDm6oM+tIAiQQfQKUBdFnyhxJINoE/D2ndvcCXfP37m6X1mgPFQLR7lnmRwJxJGBVBhhFWxUAuG5VApivGenM+fkTHHFsIosiARIIQMDfC0CApLxNAiSQRAQoC5KoM9mUlCPg773b1z1f1yELfN2zA0uFgB0VXiMBhxIwP9y+lAFG1c0KgNy5c0uBAgUkT548IQkIp2DYtHO/ZO44KCvW7ZB9h49Lpvq+adt+2X/kuCxft11Xs1GtSvr/iuWLS6UyxaVyuWLSom51KVYov1OawXqQQNAE8HyfPHlSjh49KqdOnfKZzvqj7+8FAHKgYMGClAM+afIGCTiPAGVBzj7hO0FOJryS3AQMOXDs2DH9TuDvt94gYX4/CBQ/l4p8JrkRsnUk4C4CW7dulbS0NP3BA2z8b1UG+Hq4rdeRvnDhwjofN4UDarI/fcka9VktXy5aHXbVW9avIQ1rVpIW9c6TikpRwEACbiJw+vRpOXjwoOB/a/D1822VAUiH579o0aKUA5QD1mHE7y4hQFnAdwKXDFVWM4YEIAcOHz5s+07gq1i8E9i9F5jjUyHgix6vk0CCCERTIYAJQ6FChSRfvnwJak3oxc5Ysla+/GG1TPxmReiJA6SAFUGv9ldLg5oVA8TkbRJwDoETJ07oFwCrUtBfDa1xoRSkHMgiRjngb+TwnpMJUBZEt3coC6LLk7nFhwDkwJEjRwJO8o3aUCEQn35hKSQQVQLBKAT8FWhMBIzVw+LFiwctNPzlG+t7C1Zukm5DZsrG7fv9FtWwVtZkvla1slKycH5Jr1pWMrcfVNsHjspetZ0gQ20r2H/4hKxYn7WVwC4zvgTYUeE1pxLAs7xv3z5dPevz7avO1nglSpSgHLDAohzwNXp43akEKAty9gzfCXIy4ZXkJgA5sH9/1rtywJV/ZR2AEDAetwwk96Bh69xHwJ9CAELAeKjxv53JsHHduFeyZElHQ8DWgAGTFsiIaUtt65letZx0aFJLWtQPzeQfewynL1orczMyZYbadmAXMCEY3vMmbiWwg8NrjiKwd+9eXZ9AP+rWSlMOUA5YxwS/u5sAZQHfCdw9gln7aBAwywFf7wXW69bv5npwy0A0eoV5kEAUCYSiEECxVqUAHnjzfmMnKwR8WQVUKldcblYOAe9pWktqVSkbMV0oHUZM+0mGK6XDfmVFYA4lihSQD/rcym0EEVNmBrEkYPz4owx/P+rmOphlA+WACOVALEco844XAcoCvhPEa6yxHOcSMMsBOx9hdu8JdteMFlIh4Ny+Zs1SlIAvhYDnofVh/mN++XfDRKD3uNm2VgG9210tz7ZtEJPe9zchGPhAU+nSqnZMymWmJBApAePH37AS8vfDjrIQz4iL705VCFAORDoymD7VCFAWRK/H+U4QPZbMKb4ErIpB450g0LuBr/tUCMS3/1gaCQQkEK5CABkbigDz/6VKlQpYZrwjdHtrVg6ngdgaMEKZ70fDIiBQe/AS8OyYOTJptrfjwvbN0mVg5+t4VGEggLwfdwJ79uzRlgHmSb6vH3bz82+koRzI2WWUAzmZ8IrzCVAWRL+PKAuiz5Q5xpaAIQdQCn7njU+gUn29N1AhEIgc75NAnAmEqxAwWwWgysYKodMmAq9MXqB8Biz0UC2uHAN2a31FzKwC/HXfyGnLpNe4b72iwK/AF/3a+EvGeyQQdwK7d+/22ipg/Khbf9ytSkFUFNfOOuusuNfZX4GUA/7o8B4J+CZAWeCbTaR3+E4QKUGmjxcBQyFgfRewvhNY6+PrPhUCVlL8TgIJJhANhYBTLQQmfZshXYfO9BCGMmB6/7ZxsQrw1a0ZG3ZIiz6TvXwLwFJgePebfCXhdRKIOwFjEmBYCFhfAowKmZ99I67TFAKUA3EfPiwwiQhQFsS2M/lOEFu+zD06BOwsBJCzrwm/Uaqv+1QIRKdfmAsJRI2AnULA/JDbTQSMSYBRCeM7nAvGYmUQHvznZ2yW6cp7//6Dx2We8uRvBDjpS1eOABukV5KW9c7zTPadOAkw6gxzwYY9x6vjC7OPPBzYWfkUaE2fAlEb2MwoIgLmVUHIAPOPuvG3WQ7gb7NygHIgMH7KgcCMGCPxBCgLYt8HlAWxZ8wSIiMAOWA4E/T1TuCrBDulABUCvmjxOgkkiECkCgHrCmE0JwJQBHR7c5aXAiAQpsr/nBhgPlbQCZYB1nrbrQqMeKy5tFMnHTCQQKIJ4McfwfghN3sVtlMIGCeNGPKAciC4HqQcCI4TYyWOAGVBfNhTFsSHM0sJj4ChGPT3TuArZyoEfJHhdRJwEIFQFQLWVUGjKbiOSUHp0qUjbh205QMmLbA9FSCczCeqY/5urlsjnKQxTWN9AYC1w/IxD9HJYEypM/NgCOzatcvLaZB1RcCch9U6AN8pB4KhnBWHciB4VowZfwKUBfFjTlkQP9YsKTQCkANYGDAm99Z3ArtJv1GC3b3cL6gQWhUYmwRIIJYEDh065OUx1Pywo1zrd7u6mCcEhQoVsosS9DUoA1r2/VCmL16dIw1OBri98YVyfe2q0qFJLWlUq7JceWEFKVa4gOzYd1iO/30qR5p2TdLl8Tvq5rjuhAtlSxSW8uozfckaXZ1jJ07Ktr1H1NaH6k6oHuuQwgSOHDniab3xw2/3o25GRDkQ3oChHAiPG1PFhwBlQXw4oxTKgvixZkmhEQgkB/y9H9jd45aB0PgzNgnEnEAoFgKBrANwv0yZMmHXGVsEGvV8X/YdOuaVByb1fdrXl4plivvNe4byMdBr3ByvvflI4HRT/Pb9pwrqbgQ4PmxQs6LftvImCcSSwM6dO3X2xoqAWTFoyAFcM/42lAHG1gHKgdB7h3IgdGZMEXsClAWxZ2wtgbLASoTfE00AcgC/+XbvBEbd7Cb+uGd3nRYCie5Rlk8CFgKRWghYJwSFCxcOizEsA+58cYpsNDnag0XAt4M7SHtlDVBcWQEECjXOPUu6trpC9qm8fvpzqyc6VuArly0u6dXKBsoiIfevUlYOE9WJCIaFw6btB6Q9fQkkpC9YaBaBw4cP59gygDvmH3bz35QDkY8cyoHIGTKH6BOgLIg+00A5UhYEIsT78SYQqhww148KgXj3FssjgTAIWBUCyAIPr/EAW/+3K8I8GQhXIdD5tS9l3ors0wOw539S31u1CV2ooZnaUgAFgGGKj/QLVm6W+5tfJvnz5gk1u5jHh7LjxN8n1UkKm3RZmTv2O1qBEXMgLCDhBAy5gIrYyQPjulFRw0IA3/F3kSJFwmoD5QDlQFgDh4liRoCyIGZofWbMdwKfaHgjQQQMhQCKD+adwFpNq1IgzRqB30mABNxHwKwAMGpvnhCE2qIFKzfJl4uyTeZhGQBHgMUK5Q81K098eOtHHkbANoRuQ2eGnV+sEz7btoFUUickGOGLf/wKxLpc5k8CdgSsz7OvZx5pjXvG3+bvdnn7ukY5IEI54Gt08HqiCFAWJIY8ZUFiuLNUewLByAH7lPZXqRCw58KrJJDSBLoNyZ6oZx0R2CYqPGBlAP8DRoDSAZMOp4YOTWp6qgafAvCpwEACqUKAciCrpykHUmXEs52+CFAWUBb4Ghu8nhwEqBBIjn5kK1KQgK9VP1/Xg0WEia/Zb8DAzk0isgywlvvKg9cp/wPZlgYTvllpjeKY71a/AdMXrXVM3ViR1CVgtQAwSPi6Hg4pyoFsapQD4YwgpokHAV/PvK/r4dSJsoCyIJxxwzTxI+Drvd/XdbuaUSFgR4XXSMDlBCAEjE+oTflicfakFybzMPWPZsC2A3OeM3/IeZxhNMuLJC+cotCwVvbpAhPnZESSHdOSQNgEwnmmw0ljVJByILurKAfCHrZMGAMC4TzX4aShLMjZeZQFOZnwSmIIRPJM29WYCgE7KrxGAi4kEIom0F/zFq40OxKs7i9q2PfuMSkZ4EvA2dsGshUiy9dt57aBsHudCaNNwO6Zt7sWTrmUA97UOqiTVYxAORDOiGKaWBKwe+7troVTB8oCyoJwxg3TxJ9AJM88FQLx7y+WSAKOJmDeLtDYtDoezUrXquJ93OCKtVlnrEezjGjl1fCSbAsB5Jm540C0smY+JOBYApQD3l1DOeDYocqKxZgAZQFlQYyHGLN3AAEqBBzQCawCCURCIBKNoLVc60q92cu+NW6k33FygRH2HzkaaXYxSw8TQXOYbzqKMWaFMmMSCIGAYToYQhK/USkHcuKhHMjJhFecR4CyIPZ9QlkQe8YsITIC4cwLqBCIjDlTk4CjCIQjBPw1wLqS7y9uqPeKF87nSbL38PFQk8c1vtmPgNPrGlcwLCxhBPw96/7uhVNhyoEsapQD4Ywepok1AX/Pu7974dSLsoCyIJxxwzSxJxDps06FQOz7iCWQQEIIhLNSkLktfsfqtax7vodLlTIlEsIo2EJrVcve4pCxbkewyRiPBKJGIJznGYWHk45ywL7bKAfsufBqfAmE80xTFkS3jygLosuTuYVOIFw54KukPL5u8DoJkIA7CYSrJew9braMmLY0bo1u36ymOn4wy0qgRf0acSvXV0Ewk563YrO+nblzv2zyoRzJ2OBcfwe+2sbryUUAz3iuXLn8NopywC8enzcpB3yi4Q0HEqAsiF2nUBbEji1zji6BYORAoBKpEAhEiPdJwIUEQpkMbFKT3w79Pxd4zjaHWPoPQDnW4wcTiXnktGXSa9y3QVUBpyJc+tBoadckXTo0vVis+wmDyoSRSCBMAqH88FMOhAaZciA0XoydWAKUBbHjT1kQO7bMOboEQpED/krmlgF/dHiPBJKcwKRvM6RRz/dzKAN6t7talo9+KMlbn928DTv3hdRWeF0eOGm+pD8wWlr1/ZBHEYZEj5GdRoByIKtHKAecNjJZn3gToCygLIj3mGN5ziCQS2kWzjijKqwFCZAACGzdulXS0tL0B2bB5g/uW02FjUcY/5s/p0+fFnwqVKhgC7aX2iIw0rJFAJ7/R/S8SWLpOMi2Mgm+CCuJ9v0+V0cK7pP0qt5HIhpVy9x5QDKVIsBXaN8sXQZ2vk5bPjCQQLQJ/PXXX15ywZAPduVADuDZN/7H32effbZdVGUZQzlggKEcsB0ivOgwApQFse8QyoLYM2YJkRGwzhXMcwbkbMwVrHMGo1TrdSoEIusPpiaBqBOwPuSxUAhgFaDr0JledYdVwLNtG0S9PcmU4YEjx2X6otUyN2OzzFiySvZbTke4pFo5Gd4j9RQqydTHTm1LLCYBlAPh9TblQHjcmCo6BCgLosMxGrlQFkSDIvMIh4B1rkCFQDgUmYYEHEzA+pBHWyGQsWGHtFRm7tgLj1C8cH6Z3r9tylkFRDoE8CIwYtpPMlxZWZgVAyWKFJDhj90kN9dNvKPESNvI9M4hEO1JAOVAdPqWciA6HJlL8AQoC4JnFc+YlAXxpM2yrHOFSBUC9CHAMUUCKUQAP1hmZQCaPrBzEyoDwhgD2BoAi4r5QzqJ+XxyKFra958qmHAxkIATCVAORK9XKAeix5I5xZ8AZUH0mFMWRI8lc4o/AW4ZiD9zlkgCfglYtX7RtBBo/Li3A8GBnZtKl9a1/dYn1JvYezd98VrZZzGnt+ZTuVwxaVG3etLsuX9l8gIZMGmhp5mwFPiyXxsqW6wdz+9hEYjmqiDlQFhdEFQiyoGgMDFSBAQoCyKAF8eklAVxhJ2CRVnnCpFaCPDYwRQcRGxyahKYsWS112kCODYvFsoAeN4PNlQuV1x+TZLTDGAtUKlMcY9vBlgKdFCWAvPe7JQ0So9g+5XxnEuAciC2fUM5EFu+zD16BCgLosfSLifKAjsqvOZUAtwy4NSeYb1IIMoEJny70pMj/AaMUM7voh2mL1obUpY4vi+ZTOvbNa2ltmA09TBA+/pPWhASE0YmgVgSoByIJd2svCkHYs+YJUROgLIgcoaBcqAsCESI951CgAoBp/QE60ECMSQAM36sBhihW+srYlLa/iNHQ87X6qk/5AwclgBWF2aHgjjaccHKTQ6rJauTigQoB+LX65QD8WPNkkInQFkQOrNwU1AWhEuO6eJJgFsG4kmbZZFAggi8rSal5tBerWTHI2C1PP28Ml5FTfhmpUyavSIexSesjJE9m0v6A5me0wd6j50jc9+4N2H1YcEkAAKUA/EdB5QD8eXN0oInQFkQPKtoxKQsiAZF5hFLArQQiCVd5k0CDiAAL8KTZ2dvF4DvgIpqr3s8ApQBDWpW9PpUKVc0HkUntAx4G8bpDUZYvm47rQQS2iMsnHIg/mOAciD+zFliYAKUBYEZRTsGZUG0iTK/aBOgQiDaRJkfCTiMwIr1OwQO7ozwyC3RPVXAYc11THWwd7CScppohLc/97bScExFWZGUIEA5kJhuphxIDHeW6psAZYFvNrG8Q1kQS7rMO1ICVAhESpDpScDhBDK37feqYa0qZR1e4+SpXocmNT2NgQ8HrMwwkEAiCFAOJIJ6VpmUA4ljz5JzEqAsyMkkXlcoC+JFmuWESoAKgVCJMT4JuIxApnIoaIT0quVcVnt3V9fqq2H+ikx3N4i1dy0ByoHEdR3lQOLYs+ScBCgLcjKJ1xXKgniRZjmhEqBCIFRijE8CLiPw67qdnhoXL5zPZbV3d3Xhq8G8bWBuBk8bcHePurf2lAOJ6zvKgcSxZ8k5CVAW5GQSryuUBfEizXJCJUCFQKjEGJ8EXEbgwOFs/wGN0iu6rPbur26DmpU8jchYt8P9DWILXEmAciCx3UY5kFj+LD2bAGVBYkcDZUFi+bN0ewJUCNhz4VUSSBoCGRtMFgKFCiZNu9zSkFQ4VcEtfZHK9aQcSGzvUw4klj9LzyZAWZDY0UBZkFj+LN2eABUC9lx4lQSShoD5hIFKKXDkn5M7bj63DDi5e5K6bpQDzuleygHn9EUq1oSywDm9TlngnL5I9ZpQIZDqI4DtT3oCxQvn97QRxw0xxJdAw/TsLQPxLZmlkUA2AcqBxI4GyoHE8mfplAVOGQOUBU7pCdbDTIAKAY4HEkhyAulVecxgIrt4xVqzU8ds5Uwi68SyU48A5UBi+5xyILH8WXo2AcqCxI4GyoLE8mfp9gSoELDnwqskkJQENmw/mJTtcnKj9h856qkeX8Sc3FOpUzfKgfj3NeVA/JmzxMAEKAsCM4p2DMqCaBNlftEgQIVANCgyDxJwMAHzyQIzf1jt4JomZ9X4wpWc/eq2VlEOJLbHKAcSy5+lZxOgLEjsaKAsSCx/lm5PgAoBey68SgJJQ8C8Xw3OhDI20I9APDt34cpMT3G1qnH7RjzZs6xsApQDiR0NlAOJ5c/SKQucMgYoC5zSE6yHmQAVAhwPJJDkBBrUrOjVwumLaSUQry7ftHO/bNy+31Nc41refRGverAcEqAcSNwYoBxIHHuWnJMAZUFOJvG6QlkQL9IsJ1QCVAiESozxScCFBNo1SffUesQXy+TAkeMubIX7qly8cAHp0voKT8VvrlvDfY1gjZOGAOVAYrqSciAx3FmqbwKUBb7ZxPIOZUEs6TLvSAhQIRAJPaYlAZcQuKdZTU9NsW1gxLSfXFJzd1ezWKH8MrBzE5k/pJP0bne1uxvD2rueAOVAYrqQciAx3FmqbwKUBb7ZxPIOZUEs6TLvSAhQIRAJPaYlAZcQgIlgQ5O5Oq0E4ttxtaqUlWfbNohvoSyNBCwEKAcSOyQoBxLLn6VnE6AsSOxooCxILH+WnpNAnpyXeIUESCAZCfRu30Ba9JmsmwYrgQ79psoX/dokXVOxR++Db39TzhO3y/6D8d8aUbF8cWmklC8t6lYXrAYwkICTCFAOxKc3KAfiw5mlhE+AsiB8dqGkpCwIhRbjJooAFQKJIs9ySSDOBLAigP3sI6ct1SXPy8iUVyYvSKqV65HKP0Kvsd/GmayluAyRid+skPbN0mV495sSWxeWTgIWApQDcRoSlANxAs1iwiVAWRAuuRDTURaECIzRE0GAWwYSQZ1lkkCCs/3JVgAAIABJREFUCPRp10AqlSvuKX3ApIUy6Vv1a5UEodtbsxKvDDBxhFIgWdgmwfBgE0wEKAfiNxwoB+LHmiWFToCyIHRm4aagLAiXHNPFgwAtBOJBmWWQgEMIwIR9Yp9bpWGP8Z4adR06U//drmmtiGu5YfvBgHkUL1TQK86KtTvFegxSwEwsEUZOW6ZX5c0Bio9KZYqFmlXE8Ves3yH7D2dtVfhgdkZUuEZcKWZAAiYClAOxHw6UA7FnzBIiJ0BZEDnDQDlQFgQixPtOIECFgBN6gXUggTgSgDObEY81F0MRgKLx9/INO5Qn/AZh73vPUOknzc6elBcvnF/Sq5bN0bKGl5zrdW3ghwukRf3zpGKZbMuFHIn8XMARisjDCCh3Yt/bIlYy+CnS7632/afKjCWrdZwDR074jcubJJAoApQDsSVPORBbvsw9egQoC6LH0i4nygI7KrzmNALcMuC0HmF9SCAOBGANAKWAOYxQvgUa9RwvC1ZuCqsGvcfM8UrXu21DW+UCXj7gy8AIcHDYe5x32lAqAO078jACjvmL1OIglPLNcbFFwFAG4PqZM+HmxHQkEHsClAOxYUw5EBuuzDV2BCgLYsOWsiA2XJlr9AlQIRB9psyRBFxBAC8A2D6AFXUjbNy+X59E0Krvh2piuzbodmASDCeFRoC5fpfWtX2mt+5b/HLRaq+JtM+ENjfmr8guF7cbXlLRJlbsL+GH32x1gRIHPnhd7AtmCSQQAQHKgQjg2SSlHLCBwkuuIEBZEN1uoiyILk/mFlsCVAjEli9zJwFHE7i5bg2ZP6STMu0v51VPTO7b9/9ULn1otMBZ36Q5KwXH+dkFmOxbV/hH9PC2PrCmw77FgZ29J8vdhs5SJvahHxP467qdXtmHu/XAWsdQvtv98Ldrkp4wS4VQ6s64JEA5EJ0xQDkQHY7MJXEEKAuiw56yIDocmUv8CFAhED/WLIkEHEkAE+h5b96r/Adc7WUtgMrCYgDO+nqN+VbdK2Bb/xHTftLxjIAXimBM9hEPHyPA7L/bPw4ObQvycfHA4eztAj6ixPSyrx/+ET145GBMwTPzqBKgHIgMJ+VAZPyY2jkEKAsi6wvKgsj4MXViCFAhkBjuLJUEHEfg2bYNZMXYh7ViwHw0ISqKFX+s6lsDrAZwdKERsP3gFYuZfK9xswUOB+3CyJ7NvZQQ2DoQrg8Du/xjfY0//LEmzPzjTYByIHTilAOhM2MK5xOgLAi9jygLQmfGFM4gwFMGnNEPrAUJOIIAJv14CcAHk/gJal98STXJN6/kmytq3SrQTTkLNJvsw7fASOWsEJ+u6p71FAOUB2UDvPAaoduQmcpioZOtAiJUSKu37LFNUuOcUrbXrRexhWHF+uwtCelVy3jVq/c73s4QsU2AlgFWivzuNgKUA949RjngthHM+kaLAGUBZUG0xhLzcTYBKgSc3T+sHQkkjABOA4DHfl8BK/lY0TcCrAqgSDCC1bcATjFoWS/ndgIoGxrWqijzM7JON8D2g/6TFvgt21edrNe/W75Rnh75jfWy7PrsScmTFthACicYwMmiEab3b+u1HcJ8ugHaQWVADtS84HIClAOilIKUAy4fxqx+FAhQFlAWRGEYMQuHEgj8RuzQirNaJEACiSWAlXxzsDoJtPoW8Odkb4Rl6wAsCqKxdSBPrlxxg3RptTJxK4sFkYBTCFAOePcE5YBTRibrEW8ClAWUBfEecywvegSoEIgeS+ZEAilD4JXJC7wcCWKF37ytwM63QJ/29X3ywTaD3m0bet3vPdbbHN9nYj830tJy+7nLWyRAApEQoByIhB7TkkDyEKAsSJ6+ZEtSkwC3DKRmv7PVJBA2AWwFGPHFMq/0WOE3h2fHeE/mrb4F7Arv0rq2fLlklWfrwPJ12wUvGeZtCHbp/F3Lny9NBthsezh56nRQWwb85c17JJDKBCgHUrn32XYSyCZAWcDRQALuJ0CFgPv7kC0ggbgSwGTfvHcepxKYHQnC1B/OBI1g9S3gr7JQLKQ/MNoTBScYtFB+B7B3MZzQ9tqa4SRjGhIggQAEKAcCAOJtEkgRApQFKdLRbGZSE+CWgaTuXjaOBKJLAJP9SbNXeDLFMYNdW9fxKqSrxbcAThEINuitA0rBYA7dhswKNjnjkQAJxIEA5UAcILMIEnABAcoCF3QSq0gCQRCgQiAISIxCAiSQRcC6rx+nEOBYIiPAxD9TnRJgBPgWaFCzYkj4sEUgvWo5TxpsHRg5zXuLQkgZMjIJkEBUCVAORBUnMyMB1xKgLHBt17HiJOBFgAoBDggSIIGgCGBSjsm5ETDZb9e0lud7MPsIgypIRRrR8yavqAM/XCBwVBhqGDV9mZzX8W3P5/eNu0LNgvFJgARMBCgHOBxIgARAgLKA44AEkocAFQLJ05dsCQnEjAAm+5iUm8PAB5t4fQ+0jzCUysFngHnrAHwWdHszvK0Duw8cEeMTSh0YlwRIwJsA5QBHBAmQAAhQFnAckEByEaBCILn6k60hgZgQ6D9pgZcjwS6tr/By9GfdRwhHglbfAqFWDOmRjxHmZWRy60CoEBmfBKJIgHIgijCZFQm4mABlgYs7j1UnARsCVAjYQOElEiCBbAIZG3aoifhSzwU4EuzTroEXol6WYwYHdr7Oy7dAODzhm8DqkBBWCliZCCXc2uACMT6hpGNcEiCBbAKUAxwNJEACIEBZwHFAAslHgMcOJl+fskUkEFUCvS2T/d5tG3pN9rGPcMV6b98CN9etEZU6wCEhrBEMhYTeOjB0pkzodWtQ+T/corbgw0ACJBAZAcqByPgxNQkkCwHKgmTpSbaDBLIJ0EKAo4EESMAngUnfZghM9Y0A7/9dWmdPsIPZR+gz8yBvwBrBvHXgy0WrZcaS1UGmZjQSIIFICVAOREqQ6UkgOQhQFiRHP7IVJGAlQIWAlQi/kwAJaAJZk/2FXjQGPnid1/dA+wijgRJbB7AFwRy6DZ0V8taBaNSFeZBAqhGgHEi1Hmd7ScCeAGWBPRdeJYFkIMAtA8nQi2wDCcSAwIhpP8nG7dlH/bVrki4w4TdCMPsIg6lWy76TvaJ92a9tjmTYgoCPYRmArQNQRgzs7H3SgTXhqC+XyReLVlkvy9SX7pY8adSH5gDDCyRgIUA5wCFBAiQAApQFHAckkLwEqBBI3r5ly0ggbAKbdu6XAZOyrQPgSPAVi3VArzGzvfLH5Byr+aGGQ0dPyC9rs3wQXF6jvM/kI3s2l/QHMmX/4SyngvAr0Kqef18FefOkyfyMTT7z5A0SIAHfBCgHfLPhHRJIJQKUBanU22xrKhLgElkq9jrbTAIBCHR7c5ZXjG7KsZ95so99hOaJNnwLtGtaK0Cukd22O3Wg25CZcurUGZ8Zp+XK5fMeb5AACfgnQDngnw/vkkCqEKAsSJWeZjtTlQAtBFK159luEvBBYMHKTV6OBOHQ79m22ccMYh9h73fmeKW2+hbwkbXPy5ee59sywJwI2wYa1qroUUZgS8PfJ0/7zDe32hYQbN4+M+ENEkhBApQDKdjpbDIJ2BCgLLCBwkskkGQEqBBIsg5lc0ggUgJYdTeHET2ae39XvgWwh98IVt8CoZb/3ev3hpRkhNo60LDHeM/Wgb92H/SZvuP16YIPAwmQQGgEKAdC48XYJJCsBCgLkrVn2S4SyCbALQMcDSRAAh4Cr0xe4OVIECvyZkeCwewjjDXOimWKS++2DWNdDPMngZQlQDmQsl3PhpOAFwHKAg4IEkgNAlQIpEY/s5UkEJAAJvsjvljm/TJgcSTY9U1v6wGrb4GAhUQpQpfWtfXWAQYSIIHoEqAciC5P5kYCbiVAWeDWnmO9SSB0AtwyEDozpiCBpCQwUTkKNG8F6N3uasFqvBFw5J/ZkaDVt0A0obz31XL5M3O3J8sO19eSWlXKeBWBrQPpD4z2W+yo6ctkw1/ZRyfee0O6XFS5tN80vEkCqUyAciCVe59tJ4FsApQFHA0kkDoEqBBInb5mS0nAJwE4CjRbB2Cy37V1Ha/4vcZ5OxK0+hbwmXmYN0Z8+ZMnJRQC1qC3Diilhfl4RGscfDfnA4UAAwmQgD0BygF7LrxKAqlGgLIg1Xqc7U11AlQIpPoIYPtJQBFYsX6Hl3XAzXWrex0ziH2EmcqjvzkMnLgwILsBastBrSplA8YLN0J7ddRhIIVAsHn3GjdbVq7b6RV9v1KUMJBAqhCgHBChHEiV0c52+iNAWUBZ4G988F7yEaBCIPn6lC0igZAJZG7znuy3qlfDK4/h05bmyHNeRmaOa9YL+w/HdkINK4EihfLLoShM3DPW7fDaEmFtC7+TQLIToBwQoRxI9lHO9gVDgLKAsiCYccI4yUOACoHk6Uu2hATCJrD/8Imw08YiYacbLhF8ggmlihbwUgjAEZLh++Chm2sLPtEKxQvn92QFk0oGEkgmApQDwfUm5UBwnBjLvQQoC4LrO8qC4DgxlvMJUCHg/D5iDUkg5gTSz/N22IfVAfNxg/AXMOHblXLg8LGQ6mL+sQwlYa5cwce2bmXI3HHAoxAIJZ9a1fxvbWhZ93yv7Q8wqTSHhumVgq80Y5KAAwlQDohQDjhwYLJKcSdAWUBZEPdBxwITSoAKgYTiZ+Ek4AwC6VW9J8Mjvlwm7dT+fCPcXLeG4OO0gJMPrGHEF0u9lBnW+76+D+zcxNct2+soxxysDG0T8SIJOJiAdQxTDgTuLMqBwIwYw30EKAtE+E7gvnHLGodPIC38pExJAiSQLASKqX347Zpke+Bfvm67wJGgkwO2BnQbOitHFb9ctFomqSMUYxmQP8oxQnrVcl5OGGNZNvMmgVgRoBwIjSzlQGi8GNs9BCgLQusryoLQeDG28wjkfkEF51WLNSKB1CVw6NAhyaVs3e0+oILrwYQzZ84IPkWLFg0mulyqtg2MMDkPnJ/x/+ydB5gUxdaGD0kQFFAJggoGzJhzjteEOQuYFeM1e43Xa8T432sGc84RFTNmMIEJMKESBQmSQZLw91tLLb29PXFnZmd2vuKZZ+nu6gpvdZ2uc+pU9WgbNWmG7bDBKta4UXE5Ew0ZMcFOvKWvjYx8+cBXtO/nvxhfCNhynfY5LTv7Blz56EfuFw4vXnWotWnZLC3OiiQC2RCYMWNGQpkQlx59nyA5IDkQ93zoXOkSkCyo3nYaE1RnojN1m0C6ukIinSF6vl4wWKgYNdRtbqqdCJQMgXHjxln9+vXdL2oUoBLRThwd+HsFYOHChcavXbt2adcdr4C4z/jt0LlDsLa2tbVotnTaaeUj4pAR4+2TwaOrfCKRfNirgC8jPB7jGZCLsk+b9Vew+/hEi/uywiVHbWsXHbldPqqrNEWgksDYsWOryAUvH+IQIQPo+/4v/2/fvn1c1NhzkgOxWExyIJ6LzhaWgGTBEt4aExT22VNuxUMgqiuEdQZK6XWFqM7gaxA9L4NA8bStSiICjkC0k4eNAlyPduJcGgRI/7Tb3rSn3htcUq3R66y9rcs2a9qpt75hcfsK5KsyLLPodfZe+Upe6YpAJYFCKgGSA5k9eJIDmfFS7JoRkCxIzU9jgtSMFKO0CUR1hZoaBLRkoLSfB5W+DhJI1w0oVdUzdRX26e27dSdrGXgCvPv18FRZ1Pp1PAP63dLddtt0Nbc04JAd1rENg68FvPvVcJs7/++8lY98H7pwPzv3kK3ylocSFoEwgUK5CUsOpP/cSQ6kz0oxc0dAsiAxS40JErPRlbpFIF1dITqJ6ClEz8tDoG49H6pNHSAQtfoV2kPAI2S9/JPvDrXXPv/ZRk2cbtHP+9UWajbwW6VNc9tvq05VvoQQLg8bDvb99Ff7Nvg04JDgN3j4+BoXl3w7B19j2Cj4dd19fW0iWGOiSiATAoWeFZQciG8dyYF4LjpbOAKSBVVZa0xQuGdPORUPgaiuUFMPARkEiqdtVRIRcASinbymBoF1T31cZEVABEqcwPe9utVoD4H1TnuixAmo+CIgAhCQLNBzIAIi8EPv7rFjAj/zH/0bJRb1ENBnB6OEdCwCIiACIiACIiACIiACIiACIiACZUBABoEyaGRVUQREQAREQAREQAREQAREQAREQASiBGQQiBLRsQiIgAiIgAiIgAiIgAiIgAiIgAiUAQEZBMqgkVVFERABERABERABERABERABERABEYgSkEEgSkTHIiACIiACIiACIiACIiACIiACIlAGBGQQKINGVhVFQAREQAREQAREQAREQAREQAREIEpABoEoER2LgAiIgAiIgAiIgAiIgAiIgAiIQBkQkEGgDBpZVRQBERABERABERABERABERABERCBKAEZBKJEdCwCIiACIiACIiACIiACIiACIiACZUBABoEyaGRVUQREQAREQAREQAREQAREQAREQASiBGQQiBLRsQiIgAiIgAiIgAiIgAiIgAiIgAiUAQEZBMqgkVVFERABERABERABERABERABERABEYgSkEEgSkTHIiACIiACIiACIiACIiACIiACIlAGBGQQKINGVhVFQAREQAREQAREQAREQAREQAREIEpABoEoER2LgAiIgAiIgAiIgAiIgAiIgAiIQBkQkEGgDBpZVRQBERABERABERABERABERABERCBKAEZBKJEdCwCIiACIiACIiACIiACIiACIiACZUBABoEyaGRVUQREQAREQAREQAREQAREQAREQASiBGQQiBLRsQiIgAiIgAiIgAiIgAiIgAiIgAiUAQEZBMqgkVVFERABERABERABERABERABERABEYgSkEEgSkTHIiACIiACIiACIiACIiACIiACIlAGBGQQKINGVhVFQAREQAREQAREQAREQAREQAREIEpABoEoER2LgAiIgAiIgAiIgAiIgAiIgAiIQBkQkEGgDBpZVRQBERABERABERABERABERABERCBKAEZBKJEdCwCIiACIiACIiACIiACIiACIiACZUBABoEyaGRVUQREQAREQAREQAREQAREQAREQASiBGQQiBLRsQiIQFICLZo1tql9Lqz8ffB/x1TGv+b4nd35By/YL2ka6V4c+sCpLr1T9t20yi27brKqOz/pxfNt6aUaWpetOlUpE9eGPXqGvXjlYbZxp7aV915/0q7V4vm6nHPIVrHFql+/np110BY24Pbjbdxz59rYZ8+xj/53rJ3cZZPY+IU86etz73ldMs62QVAvX/fV2rXM+H7dUN4Ejt59A/f8DH/8n9VAvHNTN3ftiqN3qHYtemLNlZZ3cf986YLKS1137Wzv3tzdfn3sTJvwwnk2+P5T7Iag7zZr0qgyzps3dHX3HfOPDaNJuuOdN+rorn//4Gmx15OdPHyn9dy9YdmWLH4m1+Lq+/Mjp7v8tl53pbSSurzb9i5+Nv0+rQyyiFQT3llkV+2WYmDCe492ueDwbaqVry6f8O/fbPpaPrm0btHUXrvuSPfeHvHkWXbqfpvlM7u8px19vuJkSapCpJKbqe7Px/ViLFM+6lnsacogUOwtpPKJQBETmL9goW20RlvjxZuP8PkPv7tkN12zXZXk/fHg4RPsr3kLKq8t+HuhDft9svs1bdzIMBy8eX1X69CmeZX7Z82Zb6MmTK/ymz57bmwVUESuPm5nW69jK1u0aJHVr1fPNly9jd3cY3e7tOt2sffopAjUdQKfLe6byy3bxFZdcYlBCUPTBqu1cdX3cTJlgRFv87XaOQPAvPkLbZXWzd1g/j/H7JhpUoqfBwJPXHqQU3z/eeAWeUg9v0nybFL23585J78ZKfVaJ3B0YCzcvvMq1rhhA/tr7nxrWF8qT202ivpebdJPnXfD1FEUQwREQATiCbz22c920Pbr2O6brWZPvTc0PlINzqJQHLzDOoFBYMUqqfjjqMIxYeps2+L0B1zcloEnwwfBTP6qbVvYCXtvYlc+8mFlGn0/H2Y9/ts3ZclWXL6ZnRTcS7j2iU/sv89/ZvWC/2MgOOOAzQPPgS3tjpe+tBl/zUuZliKIQF0igNFt8oy/bPlll3b9c8QfU1311l+1tTUJvHYC25l98ePYrKrcM+hr1zz2cWW/wviGR86eW6xh/7q3X1ppfvr9GNvw5HsMI2Gi0LzpUjZ9tvqu57PM0o1s5l/zE+FKej4d3kkTqOHFO17+0h5957uE5V8qUAoVyoOA79cd2lZMBNzb9yu7+P73sq58TfpF1pmW0I01laPH3NAneGc0sD+n/1VCta57RZVBoO61qWokAgUj8MYXvzqDwB6brR5rEFhr5eXt2uN3sfUCJaFV86Vt7vy/bdDP4+zcu9+2kROmGbOJ9523bzDj3tbaBsp3wwb1bdiYyXbFwx/YB9+ONO8h0Kn98hZ+6WzaqcJjwF+Pq/DUWXPtjS9+sdOCmUVc67IJO27Q0VgyMGXGHPu/5z51Sg7h2sc/dgoKis82669s/b4aXuny3H/o6GCGtK3NmTff3g3OXxIMRKYFZSHgEnzVsTs5r4qZgRHh61/+sKse/ciGjJjoWHi3aeqOFwLeCB9+N8rOvvNNoz6ZhFRsw2nd9c+9bYMgv9mB58T734ywSx54z9VZQQSSEfj8h7G295ZrOIPAix//6KL6vvnTmD9t6sw5ro/wzO+/7VrOk2jitNn2yoCfXR9HHsSF6LP+xU+/u/627NJLVYt+4j4b22WBCz35fPPr+KC/9bPvR06ybdZb2V6++nAb++dMW++EXlX61+UPfmCH77xe4CE0zbpf/7KxZOamk3ezLdZuH8igBq5vJgvIomsCubbbpqtZm5ZNDUPk64GREWNFNvWN5rXfNmsGcmtzWzOQn26JVsDxzS9/tQt6v2vzFixhtuU6K9nAu0+y9q2Wsd/GTbUbn+5vr346zCWXqhy4+MNn3OSZds+rg+yUQE7e/uIX1u/r4Ull9t1n7+2WaBFYIsbvwnvfdXI7zPv+8/e1Q3dc1+5//Wu74J53XXyWOCGPUdzPuvOtpPLQ3bA4rNF+ORvU6yR31OmYu2xS8Axh8B3+xFkWiEjXvifstbFz1X/2w++dsZclBBwjg0eNnxa09/p2/M2v2HNXHOLSwfsETwGMWqt3v9O+vPtE957o1vMl6/v5L9a4UQMb//x5Li7p8xxdGKS3b9A2Hdu0sKbB/bDr/cog6xXwU4gnkM57aOPgfXh18Bxt0mlF10/HBax/Dp6no6570SWa7nsz3K+RBcftsZG7H+8ifv9+6AN7a+CvSZ/vRP3ih1GT3PON8X9I4Jno3+GvB89Ky2WaGH0Rb6mfA7lHP/3yp3hj6B6br26XHrW969t/L1xkw/+YYv+840377rcJtuMGHezy7ju4dzFhcHDumsc/so8Hj3bHqUI6rH0aieQm11OVAxd/2qR38Nyv3m4523ztdq4PJesfeGl+fOuxLvto33v04gNcesgExk+p+jrvkCuP2ckO2WHdgH1jGzNxhj353hC79cXPbWHAVCE7AvKfyY6b7hIBEQgIDBo2zg3wd9lkNac4RwODJgbbuOuNnjjdGjWs79z4rzlhZxeVFyLGgkXBvz+CwRXxUIQfWLwHweARE9yMD4O+jdeo8BJot/wyxsw94bMfxri/iUKTRhU2TxTrbIJ3heYl740BpMMyhdHBkgPCqm2rrr/nBYmiv0ygvLAW+uZTdnfx2q+wjL0Q7GnAwIGXP9z+ERhSnvvPoUHcJWujibv2KivY4OETA6b17YBAkbrgiMzXpKZi6wq1OGwVvIznBnVqu1wzO3KX9e2/p/4jfFn/F4FYAp8v7n/eCECkTRZ78/i++e9ggMseICsEBkG8CvAo4DgT93/6CYF+Ew0bBcZEDIkMMnfasIM9/5/DnFKRLFx7ws5OzhCI2+fqI1xfbBCkM2HqTGverLrhIZze7WfuZcfusaGt3GpZmxF4GDQK7vNGx1zUt03LZtY6MDRgCEDOtGre1O2VcNyeFQqOLwveT22CPots6hzI0Uf+dYCt26GVu5xuOZCnVwYGG/4ylE4ls4cHhgfKRUCmDwwMvBOmzPJFqvzLwJ4QXu7FMhAC3gSZyMNfx06x8YvzQGl06QZpIdYxLKOsJwq7B0abE/be2MnYefMX2NCRE11UFAfK/vWwPxLdWu087zKWoiG7MQJhGMDIwXIyhXgCqd5D9L/ng3cgSihtgiF6xeBZ3CvwBiJk8pyE+/XYSTMqZ5x5PmhrDDipnm9fi2i/8OcxSq4Q9Efe8fRT+iRlHffnjEAxnW7Io8cvOTB2PMRz8vRlB7t9jZBZGB4ZPyy7dGOX1jOBsWrLddrb5GCmnNly/v/sFYe6a+mEVKzDaSSSm5mUAyMLBg7GKYRk/QPjbzp9L52+fs1iD03y/PKnce55Yb8ajI0K2ROQh0D27HSnCJQ9gYXBSPSdQb85xXfLYHYtGr75ZXylCz/X9t9mLcMavF6H1pVRtz7zwcr/Y2FnkzKUB5RTBoEDfx7rNghjFvKjwaMqlw8wEPxjcvWBqE9snUCpZqaNgOEiHNg0jJ8Ptzz7qVsSEA0MHgjsORANM+dUzCL6OP76Ppc+ZQya8Zx46ML9ghnUitk08kNpefitb+2cwEOC4GelGOQOGLrEuOHTOGrX9a3X2fvYLhuvGs0+reNkbJll82HLMx4wXsQn7bOJ3RIYMPbYvGIwllYmilS2BPySHWbLMAgyoPfLefDeQWE7fq8KJfbo6/u42Tlm1V8IFABmdC8PZuxSBfoRfQel99YXPq8W/Zy73raH3/7WKWWf3HqcUyAoT7Jwz2tfWZ8BPzlvJQx0zF6xtGDbfz7klFzyS7RhH0bNfRbPkJ966+v29PtLlkrlor6U+4E3vnE/H27qsZv16LJpNcXz+Y9+sJP+7zWn7H5y2/FueRQD9B9HT0qb++zACNvzif6BR9YIN2CHs192Rf5RmX1zICs3DuQVXgL3Bhxx1Scgo8Ph08XyrPNqrZ0hmIAnGGHAkDGOcTJ5GJ0VxYhw4HZru+eLd87ma1XNLe9pAAAgAElEQVS8b0grWfjl9yluqdcnQ0a5PWNO/d/rbqYSo+7uFz6e7NZq106/7Y0q59holudu3eB9hleKQjyBZO8hjPatAs8hnrudznu0cumRN5Knek7C781wv0YB3X6DVdzY5Ml+g6u835M9374G0X6x04YVzzfGBd6XBAwZGJx6B/2AJYkYC34Lxi+MXdZeeQXDqyAc9gvGP8hJ+tmeFz1RZXkLmxqzQTKGiz2Ca4Q3eh5lGOu7Bxu48gynE5Kx9kY10kkkN3cM6pluOfCMRE4NCPomIVn/eOHjH9Lue8n6Ovy6716xkexO5z3ixoh4Cjxwwb5OLt/VZ2A6mBQnhoAMAjFQdEoERCB9Am8Frqy8dBmIRgMv9XMO3srNErULBurtV1jWRVkqcMf0wVvYsfJilfcBl00CigWDzU0WbyzoZ5zilgugDOAGGg68wHFbDQfWDY+fsmRWaVKCtWtzFm9YiPttNCy9VIWxwMeJXv/ix4oNERkk4Pa7ZjBAIFDf6Exfi2ZNore7Y9xwCenOEEQTScXWx8ewQ3gzWGKBQYCBOi65UdftaPo6Lm8CzJLhws7zwgB4eLCPgJ+hxlhAf2ZGlfDhdyPd348W/6VPrbRYHiSiuG2wHKf3Ofu4y1c9+qFbRhQN/tlFIRsVKPMoxciZZG7/vV8b5Ix2BL/hKC7KGANShbbBbJ1fj44bfzjUtL4+LWbazj54S2OpFGmuFHgiEMJyk2Nfd7yoPgmMpau23cDFz6QcU2fOtTv7VCj1pJmOzPblTPb3x9F/Vu4xwb4SeGkh05HHGHMzlYcoft4gQL5bBG7KBJSHZOGrX8Y5d+JcBDxQkKkrB5tc8r7y7zP/rspFHnUxjWTvobGTZziPC5YTfXPPyc5og3fR3a8MNCYUMnlOwv06Ecd0n+9ov4hLz++bggJNYDkBdWEcwqRGNLA5KuGTYAlAdK+O1Rd/6eeTIaMr3d7xssEgwJKZdEMy1uE0EsnNTMrRJ1j69XowZvAhV/0jWV/nneGNRT89fHoVLInGUemyK/d41Ue55U5E9RcBEciIAGtOUQpwuY0O2C/vtoNbu4erXp/+PwWKcRNj1tuHfbde0249fY9gvf0CY7aLmR/WoYWDn4X0M4+JNhTkHmb5UEoIDKaZsWO/Au/i6tN988tf0tpUkLWnhOgLmRmvVRZ/ucDH8Wn7v+EdjXFg9m7MuD0zMxkO7CEQFxYsrNgQLZsNsdJhG80TN0YfKkwE0Rg6FoElBJiFY9COayv9ctlgbT3PEINiFO6wgc878ddz23JWBL7akSjg0vr05Yc4JRLvnVuD9e2pgn9+k6UbTaPe4uVEyTYfDN8TLnF0KVK4OpnWN5zHYxcf6JYAfPvbeHv1s2Huiwvslp4sVNY9iFSTcqSS2cnKEL326fe/O08CPKAaBXszEAYsXkqQqTz0ir9fMrDZ4uUHfmlCNO9Mj337N0iwEz1GWdy3eR7ZO+fDwDh1RLC8yit5meZXLvFTvYf4UtE+lzxlp++/uduPh6U3eAXgWdf5xN5ZvTeTsc3l8z1/8YalYTngn6Pwu9SXx8uOqNzguu+zS6SjBZKy4ihdeZaKdSIuYbmZbTly2T+S9fXwcrBH3v6uyp4B7FujkD0BGQSyZ6c7RUAEAgJYurHoMov/UzArFA7sD0C4O3DjwrUUd2EMAn6/gfU6Vlxn9vDMYGMdBlveIOBfmgODzXlwRWbgxSyCHxB+Hgw2oyH8lYEXg/X67Fdw0PZrO1flbAJupgRcAFmfxgwECgRlZFaAl/+nCfYx+MdijwmWG0wLPmk4NlhjSJg6a06wydY7bv+EcEi17rlK5DQO0mEbTYYZOAIeFH4jxGgcHYtAmAAGuwqDQLvAINDYXfpscd/EEMjzjwcBrqj0wx2DWVYCLtu/B30Cw100oBS8cOWhzgWXjfrYJTxVQGn2Hge/B+uH2egrncDaXwKz8vTp8GdM4+7HRRUDKEY6NiZkYy0fsq1vNB/vZXH2XW85g8uVwecWMQjEKRLcy74M2wdrsAm/BxtspVWOBButppLZ5DF/8caGzWI2eQzXBeUfgwBeXX4W3bsXp5KH4XT4/5BgPxk8llA8WG9OnSdMneWWOmUS/KaMKEG0oT/2O5wz8x8XOq20nKsD7zu/2d3OwVIu3ktx++fEpVGO59J5D40LvATO7VWxjI52Hfrgqa7vdwy8fVI9J5m+N9N5vvPVTuwxQGAJoN9g1ef127iK59j188V7oGy32Aj46+JrqcqVDutoGlG5mW050ukfifpetEzJ+jqeZYydaPcXgkkklpEq5IaADAK54ahURKCsCeA6i0GAncTDgZcLg7fzDt3afTLMD/4ZuHPev3x4Qb523ZG24nJLBmNHBssQbniqv3PDY80d37Dtf/txbqCPwvr9qPhZdZ//Q2994wwCfLaQtcrhNfNdtlrTvrvvlCplZYfaB0PrdrmI++Lj7w52a/jYPIodgHlZexdB1iyyCVJ4UPLKNUcEm1f97XbfJfCJQ6zu7Kx+7iFbu3oPe/QMdx8uwNRn4x73VvNiqFK4FAes8935kYo1jkRlx3fWIhISsb35mQGVqb57U3enbLCHA+GlTyp2jK+MoP+IQAICbmPBg7awrrt1DhTFCo+W8HIe1pmfe+hWbu8QlDfvbUPfSeQgwCZ3rCsmvTODb93z86FLsEdH2LX/uhN3cV8ZQFFksp8148ys+zW/CYpdeZpPI+JBRD/8KFhbjsLPpp6JAkZA5B197oZAJlx93E7BZqgLnJvzEde86NbVZ1rfaF64IsPpwWBzVRTVtVep2LSOZVkoTD4csO3agaGgg1Mu8FrCY4NPwRKyLUcqmc0A3C+3+FdgGGWzw4vv6xfI5OpfQfHruymnN2YMCFyiCankYfQTZDwrXwTGJxj0PreLSyO8ftydSCOglPFcodwjh38M1nnvefGTbmkayhjPEmuRo15hIwNvMQzTuCu/d8vRzhPGG27YiJX3RLmHFQPD+c+PLHHjxjDn13Qneg/xZYwxT5/jDC0Yy5sHRkXerxgSeRZTPSdR779UbZDq+U51f02u9w28fS4+cjtDeebZY2zDM3XENS+45+f8w7YxPF/82IRNS+Hy2DvpPVvpjKd8+RPJTWRrNuVIp38k6ntRpsn6Ot6kbw/8zX3d5sWrDqvc3LlZ0C8Z99Tk85LRcpTb8RL/0HKrueorAiKQMwKsPSdEXdtvenqAs+A2adzQuQIy447Q5mXfKthF+8VA8XwseBEyoEbhHzNput3X92s389MmGOT64BUMv5Yer4FEyoS/h88BsekgZTo+sjs3M5asHQ7/GIjEBTYAxGWZNbEo/jjxYaDgE0eXP/R+tVuYJeXrBJOmz3Yv+X8t/uQWn0Hik1b8bRxspMRMFDNtH3wzsnLGrVpiaZ7Aag4b/2serP9PxRb/BOqEoYS64+6NAYRPaPGpRAURSIfA54FCTWAQz+f4CJ8v3j+D/1/35Cd2XdB/2C2fWXj+9nyyv/t0Z6LQsEGFqyxKbrSfNly8QR2DX/o3O/yjEP8Z9DfWtB569fMpZUM4XzwCjrvpFffpT3b8Rsljl+9k4azAm+mJfkPcTDwBZXjU+IrZv2zqG82Lz2/RN1dq1dx9YeDp94c45Zcvl8CEfOmrKLYsy5gT7J7P2mMUixGLlzllW45UMpuy3vf6V06uk2/TQLYnmiHHMINCw3OBIo0RlHoRspGHfrkBa7QJqfYPcJEigXfPpQ++5/YyWDooO1+WIODBhqEHIy1eaFFvN5Tbi4JPWvLMrRtsJMiXce7pO8h9OQPjlYK55yD8HmI3/lTvIQwrbE7H5x/pxxj1MGbzruTZyeY5SdYW6Tzfye6vyTVkTNeeL7qvpbBpIcaAEeOnuvEPBrB9LnnSffaXPsWPJZh7B+fCkxnJ8k/FmntTyc1sy5FO/0jU9+LqlKyvn3bb627ciPGW/TwYu4z4Y1rsV2ji0ta5eAL1grUpVf1W4+PprAiIQIEIjBs3Lnix1nc/3NPDP4rg17z64vguzN/wb2Gw/pzfuqc+XqCSl282GAr+fOkCB2CTU++rnEErXyKqea4JfN+rWxW54OVDXD7IAfq+/8v/1zutYufquPg6JwIiUDoEJAtKp61UUhHIF4EfegeenSFdIawzkKfXFaI6gy9P9Lw8BPLVUkpXBERABERABERABERABERABERABIqYgAwCRdw4KpoIiIAIiIAIiIAIiIAIiIAIiIAI5IuANhXMF1mlKwIiUDYE2PW25QE3l019VVEREAEREAEREAEREIG6QUAeAnWjHVULERABERABERABERABERABERABEciIgAwCGeFSZBEQAREQAREQAREQAREQAREQARGoGwRkEKgb7ahaiIAIiIAIiIAIiIAIiIAIiIAIiEBGBGQQyAiXIouACIiACIiACIiACIiACIiACIhA3SAgg0DdaEfVQgREQAREQAREQAREQAREQAREQAQyIiCDQEa4FFkEREAEREAEREAEREAEREAEREAE6gYBGQTqRjuqFiIgAiIgAiIgAiIgAiIgAiIgAiKQEQEZBDLCpcgiIAIiIAIiIAIiIAIiIAIiIAIiUDcIyCBQN9pRtRABERABERABERABERABERABERCBjAjIIJARLkUWAREQAREQARGAwIMX7GdT+1xoFxy+TVpAdt6oo4v//YOnpRVfkURABEqfwOXdtnf9/t7zutRaZY7fayNXhpevPjy2DJJlsVh0sowIyCBQRo2tqoqACIiACIiACIiACIhAsRHYYLU2Tmn//Zlziq1oKo8I1HkCDet8DVVBERABERABERABERABERCBghO44+Uv7dF3vrOZf81PmPcySzdKeE0XREAE8k9ABoH8M1YOIiACIiACIlDnCey3zZp22n6b25orL28tmjW2qTPn2Jtf/moX9H7X5i34u7L+XHvnpm7WOZgRHD95pj353lC75blPbeHCRbbxGm3t6uN3tk06rWgN6tezcX/OtJ/HTLajrnuxzvNTBUWg1Ais0X45G9TrJFfsTsfcZZOmzbaWQf8e/sRZVq+e2Xon9LIT9trYLSt69sPvrcd/+xpLh3DdHxf0/XteHWSn7LeZPfb2d/avI7d16TRr0sh5Ckye8Zet3v1O+99pexgu/72CuJfc/56L8+7N3W3ztdq59Ej3wiD9fQP507FNC2sa3E/avV8Z5O7JJuRClq3QfGnreeKuttsmq1rzgMnEqbNt2O+T7V/3vutkmoIIFBMBLRkoptZQWURABERABESgRAm0adnMWrds6gwBoydMt1bNm9ox/9jQjttzoyo1YsCPe/DceQts1RVb2qVdt3NxMAA8/59DbccNOjjjwJQZc2zF5ZexvbZYo0SJqNgiULcJ/Dp2io2fMstVEiMeYdNAUccYMHLCNBsbGPQShXZB377y2J2Mv/P/XmhDR050Uen7A38eZ18P+yPRrdXOr9aupTVt3MgmBgaJCYHijWHg+pN2tfU6tqoWN50TNZVl5HHbGXvaETuvZ8ssvZQrU7PgL8aQVi2aplMExRGBghKQh0BBcSszERABERABEaibBB544xvj58NNPXazHl02rTYoZ/Zu3eN7uWgP/2t/O3C7tW3vQOnvN2i4GywvWmS203mP2og/pro4cieuRKr/iEDREfj0+zGuD2+65or2zqDfgpn79q6MA4aMSVrW2XPnW88n+tsH345wxgC8iT6+9Vj7KzAU7n7h40nvjV48/bY3qpwacPvxTu6s26G1fT9yUjR6yuOayrIHAzm4UeDtRDi/9zv2RL8h7v+NGzWwvwODh4IIFBsBGQSKrUVUHhEQAREQAREoQQLM0p198JbWqf3ybtZvpVbLulosFQyCwwGF3weUAJSJdissa2Mnz3AzfK0Do8A395xsowIvg89+GGN3vzLQvvllfJU0dCACIlAcBAYMXWIQoERbrN3OFQxDQbIwdeZcu7PPl8mipH1tpw07OC+jlVs3d15F7QN5QkABzybUVJaR57e/jrdVgvLcddbedk2wDGrgT+Ps6Q+G2osf/5hNkXSPCOSVgJYM5BWvEhcBERABERCB8iDw2MUH2nF7bGTLNl3KXv1smHP7TRUaNqgYhiwKrATzFyy0fS55yh5681v7cfSfzqBw+E7r2avXHun2JFAQAREoPgJe8fdLBjYLlgwQ+g8dnZPCLgiWExBYUhQXcO9/9opD7aDt1wn2MPjLnnl/aLBUYUZc1LTP1VSWkdGZd7xpNz/7qZODTZZqaHtsvrr7VCtLohREoNgIyCBQbC2i8oiACIiACIhACRJYt0PFet2z73rLrnzkw2BGbKyrRX0WFMcEBvhdtlrTXfl9UsUAflzgJXBur7dt6zMftDWDTcpwH142WHvbsW2LmBR0SgREoLYJDBkxwabOmmso5ii7yy+7dLBmfpaxv0AmwW88ipFwqYZLZvb/DDYXJDDzHxc6rbSc8wTgKwZsPnrtE59U7mtQP4ERIS6d8LlcyLL5wUaq1wVlYflDh6Nut89/+N1lwWaqCiJQbAS0ZKDYWkTlEQEREAEREIESJMCaf3YdZxbsz+l/2dqrVBgImBlDSfCB5QQ/PHSam/VnIzDCCx//4DYiG/P0OW5gP3XWHGvetLEtHcyszZoz334bl5lyUYL4VGQRKEkCLAH6IlB26ee9z+3i6sAygkzDmInTnZcQyv2wR8+wH0dNsj0vftI+W7z0YN/AeNjnmiMCw0NTW3vlFSqTHzl+mtuIkL1G3rvlaMOg4BX6I3dZ3x5/d3CmRXH7l9RElpHhc4HXAt4SfC2BMrEUijBk+ISMy6MbRCDfBOQhkG/CSl8EREAEREAEyoDAWXe+tdjVv7n7wsDT7w9xigG7bDdqWN+mz57rFPtpwd+2wWwingNsJvave/vZcx/+4AbN/b4a7gbQDJ4xEOBu263nS0m/YV4GaFVFEShqAgMWLw9ov0LFLH6q/QPiKoPh79IH33NfJli6cUNrsHg50QffjrS7+gy0aYEXwpbrtHcGQvYa8QHvoovu72d/TJ5l6wYbCS4K/t3Td5D7xF+2O/rXVJZRtkHDxjnDAoZNfr/8PsXJuo8Gj4qrvs6JQK0SqBes29N2l7XaBMpcBKoSGDdunNWvX9/96gUj4vCPmByHg+/C/A3/Fi5cGFjNF9q6p2a2W6/aQwREoPgIfN+rWxW54OVDXEmRA/R9/5f/r3faE3FRdU4ERKDECEgWlFiDqbgikAcCP/TuHjsm8DpC9G+0CFFdQh4CUUI6FgEREAEREAEREAEREAEREAEREIEyIKA9BMqgkVXF8iYwtc+F5Q1AtReBOkBg7NiKDfrqQFVUBREQAREQAREQgSIiIA+BImoMFUUEREAEREAEREAEREAEREAEREAECkVABoFCkVY+IiACIiACIiACIiACIiACIiACIlBEBGQQKKLGUFFEQAREQAREQAREQAREQAREQAREoFAEZBAoFGnlIwIiIAIiIAIiIAIiIAIiIAIiIAJFREAGgSJqDBVFBERABERABERABERABERABERABApFQAaBQpFWPiIgAiIgAiIgAiIgAiIgAiIgAiJQRARkECiixlBRREAEREAEREAEREAEREAEREAERKBQBGQQKBRp5SMCIiACIiACIiACIiACIiACIiACRURABoEiagwVRQREQAREQAREQAREQAREQAREQAQKRUAGgUKRVj4iIAIiIAIiIAIiIAIiIAIiIAIiUEQEZBAoosZQUURABERABERABERABERABERABESgUARkECgUaeUjAiIgAiIgAiIgAiIgAiIgAiIgAkVEQAaBImoMFUUEREAEREAEREAEREAEREAEREAECkVABoFCkVY+IiACIiACIiACIiACIiACIiACIlBEBGQQKKLGUFFEQAREQAREQAREQAREQAREQAREoFAEZBAoFGnlIwIiIAIiIAIiIAIiIAIiIAIiIAJFREAGgSJqDBVFBERABERABERABERABERABERABApFQAaBQpFWPiIgAiIgAiIgAiIgAiIgAiIgAiJQRARkECiixlBRREAEREAEREAEREAEREAEREAERKBQBGQQKBRp5SMCIiACIiACIiACIiACIiACIiACRURABoEiagwVRQREQAREQAREQAREQAREQAREQAQKRUAGgUKRVj4iIAIiIAIiIAIiIAIiIAIiIAIiUEQEZBAoosZQUUSgmAi89NJL1r17d9t+++1tu+22syOPPNKeeuopW7RoUTEVsyjK0rNnT7vmmmtqvSxvvfWWDRw4MONyPPzwwzZ27Ngq9x1yyCH2+uuvZ5xWvm6IMo6rK+cOPPDAfBVB6YqACIiACIiACIhAnSPQsM7VSBUSARGoMYGnn37aevfubeeff75tueWWVq9ePRs0aJDdcsstNmvWLDvppJNqnEddSmD//fcvCkPJ22+/bWuttZZtvvnmGeHFINC5c2dr37595X1nn322rbHGGhmlk8/IUcbZ1jWfZSzmtKf2ubCYi6eyiYAIpEkgarxN87bKaJIFmRJTfBEoPgLjxo3LaaFkEMgpTiUmAqVPYOHChfbggw/amWeeafvtt19lhfbee2+n9N544412zDHH2FJLLVX6la1hDf766y9beumlnTJd18KOO+5YVFWqi4yLCrAKIwIiIAIiIAIiUJYE6gUDfPn/lmXTq9LFSgCrX/369d2PmfnwjzJzHA6+C/M3/EOx59euXbuMqvrrr7/aEUccYW+88Ya1bt26yr14B+y0007OYLDhhhsabtzff/+9NW3a1H7//Xf7+++/bdddd7Vzzz3XGjVq5O7l/E033WSDBw92ddpkk02c58GKK65okyZNsr322sswNgwZMsRmzpzpDA0YIzgXF1DCb7vtNvvoo49c/E6dOtk///lPl+67775rN998s73wwgu2zDLLuNtPOeUUW2eddVyZ0invF198YXfeeacNHz7cmjdvbrvttpudccYZ1rhx48ry3nPPPfbcc8+5MvCjftT93//+d2Uc6kWdZ8+ebS1atKisI+nOmDHDsb388ssrjQnJ6kU9fNmp15gxY1wa1JmlCssuu6wdddRRNmzYsCrIKBss+vTpYxMnTrS5c+fayiuvbBdccIFtvfXWLo1ddtmlyj2wevzxx40lAyeeeKLts88+7vrLL79sjz76qFtagBFkq622sosvvthatmzprhOftMlnypQpNm/ePOvSpYudd955VdLngPLghcISFB8uuugi+/nnn42lKj5cddVV1qRJE+Ma9feME9X1448/du2/7bbbGu04depUW3311e2KK65wz0ApB7iH5YKXD3F1Qg7Q9/1f/h/2/oi7R+dEQARKg4BkQWm0k0opAvkkENUVwjoD+XpdIaoz+DJFz2sPgXy2ltIWgRIkgJBBKY8aA6hKs2bNbLnllquy3py4l112mfXt29cee+wx++STT+yJJ55wNUeBO+uss4zZZtajv/jiiy6NK6+8sgoZlMtnnnnG3nnnHcNVHeUPhTIusGyBa08++aSLj9KJgQHldvfdd7d1113XKfSE1157zZX11FNPrUwqWXkxXlAXjAfvv/++ofh/9dVXrl7hgOK/6qqr2gMPPGANG8Y7Wm2zzTZOGaeMe+65p0urW7du7hyGC9z6b7311spkk9XLR0I5xohAvd588037888/7dlnn3WXUeLhzHKOzz77zP0w1GDQIG2fL8fXXnutuwdDAvEwMtx9993u/4888khlmfx/vv76a2f0wDBC2YmDsk07hcNKK61kvXr1csYkliFgRPjmm2+qpYch45dffnEGHQIKKwo8bRV2h/3uu++c0SMaEtXVp4VRijYj/zZt2tjtt98eTULHIiACIiACIiACIiACAQEZBPQYiIAIVCEwZ84cNxueKDA7TBwfVlttNevYsaM7xIjAWu8BAwa4Y5RprJbMHqPMMuN+3HHHufPz58+vTGOLLbaoXIKAwsq1ESNGVF73/8EQgOEBjwBmpiknaaOU//DDDy4as8kYHzBMoHBfcsklbkbbh2TlffXVV50CjRJKmsx4s0kdinI4YAjAyIDxIVFA4ffGgn/84x9O6cWboUGDBs5yi5EA7wpCOvUiHpwpE4E64a3h6+3TJW3y9XkzM4zxolWrVk7x32OPPeyPP/5w3gIEH4924v+kEw39+vVzm0vChjQ6dOhgp59+uvOOWLBgQWV03PrxhiCsssoqtv7661eWL5wm9y+//PLOK4QAB+qDEcWzxuAwcuRI23jjjcO3uv8nqivXeMZ23nln9yzihXLYYYdVcq6WkE6IgAiIgAiIgAiIQJkTiJ/aKnMoqr4IlDMBZtATzc7DhWt+OUAcJ5Yo4DZOYMYdpQ4FLRxQ6Fh+EBe4htI5ffr0apfHjx/vFNCDDjqoyjUMCH62mfxPPvlk56qO8ov7eLIQLi+u+Ci/zL77gCKPchsOKM+ZBJRUQtiQwjlYophPmDAhZb3i8kP5juMUjguXV155xX766SfXLjAk4L2RbsCA4A0R/h4MDbQFyz5QvONCsvKh6OM9wNIFjAB4iay99tru/wcffLB9++23hscBM/w1CRgeYID7fNRFribp6l4REAEREAEREAERqAsEZBCoC62oOohADgm0bdvWKamTJ092s7jh4M8TJ1FAOfcKMwows+K498cFlMm4wP1xCqtXqHGZ93sExN3v91JIZtjw90XLe+ihh7olCLkMngfGBR/8OeqZbr2iZULBjeMUjocnAzPyeFKgXLO0gk0hMw1hTwDujR7HpZesfHhhfPjhh+42jABwxyDA0grqhEEgbrlAXD7JzoU5J1rekex+XRMBERABERABERCBukwgs2muukxCdRMBEXAE+NQcynb//v2rEUFxQ8FKtkHbb7/9VjljjAKKl0A6inm1zGJO+H0N2JgvUWAPhPvvv9+tm+dTiWw0lyyEy4uhI6lCwWAAACAASURBVFnaydKpybV06pVO+nhX+KUAxMd74Mcff7QePXrYZptt5jwd2FcgGqL3Ra/jARD91BXHKNgsRcgm4CHApouUkaUDfN6S5RyUjyUEGATilgv4vFKVOZsy6R4REAEREAEREAERKDcCMgiUW4urviKQggBKXvfu3d36e1zncTNnJv+9996zG264wc00h2fnmXFmvTdu2awpxz2dteYE9gZgtp5N3XCLJw7pRZXLFEWqvMy+ASiJpMceA+zgz8Z6o0ePrpwp57OIfKGA9fVsaMgxO/j7kKy83MPmduwlMG3aNKes4mKfyJMh3XKnipdOvVKlwXUUd/ZnwAhDmVGuWZs/cOBAxwf2fo1+uA24jz0XaCPaMhrgwn0ffPCBa0OWVmB0YTlGtrPua621ltsLAO8RvgTgvVFYOoDnAEaBZB4C0br6r21Ey65jERABERABERABERCBxAS0ZCAxG10RgbIlwOfm+BoAO8VfffXVTqlnPTfGADYFDAcUaNy9/af0unbt6jbiI7CLPbvTY1x4/vnnnXcBa+dR6jEuZBP4QsH111/vduxHycU4wSw1CipKK5vs8Sk+Ahscotzjhn7OOee4c8nKyyw1RoTevXu7NNhPga8qHH744Xb00UdnU9y070lWr2TLI8IZ0A4YBLzRhs/68dUE+PNDiWZzQD6JyMaMfA2AwKcZaSc++Yf3B+0eDhh24EIaeGBgZOAcGzhmG3gW+HQl7RZmy54Cl156qePuN6uMyyOurnHxdE4EREAEREAEREAERCAxgXrBQH9R4su6IgIiUGgC0W+Lsg7b/yhLdGM034X9unn/l/Xq/Ng0L18h/G34fOWRy3RLrby5rLvSKm0C+vZ4abefSi8CuSIgWZArkkpHBEqXQFRXYJIlTleI6gy+xtHzWjJQus+CSi4CIiACIiACIiACIiACIiACIiACWROQQSBrdLpRBERABERABERABERABERABERABEqXgJYMlG7bqeR1lEDUDaiYlwzU0SZQtUSg6AjITbjomkQFEoFaISBZUCvYlakIFBWBqK6gJQNF1TwqjAiIgAiIgAiIgAiIgAiIgAiIgAiUBgEtGSiNdlIpRUAEREAEREAEREAEREAEREAERCCnBGQQyClOJSYCIiACIiACIiACIiACIiACIiACpUFABoHSaCeVUgREQAREQAREQAREQAREQAREQARySkAGgZziVGIiIAIiIAIiIAIiIAIiIAIiIAIiUBoEZBAojXZSKUVABERABERABERABERABERABEQgpwRkEMgpTiUmAiIgAiIgAiIgAiIgAiIgAiIgAqVBQAaB0mgnlVIEREAEREAEREAEREAEREAEREAEckpABoGc4lRiIiACIiACIiACIiACIiACIiACIlAaBGQQKI12UilFoGgIvPXWW3bggQemLM/DDz9sY8eOTRkvkwgDBw607bffPuEtm2++uX3//fcJr4cvUI9DDjkkrbiKJALlRuCbb76xrbbaymbPnl2t6l9//bW7NnPmzGrX0j0RJx969uxp11xzTbpJJI2XiSxImlCGFyn/jjvuaOTfu3dvi8rLHj162GOPPeZSnTRpkos3fvz4DHPJXfSpU6faSSedZFtvvbUrCzI2HHwZ+ZsoZNpu99xzj51zzjmJksv4fJRxxgmEbgi3T03SqUv3jh492j0biZ6BaPvvvffeLr7/7bDDDnbCCSdY//79q2FZsGBBZX/ZbrvtbO7cuVXivPzyy1XSIs199tnHrrzySps8eXK19HJ1Iptninui/SeT8hRCZsGze/fumRQrp3Fz1b9qKjujcjqnlSzRxBqWaLlVbBEQgVoisOGGG6Y1mGPA37lzZ2vfvn0tlVTZioAIZEuAvtu4cWP76quvqhnhGPSut956tswyy2SbvMXJh/33398WLVqUdZq1fePw4cOtT58+9vTTT1unTp1cccaNG5dQXi677LJ29dVXW4sWLWqt6O+++65T9N555x2jPNmE2m63dN9J2dRN96QmENf+//73v23XXXd1N2NURFk+//zz7c4773QKvg/fffed6/MffPCBHXDAAYaxEeNUOKyyyir26KOPulPExUBx00032WWXXWa9evWqEjdXB9k8U2+//battdZaVeqXq/IonaoEaiI74+S0+JrJIKCnQAREICMC7dq1M35x4e+//zYs/igSCiIgAqVLoGHDhrbpppu6Ga+oVw7nttxyy4wrl0o+YIQoxvDXX3/Z0ksvnbJof/75pzVt2rTSGMANyeQlcpLZztoMGANWW221rI0BlL222y0Z49pkWy55x7V/kyZNKp8plLdjjjnGRo4caQ888EAVhfnTTz91xxgXkSmfffZZNYNA/fr1qzyf66+/vl188cV29NFHOy+B5ZdfPueo9UzlHGlOE6yJ7IyT05kWLt13Qqbp1mZ8GQRqk77yFoEiJHD22WcbFvkLLrigsnRY76+77jrDAs4PqzyuZwTc7o866igbM2aMvfbaa85qf+GFF7prp556qvu7zjrr2OOPP2677bab4V6Iu7EPLD847bTTbM8997TPP//c7rjjDjerNmvWLGvZsqVzb8vGxS2dtKZNm+bKyqzE/Pnz3cD28ssvrzR4vPHGG/bggw+6GYlGjRpZmzZtnOtjly5dKsuv/4hAXSWwxRZbGH0gHHDpZVbv5JNPdqcZGN1222320UcfuSUEzIz/85//tE022cRdz0Q+IBswGjC7SCCf22+/3X755RdnaGSQjhyZMWOGUwiQOfRhlA/ckq+44grDkJEqUCZk3B9//GG4zHM/yoVfQuTLgdx64oknbI899rDTTz/dWEZBeX788UerV6+e85I477zzbN1113Wy64wzznBZ+xnQu+66y6UflpfhsqGM77XXXta3b19r27atk40seUI5om7UE464t/rZe2Qs3hVch4kPzMYyaxoNyGlmV1m+hVED2Qs7ZOvdd9/t5Fu4zChkcQxvvfVWV/8pU6ZYhw4d3Gyvr2e03ZJxipaP41Tx4UTdBg0a5No7HPDG+PXXX6swnjBhgv33v/91cp34yG0YbrTRRk6+f/vtt64eBNoQ93N5ssW1THrnou2f6K5ddtnFvW95bv0zxvOGhwFhm222cf0tneUkHTt2dPew3CZqEPD9CmMbMgQPBZ4B8uYZIPC+Z6zBeIZngTR4rzMWadCggfNoiI5zVl55ZZs4caKLP2/ePBef/k9gDDRs2DD78MMP7b777nPnkIkYCMMhkUyLm0RJ1ndJM9V4ijiUhyU6o0aNcv2furVq1apKmfxBqjETTG6++WbX74cMGeLGaMhk5C6ykpBJ/6KdGXOxZMkHjM3/+te/nMfSTz/95Pox8nbhwoWujXbeeWc3No3KTuRmorjhyiaS08jFZLx9frB87rnnXNvyi5OVsXBL4KT2ECiBRlIRRaCQBHgp85IOB6z4uPExCI4LKAS8dK+99lo3MOd+BrUMOPn/I488EndbtXNrr722c6F96qmnrF+/fk4xIG0Gv5mGdNPCIMGg8sknn3QvHepAYADNiw6jBi9CXhbXX399paKTaXkUXwRKjQCDJAZl06dPryw6A1pm7PzA+pZbbnGDY/oPgzgGySiLKLM+ZCMfuP/MM8+sNCZimGDAx8AZF3sGjQ899JAb0CNfvvjiC3v99dfTRowCzhr/N9980ymEN954oxvk+vDqq6+6Nc8YAjAWYOxgAMssJko5SwOYqTz33HOdcsF53KGRe8g8ftl4UWCcYFBNHpSN2axnn33WFWvEiBFOse3atauTWZQfJQUZdckll1SrOwoxijSGCpYGwAkDBQocgfuOP/54t4bblznRAHfjjTd2igX15l3AoHzOnDnV8kzFKXpDOvExRjATzHPEYJwyoxy89NJLtuqqq0aTtEsvvdTV0yt89957r6255pouHvei6MGXNl5qqaVcvRTyTwCjC32FtiHwF2WPMQeBvxh3MOikChjzCMstt1zCqHg4PfPMM05G7L777q7/+meWvoBCh/xirMG7HRnz/PPPJ0xvpZVWcs8O8TDKMSbAmEXAUEk/Qrn1fSlqDEgm06KZpuq70fhxxz/88IMzghx++OFONjKuOvjgg+OiunPpjJlYstGtWzd75ZVX7L333jOWVmAk9SGT/kV7DxgwoEp5PvnkE2MvCQwXGC5JH5lD+ZGv3ngUrUS6cRPJ6XR5MyZF5uDpkkhWRstWKscyCJRKS6mcIlAgAghjBp5Ywn3gBbftttsmLMFFF13kBmEMFBGSXlCiOPB/hHs6gVmr1Vdf3VnzmzVr5l4MDP6xbmca0kmLtMkDizkve15mzEJhGKD+lBuliHgrrLCCWx+omaRMW0LxS5XAGmus4WaS2UfAB2ZwmLXGYwZDALPbeAQQD2WdWXb6PINRH7KRD/RD5AczcCi9zJAzq08gb/ois1OcZ8YaAwUuyekG4lNmAsouykN40zNmF1FE8Q4gD+pNvU455RSnjCIzMFig0GIkwVjqDaZeBiYyoCYrIzOf1JfAjN5OO+1UyRJliXwZ1DMoZaYOJQQPpjjFCEWH5R7MJGKogBMGDhQhZmnh68sdlttx5WNmDhlJ/jBAsUKZi4ZUnLKJz8zrfvvt52YTWd5w7LHHOgOBf7+E00TpQklD+eMZad68ua244oqVM7U80/Cl7WEGv0yem2j5dZw+Ab/sxivlzNbyTPnnvXXr1kb7RCckojkwQ49xiOeBtk0UUDj9zDtGNOSVN/rRN5jVJw36BjLg0EMPdUpuokBcv98HsgiDoJdzjBVS9aVkMi2aZ6q+G40fd4wRELnGpAf9gL7L2CpRSGfMhCzcYIMNKmUHHk7hjZwz6V+MvWiPsNcPMpg+ieGBMRheaoy9KBsyjz4dDZnETSSn0+WNIQBDKl5hdS2k9q2razVWfURABJIS4EXHC5qX9b777uuU8d9//73aur5wIgzMchFwF2aWEQUEV0Bmx5id5HymIZu0GFwwUGZQiQscQp+NjlCAcC3FKOJd4zItj+KLQKkRYPDEgOzLL790rpoEFD4GbAT6KP3loIMOqlI1ZgHDXyDIRj4wGEThT3Qvg2sUW2QT7py//fZb0tmvKgWMOcDQFzaCRo2YzEgiH8JKPko0A2w/WxmTbI1PoYB4Dw2MBchEFF4MGijFyErfNtHMKJdXtvw16kmbwSyZMhVNK3yMFwMD9Lhd3jPllE58DBl4qTHLS97vv/+++4sCGQ2+DVE04wLGE2Yb2VgMlhwncqGOu1/nsieAiznBL3+hTb13gE+VY86HZ4IZg/hnHOWPdDCG3XDDDWkXBk8Q2pnnnsBzFzXuI28y6cvhvplOQVLJtHAauei7eFaiRKcbshkzYWhA1tMuyMZM+heyiTbAAMSSUerM/TwDpIWBBk8kZB1jsc0226zyWrhOmcRNxCIV7/AkV6I0Sv28DAKl3oIqvwjkgQAz/bjgYhDg5YwwjpuByjRrBvfJdhHH9Qzlg1ksXhRYhg877LBMs3Hxs0nLGx54wTCzgEsys1NDhw51lmzcAZl54kWlIALlQAAXS1xNCczs0Rf8/iJ+pg/365p8cSARRwwLcYF1sf/5z3/csgFm8pETuP7WJJBXqo0Dw2v2fV5x52pSjui9yCIvl9ifgTXOzNBTVr8RW7I9VqLlix5H80v3mDKFjSPh++LyiDuXjGE4PktQeCcwG4lc5t2AMoiSlyjEPTsoZMwUH3fccW5fGhRE9sfh+VXIPwGMdjyzKJEEJh0wdoX3KaHdaGO89LwxkPYOf00Ar6FU3gFxtSHt8DMbfSajx3FphM+F+2aquP563HOZ6N5oeaLHqcZTxMdwlm7IZszk2wh5gOdGpv0LLwGWDWAQYLkAHg3+XUK/Z3kCHlh4YrCcE+MAyzuiIZO40Xv9cZRv9DjRfXXlvAwCdaUlVQ8RyCEBZsL9OlMMAsmWCyTKlhm26DeFvTU50T0MEFC2o7uaJ4qf7Hw2aTFrxEDbz2CQPmtP+eF2h6swLy0ZBJKR17W6RACDAAMxZoN//vln53rNWlOCn6Gl3+BGmkmIkw/h+0kbDwQG0CwRCAeMhswihXfoT6ScplsmlBVc6xMF9hygPAx8vfcALsjMMnOtUIGZKpYxsJdAqoAHAHuhhAPHpFGTWXEG/qz/jqt3ppzSiU9ZURwxTEU9HqIM/DPJ7Gh0szmMusj3E088sfI2P/MXTUfHuSfAXjzM7NNX2SiUvkObhg1xKGFHHnmkc0P3Xy+gjcKz+bhss88Gyme0jROVmueV/LxXDM9dtG+wmXHcM50ozej5msi0aFrp9N1U4ykmcdLZj8Hnnc2YKVzubPoXcvyqq65yE0WMrbz3mU8XDvyQeX7vkiirbOJG00jF2+97Eb2vLh3nxs+3LhFRXURABJybsN/wB9fcqFtfOogQsAh4XkhemKJIMCOD9Z8XAC+Q8OZjDOZwh2VQwHlcyZiFjL6408k/nbQY3FM2XN4oC5tPsRMyAxbypSy4klEW9lVAEYm6GaZTFsURgVIlwPOO+zWzOP4TYX5WCLdx1t4ys0T/YGNR74btZ7UT1TtOPoTjskwHGeE3FaWf4jrMORREjBOsPfVeCywdoK8iW9IJGDhwPUa5ZRd+PIHo+4kCigx1Yld+7sH1mE39UGbY+KpQAZda6ui9M5Lly/4DyFBkLjIOJfn+++93Bt5MFWHqTBq0ATuN037eMBQuQ6ac0omPMYD2p86p2hdjLookX3igTXlGeH/wbPJO4Jhnh3cMewegePq0k7HUNXNGGViFf4m40Fa8N/nRL9kQjvGA31Ge5xIjImvOkTH+x/IQ+n6yfQRYPsBeQ/4LGYnKgAHPjx/YNJT2Z90/gTTYoJKZZ+TA4MGD3eZ19JlsA32CJTx+GVPUGzKZTIvmmU7fTTWeQoFmTT6ymUC7hdf7R/NMZ8wUvSd8nE3/ov/Dn7FWeDka6eIZgLzhuWMcyVKhROOvTOLG1SEd3nH31aVz8hCoS62puohAjggwyOXlhVsl7luZzv5RDNxa2eGanaBZd8+uvD169HA79/OJLNJlKUL4pckmXbgCYyXG8s+aMTYp48Wf6aA7VVpsWsgn0/bee2830Cc/Bsr+k0e8hBj4+sEk1ng2GPSfUswRaiUjAkVPAAPhlcFO/AR2cw4HzuPCiWsn/Yh+jcKO4plsGUGcfAiny/pc3MJR7Nj5m9k3Bpx8lgwPHQyVfNEAjwXkCzID12N232fmMFXACEAZURhYZ4tHFBvWJQoomixLQLFBHmEUYUDOlw+Sua4nSi/b8ygd8GC2lQBjFGDaITrrT7udddZZbnNEZj+R65xjk8d0A4YDZk3ZcBWPL+Qm74P//e9/sZvFZsopnfi0PXVj5pjgy8TXH+K8tZhx5N1DmVH8ke18vQbl44gjjnDvIYy+7MmANxpMee+gNCokJsBu9eGAOzpKflzAg8V7sRAPLzv6st+DB4U/0UQD51H+wp+ji+bBEhK+8MEYhfaLC8gqDEC0NX2EZ9Ybwng2UJDpH8ThGWFJCs9HtoFnEYMAYxb6Jd4P3mOFNJPJNPpVOKTTd1ONp9hzA88nlhnBAAOu3xQxro6pxkxx94TPwTjT/sWzwTIBPmPLkqiwws+STQwYtA/LSBgv0o/jQiZx4+5Ph3fcfXXpXL1gML6oLlVIdRGBUifAwI3BJj+EePhH3aKusb4L8zf8YyaFHxvlKIiACJQ2AQxTYbng5UNcrZAD3gvHy4FEMytx99f1cwzYcRsPLzkohTrjpcGAGOMqShBty8w9nxVEmWFtfF0M1IulK16xwTCB8QeD7ccff5xw48m6yII6SRYkb9noN+qTx9bVYiCAsRWDJbJMIT0CUV0hrDOQgtcVojqDTz16XksG0uOuWCIgAiIgAiIgAiJQawRQ/hnEsXeBN/Sw9AFXfv8JxVorXB4zpt54CfhlEtQfN3S8tvzylTxmr6RFQATySABZxtelarJcI4/FK5uktWSgbJpaFRUBERABERABEShVAmx6iKs1rtS40bLZIu78fKIt/Jm2Uq1fonLzVQvczVnmwRIAlhnwGVhcwBVEQARKmwB7B+DV5vd3KO3alG7ptWSgdNtOJa+jBKJuQFoyUEcbWtUSgQwIyE04A1iKKgJ1mIBkQR1uXFVNBNIkENUVtGQgTXCKJgIiIAIiIAIiIAIiIAIiIAIiIAIisISA9hDQ0yACIiACIiACIiACIiACIiACIiACZUhABoEybHRVWQREQAREQAREQAREQAREQAREQARkENAzIAIiIAIiIAIiIAIiIAIiIAIiIAJlSEAGgTJsdFVZBERABERABERABERABERABERABGQQ0DMgAiIgAiIgAiIgAiIgAiIgAiIgAmVIQAaBMmx0VVkEREAEREAEREAEREAEREAEREAEZBDQMyACIiACIiACIiACIiACIiACIiACZUhABoEybHRVWQREQAREQAREQAREQAREQAREQARkENAzIAIiIAIiIAIiUFACDz/8sI0dO7ZKnpMmTbJ77rmnoOVQZiIgAiJQUwLIrXPOOaemyeh+Eag1AjII1Bp6ZSwCIiACIiAC5UkgziDw559/2n333VeeQFRrERABERABEaglAjII1BJ4ZSsCIiACIiACIpBbAn///bfNnTs340T/+uuvjO/RDSIgAvknkG2fzn/JlIMI1B0CDetOVVQTERABERABERCBXBH4/vvv7b///a/9+OOPtnDhQlt++eVt5513tgsuuMBl8eqrr9pjjz1mY8aMsSZNmti2225r1157rX3++ed2xx132Lhx42zWrFnWsmVL6969u/vNmDHDdtllF3f/qaee6v6us846dtJJJ1Wmu/nmm7vzxMcN9/fff7ebbrrJBg8ebPXr17dNNtnEzj//fFtxxRVdvEMOOcSOOuooV47XXnvNrrvuOttqq63sqaeesueff97Gjx/v4pLegQce6O7p2bOnoWiQ9xNPPGF77LGHnX766fbGG2/Ygw8+aKNHj7ZGjRpZmzZt7IQTTrAuXbq4+xREoNwIvPXWW3bzzTfbxhtv7GTBnDlzbLXVVnN9jL4+YcIEmzZtmnXu3Nn1f/o74fLLL7dvv/3WpkyZ4o7XW289u/LKK619+/bumPuQL19//bW7n752zTXX2EYbbRTbpzfddFMnV95++22XJvKIfnnaaadZgwYNXJrJQio58t1339ntt99uv/zyiy1YsMDatWtnjz/+uDVu3Ni++eYbd43616tXz9XlvPPOs3XXXTc2S+qGzBo4cKDjtfLKKzsZt9dee7n4LI/i+qBBg1zdw4E8kY233nqrY+5D7969bdiwYfZ///d/sXnqpAjUhIAMAjWhp3tFQAREQAREoI4SuPjii2333Xe3G2+80Q24p06davPmzXO1/eKLL5zifemll9o222zjlGcGvoS1117brr76altmmWWsWbNmbjCNYo8xgYHxZ5995tJlQMwgnwE2ij7GhaOPPtpdJ3AOpf2ss86yrl27unKQP0oEigUDZB9uu+0223vvvZ1Cstlmm9nrr7/ulHvirrTSSjZ06FCXTocOHVyeBAwaLFPAEEAd2NPgiiuusBtuuMEwSqAUcJ16KIhAORNYtGiRHX/88U4Rpk/Sn998803Xh1dffXXX91FiMcKhoBOIjzJN/+H+f//7326PkKuuuspdR3Y0bNjQKfkY7GbPnm3NmzevxBzt0ywz+uijj+yWW26xVVdd1Snul112mbVu3dqOOOKIpM2TSo5gqDzzzDNt//33d7KlRYsWTt5R/pkzZ7r6HnnkkS5vjKMo7eeee66TIci+aECOYCQlHnUaMGCAS3eNNdawNddc0yn7kydPNuqIjERe9enTxx544AFniNhyyy2tf//+VQwCHGP8VBCBfBCQQSAfVJWmCIiACIiACJQwAQbwEydOtC222MJWWGEFVxM/88f/GZijRDOAjgbiheNut912boA9atQoZxBACSCg8Pv/+2P+hs99+eWXLp4fCDPIPu644+zwww+3+fPnVw7GL7roItt3330ri/Liiy/aMcccYx07dnTnmHXEg4EZTW8Q2Geffdwg3YfffvvNGT6Y+fRGAF/3ykj6jwiUIYFll13W1l9/fVdz+ifGveeee84ZAwj0S84x4+0Dym847Ljjjk7xJaCAYyhEYV5rrbXcubAxgONon+7Xr5/zBMITgcDs+aGHHmrvvfdeSoPAV199lVSOUG7kDLP+/CVQZwKz/NT5lFNOccZLAsYDvI/wKsAAGQ7Tp0939zz99NNO3hHwDMB76f3333cGAWb6MXL6uhx77LH20EMPVcpEZBV8zzjjDHc/xoOffvrJtt9++yp56UAEckVABoFckVQ6IiACIiACIlBHCDDwZbDN8gCUaVxjGfhiBOAaLq/MvMcFZuPeeecdYxCOuz6z7AySOZ9pwM135MiRTtkIBxR3vxyB834Q7+NwH8o+HgM+MOPvlwxwLupmzPIB6nnAAQe4ZQnMhjIw57yCCIjAEgIY+KL7bqDQo+j7wLIbDADDhw93MoDjVq1aucsYGwmJZAjXon36jz/+qFxu4G4OArPpnCcgJ7p167b4SsUfjBAsD0olRygPaUXzJBXSx4PBGwM4h4GAJQ4+73CmyDyCXxrhr4XLiqfSp59+6jylMKZgKOAv3g4Ev/wKOQszPAyQR55fOD/9XwRyQUAGgVxQVBoiIAIiIAIiUMcIsE6fATazYD/88INTrjEOXH/99a6mKNhxgbW2zOzjis+gmFn2ww47LC5qynO4Infq1MmefPLJlHHDEbiP8kYNCckSwT2YWTpm71hiMGTIELfuF3dhjCMKIiACFQRQjnGdDweUaS8TULCZAcebh707UGQ/+OADN0seDnj5ZBKiMid8jHGBJQvhsPTSS7vDdORIsrJE8yXNuHPhvKPXOfZGBWQr8hHPAeQOcpKlSksttZRLAmMDcg9Dx83cNgAAIABJREFUAF5Yn3zyie2www7h5PV/EcgpARkEcopTiYmACIiACIhA3SHAzBg/Nt3beuutKzf+Y4A/YsSI2Irilo8Cncy9ldn56NcA/Iw9g3dmywgMjJndY+8AP1iOzTRysm3btgnLl+p+XHr54U3AxmUMxmUQSEVN10VgCQGMaSjjJ554YuXJ8FIgPxPORqD0sXQCfZp9PsKBjUs5TyD9VVZZJTapVHKE8jCzH16G5BMifa7h4eRlFPIIrwefdzhT8iJQ1vAyCMqK5xEB+YnXFAYMv6wgnAb/xxsLgwAbJyJTMU4qiEC+COizg/kiq3RFQAREQAREoIQJ4BnAun8GruyajVurd4NlXwC8ANhUi9lA1rgy4CUwuGZ9MDNiuBCzSSBKfngwj5EBRZt02byL4AfXrBXGVZYlAexhwH4GeB0Qlw2+yC+qGEQx77TTTm4NL8sWSIc8uIf7EwXKSLlxA6bcGDyoY9T1N9H9Oi8CIlBBABnA7vk///yzkwO48/PVEvoh/Yz1+ayfv+uuu5xHDnHpn2wsmCjg7cO6eryV6NN8dYSN+OjrqUIqOYKijpxhkz+MFJQT2cc5NhjFGMDXR/i6AbKJDU0xeGy44YbVsmY5BfsbsIEidUKWsIQK2eLLikz1LKKeFj5BZCyyExnGniZ4DCiIQL4IyEMgX2SVrgiIgAiIgAiUMAHc5xnEM1jHrZX19Xw9gMDsFbuJM+jlU2EMjhl0sws3G2795z//MdbvMvvH3gNsCsiAmgE06bBBFzuUv/TSS26NPjuIoyT06NHDfVYLpYGNA3HXJx67crOJF27JzLox4MbFNlFgh3MG7rjmojxQPmblLrnkEjfAjwsM0vm8mldMyIcNBv3nEePu0TkREIHqBFD22fmf/oybPJt74jGEIRDZwBdD+NoAfZu+itEAWYF8SdQ/iYcSzddCkEnEx+U+1RcGKB2yJZkcQYlHnmCgQM7gCYBRg0+Sci9y7c4773QyDBnEl1T4gkkiryXqQX58mQBvApYzIHv8fiSkjzziOgHvBgyifGXFeyMh4zAWIGfTqWP1VtAZEUifQL3A+rUo/eiKKQIikG8CzLLxwuHHizT8I+/wxjYc+y7M3/CPFwk/NrJREAERKG0CKKlhueDlQ1ytkAP0ff+X/2uWO46UzolA6RGQLCi9NouWmL0V+LQgyj5jOpZP8ZlUDJIff/xxlc0NMRpgGGXJloIIeAJRXSGsMxDH6wpRncHfHz2vJQN6tkRABERABERABERABERABESgAARYeoCXAJ5QBLwIWKqEVxKKnQ98ChXFL/ppwwIUUVmUGQEtGSizBld1RUAEREAEREAEREAEREAEaocAn3NlecKjjz7qlkuwLIHPCv7vf/+rUqC33nrLLc9q1KhR7RRUuZYNARkEyqapVVEREAEREAEREAEREAEREIHaJMAnBNP5jCBLChREoBAEtGSgEJSVhwiIgAiIgAiIgAiIgAiIgAiIgAgUGQEZBIqsQVQcERABERABERABERABERABERABESgEARkECkFZeYiACIiACIiACIiACIiACIiACIhAkRGQQaDIGkTFEYFcEIh+TiQXaSoNERCB2ieQSd/OJG7t10wlEAERyIRAJv07k7iZlEFxRUAEapdArvq2DAK1247KXQRyTiAsHHIlKHJeSCUoAiKQEYFM+3Wm8TMqjCKLgAjUGoFM+3am8WutYspYBEQgbQK57tcyCKSNXhFFoLQI8C1bGQRKq81UWhFIRIC+HP4+daJ40fOSA1EiOhaB0iYgWVDa7afSi0AuCGQrBxLlLYNAIjI6LwIlSCDOALBo0aISrImKLAIi4AnE9eG4vu7jx12LS0OERUAESotAXD+O6++SBaXVriqtCGRCIFM5kE7aMgikQ0lxRKCICSQbDFDs+fPnF3HpVTQREIFUBObNm5c0CjJAciApIl0UgTpBQLKgTjSjKiECNSKQjhzINAMZBDIlpvgiUGIEpk2bZgsXLiyxUqu4IiACEKDvTp8+vcYwJAdqjFAJiECtEpAsqFX8ylwEioJAruRAtDIyCESJ6FgESpRAohnCBQsW2KRJk5ynQJybUYlWV8UWgTpNgL5Kn504caLRh+NCXJ+PO8e9kgNxBHVOBIqfgGRB8beRSigC+SaQrRxIt1z1ggy0wDhdWoonAgUgMG7cOLd5mN8MzLsD+4F+3IDfd+PwX/7PD2ti+Pf3339XO+/jUb04kRB3rgAolIUI1AkCcX3Wn/P93Pd5f9ygQYNKORAnC7xcoG/6tPz/fd+P/pUcqBOPkypRwgQkC0q48VR0EcgRgVzIgUTjAooYTj8ur2gcjhvmqG5KRgREoMAE6ORxinrcea888BchEr6PYxQF/hL8tXCcuHwKXF1lJwIlSyDu5ezP+T5J5bxRINxfw/d6AHHpcS16Ptpvw+lKDpTs46SClzCBaB8N91vJghJuWBVdBDIgkE85EC5G3PghUTFlEEhERudFoI4Q8ALBK/xUyysKYWOAn0301ZZBoI48AKpGrROIe/lTKK+g83/fP/nrFQP//0xe6okqKzmQiIzOi0DhCEgWFI61chKBYiVQDHIgykYGgSgRHYtACRJAuKDAJxIyVMlf9zODxA17Bvg4vvrR2cXocQliUpFFoOAEosp8oj7K+bABwMfjb/j/vgLhc75vcs738/C5cKUlBwr+CChDEXAEJAv0IIiACORKDoTHBmH5Ek0/XeIyCKRLSvFEoJYIZNO5/cy/LzJpeEMARgAvPLwCwbE/H74nrsoyDMRR0TkRqEognX7r+yV3hl/u/nz0HPG8J0E6vL0c8P1cciAdaoojArklIFmQW55KTQRKkUCu5YBnkMmYwN8TVxYZBErxqVKZRSAJgfDg30cLzxZ6wwDXOO9/XqiEFf445T9OkCQpji6JgAgsJhDuO/7//A3/iOqPPbi441RQJQdSEdJ1Eag9ApIFtcdeOYtAsRCoqRwIjyNqWicZBGpKUPeLQC0S8IN+ihD+vz/mr3cRTvb/8L1RI0D0uBarq6xFoGQJhF/84f4ZfaFzHD4XvR4GEHdNcqBkHxEVvEwISBaUSUOrmiKQhEAu5ECiNMg2ei1JUdwlGQRSEdJ1EShBAmGlwHsE+HMsDUgmKJIpFCWIQkUWgVolENfXwuf8/6N/6bfRc1QkLr1EFQz3ZcmBRJR0XgQKQyCu70oWFIa9chGBYiFQm3IgGQMZBJLR0TURKAEC4UF/VND4a+G/0aUB3gMg1VKBEkChIopASRBIRwnwccJ/w300Lg1/PSwTACI5UBKPhQpZhgTi+nFc3/f9ONyfPa64NCQLyvBhUpVLlkBcH05HDoQrHJdGJkBkEMiEluKKQAkQiBv8+2UDif5Gq+XTiJ7XsQiIQM0IhF/apBT3Es90IBBXorAc8Pkk6v/+fDQdyYEoER2LQO4ISBbkjqVSEoFSJVAoOZCKT/1UEXRdBESg9glEBUa0RImuxykWnEsUP5xuOnGi5dCxCIhAYgLp9CnfPxP13Wjq4TTj0g/393Ca4fPRNCUHkhHRNRGoOYG4vhpNVbIgSkTHIlC3CNRUDsTRSJVmouvyEIijqXMiUOIE6PCJlgCEXQlLvJoqvgiUFIG4F3H4nP9/eMY+Onsfl0YiCNG4cTIhGidRWjovAiKQOwJx/U6yIHd8lZIIlAKBQsuBZExkEEhGR9dEoIQIIFgY8Ccb9CdTNOKqGlZQ4q7rnAiIQGoCcS99f1f0WpxSQFzfd8MGvei9xIvKAX/sr4XTiv7flyn6V3IgSkTHIpAdgbg+61OKXpMsyI6x7hKBYicQ7evh8kav1VQOpMtCBoF0SSmeCBQ5gbAhwBc1OpAPH4eFTHQWMlzVZNeKHImKJwJFQyD6kg8XLHot1bG/N65vSg4UTZOrICIQSyDavyULYjHppAjUaQKFkgPpQpRBIF1SiicCtUwA4RE32I+ei4sXPecFUXi2MVq9ZNeicXUsAiKQHoFMBgGkGI0fPY72f1+KaDyfVji+5EB6baZYIpAPAnF9NFX/DZcjer9kQT5aSWmKQH4JRPtxsj7Otbj44XPJxu5x9/r8ZBDIbzsrdRHIK4FkA4DotejgP06wxCkLea2AEheBMiaQ7OWc6Brno3070QAgLq7kQBk/cKp60RJI1N/j3tO+EnH9W7KgaJtYBROBlASylQNxCSMLkqUXvUcGgSgRHYtAERMId+6oUhAtdnjg36BBA2vSpIk1bNgwIwERTbO2jkdPnGajJsywwb9NsKmz5tqo4Hj0H9Ns2uy59t1v412xdujcwf1dZcUW1qF1C+vYtrl12aqTNW/auLaKrXxFIGsC9O8FCxbYnDlz7O+//672eULf/8NyIDwA8P1fckByIOuHUDcWBQHJgurNoDFBdSY6U7cJJJMDiWoeNyZIFLdeEHlRoos6LwIiUHgC48aNs/r167sfg3n/N2oMSGT5i57n/mbNmrl0SilMD5T9vp//EvyG2WufDsu66Ptus6Ztv34H67L1GrZKYChQEIFSIrBw4UKbNWuW8TcceHUnen0jAyQHqray5EApPfUqaxwByQKNCeKeC50rLwKJ5EAyCnFjgmh8GQSiRHQsArVMIJcGARSGpk2b2lJLLVXLtUo/+9c//9Ve+2KYPfnu4PRvSjMmXgQXd93Wtlt/lTTvUDQRqH0C8+bNs9mzZ1dR8jMxCEgOVG1DyYHaf6ZVguwISBZkxy3RXZIFicjofDETiJMDycorg0AyOromAkVKIB2DQLKi+5lBP3vYokWLarOFye6vrWv9h4620297w0aOn5a0CNt3rlDmO6/expZr1tg2WK2NjRo/I1g+8JdNCZYTDAmWFUybNc8GD69YShCXmAYBcVR0rlgJ0JenTavoF9H+HfUS8Nej8SQHqreu5EB1JjpT3AQkC6q3j8YE1ZnoTN0mECcHEtU4OiZIGC9IVEsGEtHReRGoBQLJDAJ013Dnjuu+XOe8v7bccsvVQi3Sz5KlAdc/1d96vTIo9qYNVmtr3XbtbF22yczlnzWGfT/91T4aMspeD5YdxAUUgrvP2UtLCeLg6FxREZgyZYorj+//4cL5vp7smuSA5EBRPdAqTNYEJAs0Jsj64dGNdYZAWA7EvfupaPR89DgMQ0sG6syjoYrUFQKZGASoc9QoQIcPrzcuZkUgkVdAh7YtbJ9gQ8Duu3W2zqu2qXHTYnTo9cpAuzswOkwLvAjCoeUyTeyJSw/UMoIaU1YC+STgX/7kkeylHi5DWDZIDphJDuTzCVXahSIgWaAxQaGeNeVTvATCciBuj7C4cULcOV9DGQSKt61VsjIlkMggUNlpA4WfEO3Y4cF/KSgClzzwXqxXwCVHbWsXHbldXlo/mUJww0m72an7bZqXfJWoCNSUgH/507fp+77/J5ID3kvIXy9Wg4DkQE2fDN1fbgQkC3LX4hoT5I6lUiosgahhMNGYIFqq6JjBX5dBIEpKxyJQywSyNQhQbG8ICP9dfvnla7lG1bM//Y43q20ayNKAXoH7fi48AqrnWPUMg4CL7nvfnnqv6saFXXffwG44cRd9qjAVQF0vOIHJkyc7I0DYIJDoxe6NAT4ufyUHqjeZ5EB1JjpT/AQkC3LfRpIFuWeqFPNLwMsBcvGTBInGBOGSJIojg0B+20upi0DGBLI1CHgjgM/QKwXFpgjc+HT/YM+AAZVcWgQbA56+/2Z58wpI1gC9X/nKLn6gX5Uo7Cvw6nVHJLtN10Sg4ATCL38yTzQbEDUKErcYDQKSAwV/hJRhHSEgWZC/htSYIH9slXJuCXg5EB0LJFL4fe6JrssgkNv2UWoiUGMCuTAIhJWCYjIIPNVviJ12+xuVjDAG9O15ZEG8AhI1zJARE6zLpU9X2VsAT4G7/7lXolt0XgQKTiBuVpBCRF/u4b5frB4CkgMFf3yUYR0iIFmQ38bUmCC/fJV6bgjEeQiQcnRMEM0t0XUZBKKkdCwCtUwgziAQ7uRRayDX4rwDOM/mgiussELOa8QO/p8MGWN9g937p82Yax8HO/n7wCZ9GwQbAW63QQfbd+s1KpX9YlQCfJlxF9z+nEeCzxcu+eThDScGewrsrz0Fcv7wKMGsCPz5559VvALCL3X//7Ac8B5CZMb/JQdSY5ccSM1IMWqfgGRB/ttAsiD/jJVDzQggB/xmgowB4sYEiXKIMwrIIJCIls6LQC0RqKlBIDpDmEtFAEPA6be+WcUAkApTx8VfDAh/VrAYPAOi5Y6bFeh11t52VPClAwURqG0CvPwJ/kUe3lU4ziDgvzTi5YHkQHotKDmQHifFqj0CkgWFYS9ZUBjOyiU7At4wmGxMkChlGQQSkdF5ESgiApkaBKKzgr4qnEcpaNWqVY1rh7X8+qf6x34VIJvEnww+87fPVmtmc2te74kOAPB2+O6+HtpkMK/UlXg6BCZNmlS5cRDxozMC4TSi3gEcSw6kQ7kijuRA+qwUs/AEJAsKx1yyoHCslVNmBJADTAx45T46JohT+n0OcdcaXBmEzIqg2CIgAvkkMHPmzMrBfriDhzs9+cd1aF+usELQtGnTGhUXY8C+lz1jfT8bVi0dvgxw8I7r2D82Xc267drZdujc0bZYp501b9bEJkydZXPn/13tnqN23cDOPWSraueL4USbls1sxeDX9/NfXHHmzFtgf0yZHSx96FQMxVMZypjA7NmzK2vv5UIyGUBkyYHsHhjJgey46a7CEJAsKAxncpEsKBxr5ZQZgVRyINn4IO6algxkxl+xRSDvBDLxEEjlHcD11q1bZ11mlgjscM6jNnXmnCppoNRf2nUbW6V1i6Rpvx7sMXDxA+9XWZvPDcXuit+158tG2X1g48Pt1l8laV11UQTySWDixIkueT8jEDYQejnAOf9/bwzwSwckBzJvHcmBzJnpjvwTkCzIP+NoDpIFUSI6rm0CyAHe+XFjAl+2OMWfa3Hn5SFQ2y2q/EUgQqCmHgJRhaBZs2ZZMcYz4NCrXrCRoY328Ajod0s36xp4A7QIvABShTVXXsFO228zmxqkNfCncZXRmYHv2KaFbbB6m1RJ1Mr1LQMvhyeDLyJ4D4fR46dbV+0lUCttoUwrCMyaNavakgGuhF/s4f9LDtT8yZEcqDlDpZB7ApIFuWeaKkXJglSEdL3QBDKVA+HyySBQ6NZSfiKQBYGoQYAk6Ly+A0f/xmURVgayNQic+H+v2ceDl3w9gDX/T112oHOhyzTsHiwpwADgXfG5v//QMXbC3htb40YNM00u7/ExdsybvyD4ksJol9eoCdOK2oCRdyDKoNYJeLlAQeLkgT/vC+o9BDjm/8sss0xWdZAckBzI6sHRTXkjIFmQN7QJE9aYICEaXaglAt4gQPbpjAmixYwaBepHI+hYBESg9AiEDQC+9GGFINMa9R862l77dInLPJ4BbATYvGnjTJOqjM9u/aThA8sQTr/9jazTy/eNFx25nXUIvpDgw6uL9xXId75KXwTiCET7c6I+z73+mv9/+Dgu7UTnJAfMJAcSPR06X1sEJAtqh7xkQe1wV67xBNKRA/F3xp+VQSCei86KQFkTOP22JYp6xScCj8gJD7wM2H/AB4wOKB3FGrrtun5l0dhTgD0VFESgXAhIDlS0tORAuTzxqmciApIFkgWJng2drxsEZBCoG+2oWpQhgUSzfonOp4sIxTe8b8ANJ+5aI8+AaL43nrxLsP/AEk+Dx98dGo1SNMfRfQP6fvpr0ZRNBSlfAlEPAE8i0flsSEkOLKEmOZDNE6R7CkEgUZ9PdD6bMkkWSBZk89zonsIRSDTuT3Q+rmQyCMRR0TkRKHECCAH/y7Qqr362ROnFZR5X/1wGlh2E03zji+qfM8xlfjVJi68obN95ydcFnnx/SE2S070ikDWBbPp0Nvf4AkoOLGkqyYGsH1vdmAcC2fTrbO6RLKjeeJIF1ZnoTO0QqEmfjiuxDAJxVHROBEqQQCaWwGTVGzA0vJFgp2RRs77WPWRkYC+B4l42sMQg8t1v47VsIOtW1425JhDX5+POZZOv5EBVat2CL6v4IDmQzROle/JJIK7fx53LpgySBZIF2Tw3uqfwBGrS52UQKHx7KUcRKGoC4eUCO4Zmx3NZ6M6rVv3c4OBfK76xnss8cpXW9hsu8RAgzVETpucqaaUjAkVLQHKgatNIDhTto6qC5ZmAZIFkQZ4fMSVfBARkECiCRlARRKAmBGpiEYzmG52pD++yH41b02O+XODDtNl/1TS5vN2Pi2A4fBL6FGPeMlXCIpABAe86mMEtSaNKDlTHIzlQnYnOFB8ByYL8t4lkQf4ZK4eaEchGL5BBoGbMdbcIFBWBbIRAsgpEZ/KTxc30WotmS1XeMmXW3ExvL2j88D4CxV7WgoJRZrVGIFlfT3YtmwJLDlRQkxzI5unRPfkmkKy/J7uWTbkkCyQLsnludE/+CdS0r8sgkP82Ug4iUCsEspkpGPVH4T6rt+9Wa1VyWbV1y1phlG6mnVdfssRhyG8T0r1N8UQgZwSy6c9kns19kgPxzSY5EM9FZwtLIJs+LVmQ2zaSLMgtT6WWOYFs5UCinBomuqDzIiACpUkgWyvhJQ+8Z71eGVSwSnfdff3g84MVXgJdtlmzYPkmygg36Y8Hj3GXR02cZqMTGEeGjCje/Q4S1U3n6xYB+ni9evWSVkpyICmehBclBxKi0YUiJCBZkL9GkSzIH1ulnFsC6ciBVDnKIJCKkK6LQAkSyEQZGB0ov9169jF2zg6HfO4fQD7Rzw/WJuber3xlFz/QL60i8FWEjXrca0ftuoF12209i64nTCsRRRKBLAlk8uKXHMgMsuRAZrwUu3YJSBbkj79kQf7YKuXcEshEDiTLWUsGktHRNRGo4wSe6jfEdjjn0WrGgEuO2ta+u7dHHa/9kuqNmDg1o7qy6/INT31iG5x0r+132TP6FGFG9BS52AhIDlS0iORAsT2ZKk+hCUgWSBYU+plTfsVBoF5gWVhUHEVRKURABCAwbtw4q1+/vvvhFhz+cT3qKuy7MH/Dv4ULFxq/du3axYK9OFgi0DuyRICd/3uds5flc+Og2MLU8km8JLpe1yf4pOBU22C1qp9E9EUbNXG6jQoMAYlC1903sBtO3MV5PiiIQK4JjB07topc8PIhLh/kAH3f/+X/7du3j4saeMZIDngwkgOxj4hOFhkByYL8N4hkQf4ZK4eaEYjqCmGdgZS9rhDVGXyu0fMyCNSsPXS3COScQLST58MgwCzAabe/UaXseAVcdOR2Oa9PXUpw+uy51vfTYfbRkDH2+uc/27TI1xE2XL2t3X12+RlU6lIbF2td8qEESA5k19qSA9lx0125ISBZkBuOuUhFsiAXFEs3jVmzZtmYMWNs/vz5JVeJRo0aWZs2baxhw4rdA2QQKLkmVIHrOoF8GwSGjJhg+wZu7qyFJ7Ro1tj69jyy7LwCavocMRDo9cpAuzvwsggbBlou08TuPmsv22er2t8osaZ11P3FQyDXSoDkQG7aVnIgNxyVSvoEJAvSZ1XImJIFhaRdHHn99NNP1rFjR2vSpElxFCiDUsyZM8dGjhxZ6T2oPQQygKeoIlDqBHhhhY0B1OeGE3eVMSCLhmVpAB4Vn9x2rIW/T46hpWvPlw2FS0EEipGA5EDuWkVyIHcslVLhCUgW5I65ZEHuWJZKSngGlKIxAL6UO+zZIA+BUnnqVM6yIZBPD4Edz626geANJ+5mp+6/aU7Zsvau72e/2tSIO300k45tm1uXrTrVmTX3Nz7d365/akBlNfEUeO26I2RsiTa8jrMikMtZQcmBrJogrZskB9LCpEg1ICBZUAN4BbxVsqCAsGspqyFDhljnzp1rKfeaZ0v58XAg6LODNeepFESgJAi8/vmwKl8T4LN5+TAGsPN+uqFj2xb2bR35mgHeAh1at6jcmwFPgW6Bp8DHtx5bZ4we6bar4hUvAcmB/LaN5EB++Sr13BGQLMgdy7iUJAviqOhcIQn06NHD3n77bbc0YPTo0bbyyisnzF5LBhKi0QURqFsEHu83tLJC7BvQK9j8Lteh76e/ZpQkn++rS671R+3WOViCsVslA+rX86n+GTFRZBHIJwHJgXzSrUhbciD/jJVDzQlIFtScYaoUJAtSEdL1fBK49957bcT/t3cuIXFdYRz/VDS0WnURNfiKz0QdRaQoMT6iNQG7iF1FsLqIj03bjSuhIeBGXKlgjaELF9m14MYK4kbapKRBmlWrJpDGZ8RXFHykMeCrfsfOnbmOjk4cz7n3zv+DQec+zved3zn8mXvuOd+ZmqILF07e/QoDAufZEigbBAxCgKfx89sAu31b8fm5RLb2ftPjcg9n6ve4AIPdwLMunBMK8taOf4y9MViUCMcXCUAH5LU6dEAea3jynAC0wHNmH3sHtOBjyeE+mQQwICCTNnyBgCIC3fsPpc729f6bbBnGb8t5BwPnDy9VsLr92Pil2L3Bbt/3/Gb1KqN+JiAAHZDbSNABubzh7fQEoAWnZ+WNK6EF3qBo/DJSUlKotbWVrl27Jtbm8xt6u/EWhXV1dRQREUEJCQnU1dWlq9DNmzfp4cOHdP36dYqJiaHc3FxxvqGhgW7dukXp6enESwDKysooJyeH1tfXxfn29nZKTk6m8PBwys7OpoGBAV25p/2CHAKnJYXrQMCkBDiL8M+/OpYL8AN53P5adxmWlRxBBbY4naunIzMyXCv1wdmGefeGb34YFHH8PbEoZgkcZqE0SDj3KQLQAfnNDR2QzxweTyYALTiZkbevgBZ4m6hxy3v58iUNDw/T2NgY5efn0927dykoKIhaWlro9evXND4+TrOzs1RUVCQe7AsLC7XKdHR00ODgIKWmptKrV6+04yUlJWJQ4MaNG7S6ukpVVVX05MkTun37NvFAAg8ahIWF0eTkJOXl5Qk//N0TwwwBT2jhWhAwIYGRySXiBHd2++4r7+4qYEKjvdbOAAAE20lEQVQkUkLmtYPx+0kT7db9i36WhpQg4AQE/icAHVDTFaADarjD6/EEoAXHsznPM9CC86RrnLJrampEMDabjfz8/Ih3DmPr7++nxsZGCg0NpYyMDLpz5w719fXpAq+urhaDAWxXrlzRzkVHR9OlS5fE7ALOB8D/Ly0dbG29sbFBlZWVlJSURKWlpWLAgAcdPDUMCHhKDNeDgMkIzCys6SLOTIg0WQ3MG271FzYteM7hwG9mYCCgggB0QAX1A5/QAXXs4dmVALTAlYmsI9ACWaTV+XF+Mx8YGEibmwe5tRYXF8WDvN34IX9hYUEXKD/UH2U8sODv7y8+bPx3e3ubeBkCzxKor68XgwCcQPDixYu0tbV1VDFuj2FAwC0enAQB8xOY2U8oaLesxCjzV8hENTicq8EXlkuYqHl8KlTogLrmhg6oYw/PrgSgBa5MZB2BFsgibTw/kZGRugGAubk5iorS/yYPCAg4deB7e3vaDgI8Q4AHDVZWVoSP3d1dXTm8ZGFnZ8dt2RgQcIsHJ0HA/AT+mnirVSIsOMj8FTJRDThXg/Oygd9HsduAiZrPUqFCB9Q1J3RAHXt4diUALXBlIusItEAWaeP5qaiooM7OTpEM8MWLF9Tb2yve7p/FYmNjRXnPnz8XD/xNTU1iScG7d+90xaalpdHjx4/dusKAgFs8OAkC5iew/q8jf0BRlj7Bn/lrZ/waFNjitSBHJw7WfBk/akRoNQLQAbUtCh1Qyx/eHQSgBWp7A7RALX9V3u/fv0+JiYliR4Dy8nK6d+8ecbLAsxgvT+ju7hYDC3FxcRQfHy/yCYyMjOiKbWtro+bmZgoJCdHtfOB8EXYZOEtL4F4QMAGB0SmnGQKffmKCiK0VYkLUZ9aqEGpjSgLQAbXNBh1Qyx/eHQSgBWp7A7RALf/z9M7Z/Z1teXlZ+8oP448ePTrW/dDQ0JHnenp6tOOcI4DtwYMH2rHa2lrijzsrLi4WywvcGWYIuKODcyBgAQLOOwzE4+FUaYs+xZIBpfx92Tl0wDitDx0wTlv4YiTQAuO0OrTAOG3h65FgQMDXewDqb3kCYcEXtDrydkMwuQQKsxxLBuR6hjcQcBCADqjtDdABtfzhHVpglD4ALTBKSyAOZwIYEEB/AAGLE8hKxDaDKpt4ZNw5qaNjcEZlTPDtewSgA2rbHDqglj+8OwhAC9T2BmiBWv7wfjQBDAgczQVHQcCSBKYWNyxZLyNXau39wR60HCN+iBm5pXwnNuiA/LaGDshnDo8nE4AWnMzI21dAC7xNVF15/v7+9OGDI3G3ukg898xxBwYGajciqaDnDHEHCJiKAO8sYF+nNvjnP/uxl5sqfrMHix9cZm9Ba8QPHVDbjtABtfzh3UEAWqC2N0AL1PL3pvfLly/T9PQ0bW1tebNYKWXxYEBkpGMGMQYEpGCHExBQR0CsV/vpmQiAkwmNTi1RZgKWEchqkWdjM5qrzCRwl8UdfvQEoANqewR0QC1/eHcQgBao7Q3QArX8vek9ODiYrl696s0iT13W/Pw88QwF/vj5+Wl/+X+2w38PF2w/bz+OJQOHCeE7CFiMQIEtTlejgWGeJQCTQeDN2zWaXlzTXBVn6ttCRgzwAQJMADqgrh9AB9Sxh2dXAtACVyayjkALZJGGH08J/AdY77quSz9GRwAAAABJRU5ErkJggg==;imageBorder=default;strokeWidth=0.5;" vertex="1" parent="1">
          <mxGeometry x="740" y="360" width="219.8" height="130" as="geometry" />
        </mxCell>
        <mxCell id="drxxX0xxiZus8A59z0TH-78" style="edgeStyle=orthogonalEdgeStyle;rounded=0;orthogonalLoop=1;jettySize=auto;html=1;strokeColor=#999999;exitX=0.997;exitY=0.588;exitDx=0;exitDy=0;exitPerimeter=0;" edge="1" parent="1" target="drxxX0xxiZus8A59z0TH-75" source="drxxX0xxiZus8A59z0TH-71">
          <mxGeometry relative="1" as="geometry">
            <mxPoint x="970" y="450" as="sourcePoint" />
          </mxGeometry>
        </mxCell>
        <mxCell id="drxxX0xxiZus8A59z0TH-79" style="edgeStyle=orthogonalEdgeStyle;rounded=0;orthogonalLoop=1;jettySize=auto;html=1;exitX=0.998;exitY=0.294;exitDx=0;exitDy=0;exitPerimeter=0;strokeColor=#999999;" edge="1" parent="1" source="drxxX0xxiZus8A59z0TH-71" target="drxxX0xxiZus8A59z0TH-76">
          <mxGeometry relative="1" as="geometry" />
        </mxCell>
        <mxCell id="drxxX0xxiZus8A59z0TH-80" style="edgeStyle=orthogonalEdgeStyle;rounded=0;orthogonalLoop=1;jettySize=auto;html=1;exitX=0.5;exitY=1;exitDx=0;exitDy=0;entryX=0.5;entryY=0;entryDx=0;entryDy=0;entryPerimeter=0;strokeColor=#999999;" edge="1" parent="1" source="drxxX0xxiZus8A59z0TH-73" target="drxxX0xxiZus8A59z0TH-74">
          <mxGeometry relative="1" as="geometry" />
        </mxCell>
        <mxCell id="drxxX0xxiZus8A59z0TH-81" value="" style="shape=image;verticalLabelPosition=bottom;labelBackgroundColor=default;verticalAlign=top;aspect=fixed;imageAspect=0;image=data:image/png,iVBORw0KGgoAAAANSUhEUgAAAdQAAAGiCAYAAABeXDewAAAACXBIWXMAAA7DAAAOwwHHb6hkAAAAGXRFWHRTb2Z0d2FyZQB3d3cuaW5rc2NhcGUub3Jnm+48GgAAIABJREFUeJzs3Xl8FOX9B/DPd2ZzcgQP8KDa1rvVeuJFssG1YsgGsbY1ar1qtVirQIJna9uY3lYkG7BU0VrvKtiqQDZBqpEcqC22tVVrtbbaCiJWJQESSHbn+/sj0B9iEnY2M/vsZj/v14uXkDzPzCcS8tmZnXlGVBVERG5VLq6016zb9Clx5ABR7A1gLET3heo4QMYB2AvA6G3DRwLIAWDv8LEPASiADQDiADqhuhVirVPoGgHeVdW3Bda7FrAmPx775/Jrlm9O7VdJlDhhoRLRYCoXV9rv/KfzCFj2kSp6mCgOAXAogEMA5KUwiirwloi+CsUrAutvYskrW8V56bkZ0c4U5iDqFwuViD4idEvF3rGAHg+R46B6HAQlAMaYzrUL/wS0HZA2Vae9vXr5Kwr+cKPUYqESZbmyOWUjunICIQDlUC0DcKDpTEMmWAdFG4DGQK9Em69tWGc6Eg1/LFSiLFRSX36o5SCsIuUQBKHIN53JRwrgBUAaHHEaVm046QWtqXFMh6Lhh4VKlCVC88Of6I3jXIFcAOhRpvMY03f0+ggs6/7WmcteMB2Hhg8WKtEwNvnmyUVb8nPOhIOzIZgCIGA6U5r5GyCLALmvtWrZP02HoczGQiUahoLzph4njjNDBecM89O5XnEUeMYCfrH3+JGPLTp7Udx0IMo8LFSiYaJycaX9ztubwhCZCehppvNksLWA3BnX+LxV1U0fmA5DmYOFSpThgr+Yuhu2Ot8EcAWA8abzDCObRHGP2Pa8lTOXvm46DKU/FipRhgotCI2M9RZcCcX1AHYznWcYcwD5DRx8p3V2w2umw1D6YqESZZgdivQ6ALubzpNFHEB+49j6rfYZ0TdMh6H0w0IlyhCh2lB+vKhgpgLXAtjTdJ4s1gPonRqI/7jtqifXmg5D6YOFSpQBgnXhMyCIADjAdBb6ny5Abhll60+iM6JbTYch81ioRGls0rwzDtZ4PKKCsOks1D8B/uE4OqttdmPUdBYyi4VKlIbK5pSN6AoErgX0BqT2iS6ULMWygOiM5qrGN01HITNYqERpprgufLol+CWAT5jOQq51iehNe+87ai4Xh8g+LFSiNDGxrrLAlk016LvoyDKdh5InwLNi2Rfz/tXswkIlSgPFkfKTLci9AA42nYU80wWVb7dVR+fx2azZgYVKZFB4fjhvo4MfQVENHpUOV0t7Jefrz8164l3TQchfLFQiQybNLdvPsQKPAnqC6Szku/fE0vNaZjY+ZToI+YeviIkMCEbKT3Es+w8s06wxVh1ZHoxU3CQQMR2G/MEjVKIUEoiU1JdfB8WPANim81DqCbAkb2vvRSuuX9FhOgt5i4VKlCKhyFljYth6H4AzTGch416GI1/kYvvDCwuVKAX63i+1GwEcbjoLpY0OR1HZXh190nQQ8gbfQyXyWUndlMMdy24Hy5Q+qsgSNAQj4a+ZDkLeYKES+ahk7tSQiNUOYD/TWSgtBQDcFYxU3GQ6CA0dT/kS+aS0vuJLCn0AinzTWSgDqMxr6zyhWmtqHNNRKDksVCIflEbCMxSIgGeByAUBHvygY+TXXqpZ1GM6C7nHQiXyWGl9+OuquAMA7zekZDzeXbi+cvX01b2mg5A7LFQiD5VGKi5T6EKwTGkIVPGbnM7uc5trmmOms1DieDqKyCMl9eWXKpRHpjRkIvhSrCj/wcrFlVz8I4OwUIk8EIyEvyYqC8F/U+QZqVy3ZtMvpbaW31MZgn9RRENUEgmfD+BO8N8TeUyBi0uKfr+A6/9mBv4AIBqCSfUVpQL8Evy3RL7Ry0siU75nOgXtGi9KIkrSxFvLDrNtexWA3UxnoWFPAbm4tarhftNBaGAsVKIkhG6dtmfcjj2rwEGms1DW6FHHmtI2e1mz6SDUP56mInJpYl1lQdyOLWGZUorlWpazODi34hDTQah/LFQiFwQitmx+QIGTTWeh7KPAHrB06cS6KbubzkIfx0IlcqGkvvw6QL9oOgdltUNssR/h7TTph38hRAkqjpSfDMUPTOcgAvS04qLnbzSdgj6KFyURJaB4Ttk4K2D/EcB401mItnEAp6y1qul3poNQHx6hEu2C1NZadsC+HyxTSi8WYD0QuqVib9NBqA8LlWgXSop+/z0FTjedg6gfe8VynYe45m96YKESDWJSfUUpoN81nYNoQCqhd9Zu/JbpGMT3UIkGNGHhtMLCrtiLvN+UMkAMlnVS68xlL5gOks14hEo0gIKu2I9ZppQhAnCcuycsnJBjOkg2Y6ES9aM4Un4ygKtM5yBy4ciCrnHXmQ6RzXjKl2gn4fnhvI0x/BGCz5rOQuTSVlXnuLbqppdNB8lGPEIl2smmOH7IMqUMlSdi/ZJX/ZrBI1TKeFJbaxXv0b63xHP2U3XGi1r7wdL9AIyHyp5QpxAieQDyARQAyAEwEiobILoJgs1Q2QToBlXZIqLnAeAPJMpYClT35vTcH4jn7yOx+P6wsY9A9lRgtChGQFEIkTEfmSS6SRWbRLVDRTog+qGluk7U/ncv4mtWVTd9YOjLyRgsVMoo4fnhvM6YfM6y9BgAx6riGABHoq8oicg/3YC8BtG/qeIVC/hbTJ0/r6pu+ofpYOmChUppbcLCaYX5XbFJFnC6QkKAfhZ9R5hElAYEeB+K51X092Khzf5wS3tzTfMW07lMYKFSWhGIlM4tP9qxcboqThegGECe6VxElLBuAC1QrJAAGltmRF8xHShVWKiUFibeWnaYbQfOBfQCAAeazkNEHlH5F4ClsJ3FbTOb2hXDt3RYqGRM8ZyycZYdOA+iFwCYYDoPEflLgH8ocE/Axr3NM6Jvm87jNRYqpVxJ3ZQgRK4WSAWAgOk8RJRycYiuUMWd+44f9cSisxfFTQfygpREyq83HSLdKbBZFD1+70cgjorT8bGPq3YpsBUALLF7HJHN4sRUEdgAAIG41RkrdOKB9Zu70/VigMrFlfa6NZvOUuAaACeazkNE6UGBNwUyv9fWu56bEe00nWcopKSunIeow4sC2KBAhwAbAXQC6BSgU4EOiHwAB+vU0nVwnLWi9ruFTmzN8muWb/YjTNmcshGbc+xLRFEN4AA/9kFEw8JGAe6Ix+K3tF+zfL3pMMlgodJ2mwG8LYo3VPRVFbyGuP2aZcVebalqesftxkK1oUDvmPxLRaUWwF7exyWiYWqzAL/IxGJloVIiOgV42RF5TuA8G3cCq1ZVL10z0OCSueVhEbmFy/cR0RBsFmCundv9s+ZvNm8yHSYRLFRK1n8EWKWqLXEEnlhVvXRNcaTiaAu4BdDTTIcjomFjLVS+09Z5wr1aU+OYDjMYFip5wQHwEoAjwAcuEJEPVPAny3G+0VLd9HvTWQbCQiUiokzhALhLe3KuabvuiY2mw+yMRxNERJQpLADTJbf3pZJIuNx0mJ2xUImIKNPsL0A0GCm/r2xO2QjTYbZjoRIRUYaSC7tyAqtLI1OONZ0EYKESEVEmUz1MYT1bGglfYToKC5WIiDJdrgILSuoq7p+wcFqhqRAsVCIiGhZE9IKCrlhLcN60/U3sn4VKRETDyXHQ2PPBeVOPS/WOWahERDS8KPaG46wM1oXPSOVuWahERDQcjYDgt6X14a+naocsVCIiGq4CqrijtK68OhU7Y6ESEdFwJioyt7Q+/D2/d8RCJSKiYU8VtX6XqpeL43dC8GOPtpWxVMUSaNGuB0oBRPN3/JAAIxSS+5Fx4oyCWgGoCgRjVGCJoghAAMAoALkA0mbpLSKidKZAdVtVNOLHtr0s1LWtVdHxHm2LXArVhvJj40YUaLynQGK5+ZbjFMVt2dNynD1UrD1EdA91ZA8FdhfRPQDZA9A9ARxgOjsRUQqpql7SVt14r9cbZqFmsZJI+LsCfN90DiKiFIuJypdbqhue8HKjfA81S5XWVZwpwE2mcxARGRBQ0V+X1k05wcuNslCz0KTI1M+o6H3g3z8RZa8CFevx0PzwJ7zaIH+gZpmJdVN2d+AsBTDadBYiIsP2icXxhFcL6rNQs0ioNhSwLXkUwIGmsxARpYljC7p6b/diQyzULBIrKvwOVEKmcxARpRe5MFhXcclQt8JCzRJ9T17Qb5vOQUSUlixdEJw75aghbcKrLJS+JiycVgjHeQhAjuksRERpSZEPsR6aWFdZkOwmWKhZoKArNgfAIaZzEBGlNcFnbdn4w2Sns1CHueK68OkAvmE6BxFRZpCqkropwWRmslCHsdCC0EhL8EsAYjoLEVGGsESsu5I59ctCHcZ6ewu+BcCzm5aJiLLEIbZsqnE7iYU6TBXPDx8owGzTOYiIMlR1SX35oW4msFCHKSuOOijydz2SiIj6kSsq891MYKEOQyX1FZMBnGE6BxFRhptcUl8+LdHBLNRhZsLCCTmi6upVFRER9U9U5oRqQ4FExrJQh5n87rEXAXB13p+IiAZ0cO+Y/IsTGchCHUYqF1faonKd6RxERMOJqHwvPD+ct6txLNRh5J01GyvBFZGIiLy2f6eDr+9qEAt1mBCIAPIt0zmIiIYjUdxwRG1l7mBjWKjDRDBSfiaAz5nOQUQ0TI3fbcymcwcbwEIdPvhoNiIiPymu6Tsb2L+ELgUmswQiJZGKT0PjR6nIEaLySREdC2CsAuMA7AVgpOGYRMPFRoisgeN8ALE+VMWHlmiOQiwAENURKvgEgAMBjDAblVLsc8F5U07FTDzV3ydZqGlo8s2Ti7bm5YQUeppAji1B+RGAMwoifavci0JNhyQaPl6CYDkc+aNazgvtG056XWtqnEQmhm6p2Dse0EMVerKIhBQoBkt2eHNkJtB/oUpJXblXP5vXtlZFx3u0rawTrK84EepMgeJ0iJwAvtgh8tNfRPGIY+lv2mY1/t2rjR5RW5m7W9HGiVDrAoieDWC0V9umtBETOPu3VDW9s/Mn+EPboOJbKz4ptl4kwIUADgaED1oj8pEATyqcW1qrmn7nx/ZfqlnUA+AZAM9MWDhtZkF37MsAroDiJD/2R0YEAOtCAD/r5xOUShMWTsgp7B57jgJfs2yZBF4YRpQKyx3IDe1VDX9O1Q5XT1/SBeA+APcF6yqmQFAL6Amp2j/5R0UuQT+FylO+KVI2p2xElx24DKJXA9jPdB6iLPEWVKtbqxsfMx0EAIL1FVOhGkHfBU2UwRzoxPaqxmd3/BiPjnwW/MXU3Uoi4e92Bew3IRoBy5QoFVSASHdh4LPpUqYA0DqrYVl3YeBIFakDEDedh5JniXxp54/xlK9PQrWhQKyo8HJAvy/A7qbzEGWRD0XlkpbqhidMB+nPtlPBs4sj5YstyL0ADjadiZKgOAvANTt+iEeoPiitC0+KFRW8AOhtYJkSpdIfA9Bj07VMd9Re1fgs8qwTAfHlAiny3QHFkYqjd/wAC9VDpZEp+5RGwg+r4BkAR5rOQ5RVRJt7bYSaqxrfNB0lUa1XLPsw0NFVLorbTGch90T1rB3/zEL1SGldxZkK6y8KnGM6C1HWETwW2LAl/NyMaKfpKG411zTHWqqjMwS43nQWckcE4R3/zEIdogkLpxWW1od/oaKPA9jTdB6ibKOK3+yz78izm2uat5jOMhQtVdGfiaDGdA5y5ZhQ5Kwx2//Ai5KGoDhScXQB9CEFPmM6C1GWasvp7L5g0dlRz6+YnTS3bD/Hsg6EYCwcayREBaIbofqhFdA3Wt6f+FaiSxQmqmVW9PvB+ooCqN7g5XbJN3ZceyYBeAJgoSYtWFd+liXyAIBC01mIspLIq3EnfmarR0emwbkVh4ilX1DgVAATYdmjAAAKQLbdrq8CQODEgJKi57uDkfDzCjwtjrOkdXbTi17kaJ3V8K1gfXgvKC7xYnvkr23fLyzUZAUjFbMhcgt4ypzIlI2WWNNaqxs+GMpGJiyckJO/eexXxJJvwMJJLle5KQBwigCnwLK+H4yE/wLIwriOuHtV9aLuoeQaZeGKjXEcgr7F9imdiZ6y/bcsBBcqF1fawUj5bYDeCv6/IzJIrlw5c+nrSc+GSEld+cX5XeNeE5F7PFpr90hAb7Nl07+C9eUzQ7WhpA9YojOiW51Y/IsA3vIgF/nr8AkLpxUCLIWEheeH895Zs+kxQK40nYUom6nKA61VDfcnO3/irWWHlUTKW0TkHgE+5WG07faCSn2sqHB1cX358clupP2a5esB/SrApzWmOTuvq/cogIWakAkLJ+RsimMRgDNMZyHKaoJ1sYAm/aI2GKm40LbtPwAo8TDVAPQoS6WttK68WiBJPUeqtarxGSju8joZeUtEjgNYqLtUubjSLuga+4AC00xnIcp2ovqtZO41FYgE6yt+Auh9AEb6EG0guSoytzgSvjvZU8ABybsOwMeevUnpQ4BjARbqoKS21npnzaa7Aak0nYWI5PetHSfd53oWREoi5bebvBVFoF+NFxX8ZsLCCTlu5zZXPbZBVb7vRy7yiPatjMdCHURw9PP1AC4ynYOIAIHOTua+z+K68M0ApvsQyRUFphV2jftVMqd/Rwf0VwDW+BCLvHEQwEIdUDAS/poKrjKdg4gAAG0tVdF2t5NK6ssvF9Fr/QiUDAXOL64rv8ntvOiM6Fao3OJDJPJGUen88FgWaj9K6iomQPBz0zmIqI8At7qdE5w75SiBRPzIMxQi+E7pvPLPu53XPcK+E8BGHyKRB+JxPYiFupPQrdP2FNHfQJFvOgsRAQBeb+04cYmbCaHaUACWfW+a/ju21JFfhRaEXF0cte05qmnzsHT6KAsWC3VHlYsr7ZgVexjA/qazEFEfUdzj9r3T3qKCqwA9yq9MHtivd2vh99xOEtGH/AhDQyeq+7FQd7Du7Y0zIXB9KoaI/KMqj7oZX/KzM0cJ8F2/8nhFRGeG5oc/4WaOvWHLUwDe8ykSDYWA76FuV3xrxSdVeGk6UXqRF1tnN7zmZoaV1/MNALv7FMhLefE4rnYzobmmOQZIq1+BKHkqGMdC3cay9Q6k9oZvItq1x90MltpaSzVzlgdV4LKyOWUj3M1RFmo6Uh6hAuhbjgxAmekcRLSzeJub0cWj/jAJwCd9CuOHkZsD9hfcTBDLYqGmJxbqiT8/bQ9A55rOkeU6FWgBUA/BxQKUiI3DBc6+gY7ugtaqqHQXrs9FnrV7T07PnpbKkVBME2AmRBYA+AsAzx8wTcZpAAWr3UwQW7/sVxj/6NluRnfnr/sLgJhPYShZKkVZ/zzUnFjejYDuaTpHFloL6GMW5Ld7jR+5ctHZiwYtxNXTV/cC+HDbH98H8NcdP3/S/PDonJhMhOALgH4JAP9OM99rzVWPbXA551RfkvhIIJMqF1fau/o3sN3q6at7g3UV/4Hop/3ORi6I5mV1oRbfWvFJy9Zvms6RRRTAk4Azp63j5KeTWUZuINsWTG8C0BSqDV3VM7rgVMvCJVB8GUBWf59nLvmLm9HFc8rGWQH7ML/S+GjMujWdRwH4Y+JT9J8AWKhpRIDsLlSxne8Akmc6RxZwBPg1RH/WMqvR1Q/JZPRdCYknATxZfGvFDbatVQpcCmCU3/sm7yh0nZvxtm1/JlMfHOrA+gxcFKqK/kuQ1BPhyCeazYU6se6M8bbIhaZzZIHVELmqZVbD8yZ23n51w1sAqkvnh3+scfwQwGXgGtYZQYB33YxXwaF+ZfGbBXfZRaSDjx1PO/lZ+4PFtuLVAHh06p8OEUxv6zjxxFZDZbqjlhnR91qropdbDiYAcHXlKJkhEFeFCmCsL0FSQCHjXE7Y4lMUSp5kZaGWzSkbAcWlpnMMYy84No5rmRW908v3Sb2wcnb0T20dJ06C6rcA9JrOQwNzoN2uJohk7n3kou7ejhBloaafnqws1O4c+ysAxpjOMRwpMH+UjeL2GdE3TGcZiNbUOK3VjT8VdUoApG3OrCfqamF7dWD7FcVvoi6zO7xtJg1tzcpCVcXlpjMMQw5Ur2yris6MzohuNR0mES3VTb+Pq3MCeAo4TUmBq9FwPvArid8UcJfdsop8ikLJy75CnRSZ+hkAx5nOMcz0qOArrdWNC0wHcWtVddMHgY7uyar4jekstBOXj14TS973K4rfBPivu/HKM2xpRoHurCtUhXOe6QzDTA9UzmybFX3EdJBkNdc0b2nvPLESijtNZ6H/Jyr7uZqgmfsUFhV1VaiqwiPUNCPAB1lYqKg0nWEYcUT14tbqhibTQYZKa2qcts4TvwHo/aaz0DaCz7oZHo/Ln/yK4juFy/uz1d2LDUqF97PqPtRJ8844GC7v96LByLUt1dGHvdpaaEFoZO+W/FKxpBTAZwEchr4lBEcDsAFsBrBZgDdU8CocXW2J3byyatnfvNi/1tQ4odrQ12JFBQUAMnBN2OFGP+NmdPvVDW8FI+G3Abh6xmga6O0uzPm9mwkCZOwiFsOWZFmhajw2FcLVRbwggttbZjUM+aECExZOyCns3msaVC9SFJSLhZxBho8AMEKBcVCcDJFLHDgI1lX8S0QfiNu4d6hXFzfXNMeOqK08f/eiTeMVOHko26IhGx+KnDXGzXq+ArQrcI6fobwmwJ9XT1/Slej4bUss7uFnJnJPHPw3q075qoXTTWcYHuRFe0N39VC2EJ4fzgtGKq4s6Br3uqo+qsA0YNAyHSSOflqB71px/D1YH/518bypRwwl20s1i3ricTkP/78YPxkS056T3Ix3gKV+ZfGLo2h0M94KWK5OhVOKCP6TNYVaubjShgqPOIZuswU5r7mmOekby4OR8lM2xvBHQG+Dt8+utKE413KcF4OR8B2Tb56c9IUb7Vc3vAWRiwAu8GaWU+xmdE5H92+QWS+EVAO4z+WcSb4koSFxVN7MmkJds2bz5wDwyrghUtGrk33PMlQbyg9GwgsAaXZ7wYlLFoDpW/Jy/jJp3tSJyW6kdVbDMoX+0sNc5JZIiZvhzTXNWxR4wK84Pvid+7cp5BRfktCQWIhnT6HaUB6dDt3q9g0nJXVrScltp+/bO6ZgFYArPM40mP0dx3kmWFee9CP6NObcCKDTw0zkzsSJdVN2dzNBHLkNmbKspGK+m+ET6yoLwPf201I8rtlTqAo5ynSGDKfqYEYya/NOmnfGwdKb0yaKY/wItgs5EPl5sK78B8lMbr9m+Xqo/sTrUJSw3IDYX3QzoXV2w2tQ+YVfgTwj2txaHXX1nq9lbZwMPtQjHX3Qfs3y9VlTqAI90nSGDHd/2+zoc24nBedN299x4k9B1OzDkEW+E4yU1yQzNdC5JQLgLY8TUYKSuWo3jngt3C7nl1qOFZer3U4S5SMn05ECLwFZ9FxIBQ43nSGDOXDkR24nhSJnjYHGlwNIk5vQ5abS+vDX3c7a9r5cxI9ElAgNFc8PH+hmxqrqpg8AqfIrkQfmr5wddbUQRfAXU3cDcIZPeWgIBPpXIEsKNXTrtO2LA1BS5PHW2Q2vuZ3Vq1vvguphfiRKlirml0amHOt2Xg7y7kHfwhKUerYdg+tybK1quB+QO/wINBQCPPthx8jrXM/b6pwLnu5NS6pW9hyh9lrxT5nOkMnU0VvczimtD39dBF/yI88Q5Smsh7dd3JGw5qrHNkDxkF+haHAquGTbEZoro2ydJcAf/MiUpPUxtc9+qWZRj5tJlYsrbQCzfcpEQ7cayJJCtSxP73XMKir4k9v3Tkvnh8eq4qd+ZfLAwRY23eB2kkIW+hGGEjICPer6qC46I7rVjgfCAP7sQya33nMgZauql65xO/Gdtzefo8BBfoSiIdu8ZcS7LwJZUqiOg7GmM2QqcXSR2zkalx8AcHWrQ6qJ4PrgvGn7u5nTXh19AcBanyLRLmlV8a0Vrl8cN1+95L9xdT6PbUcRRgjWqTqh9qoG18UutbUWRL/lRyzygOjvV09f3QtkSaGKKNe9TJbYrgp1Yt0Z4wH9qk9pvJQn8di1biYoVAFk/JN1MpYi3wpoUmc+VlU3fZC/tfc0QH7rdaxdkxctsUvbqpteTmZ2cMzzlwIY0nKa5COVVdt/mxWFqiIs1OT8sbVq2T/dTLDgzEKGXDihgktP/Plprr43BO7WXSWPKc4tjUypSGbqiutXdLRWNXwJqldCkPTSmS6oAvMDHV0nrZy59PVkNpABb58QnGe2/y4rClUUhaYzZCIVWelmfKg2FBDRC/zK44OC3J4cV/c4xtR52q8wlBiFdafbF0I7aq1uXCAWjgOkwctcHyUvqkhZW1V05lDWvUYctyDN3z7Jcl2Bjq1t2/+QFYUK0VzTETKRwHnWzfie0QWnAtjHpzh+Od/N4L77G+H6ohLy1D45Pbl3yBCexdgyI/pKa1XDVFWnFMALXgVT4E2onN/WccKxbbMaVgxlW6WR8JcVuMirbOQ9UTyz4wum7CjUDDkFmW4ClrgqVEu0zK8svhE5MRQ5a4zLWa/4koUSJoIvFUfCrq/U3llbdVOrinq2TKEF3N9a3fBQMkt07mjSvDMOVuAuAHyAcxpTS5fv+OfsKFTlU8WT8F7zjOjb7qZk5FMw7F7ZUupmggBJXVxC3hLoD0vqy6eZzuG1sjllIxwn/lvw6VjpT+1lO/4xKwpVoK5uoiZABa7KNFQbCgD4nE9xfGVBjnYz3hG4fNwW+cQSlQeH8oi+dDOxrrKgy7afAK/qzQQv7HzRZlYUqgJbTWfINOK4e58wNqrwAAA5PsXxlQKHuhkvfJxbOhnpOE5jsL7iRNNBhuqI2spcG5sWQfB501lo1wT42C2F2VGoIlyD1b13XI224q4WSUgr6m4lLVEWapoZDdWmTD5SDS0Ijdxt9KbfQDDVdBZKjMJ6dOePZUWhiur7pjNkGrVkk7sJMsqnKKng7sEJlm70KQclb4yjzlMl9WHXj3ozLRQp/1Ssp6CdZZpBVFf1d49+VhSqqrBQ3VINuBouksn3+rrKLmr1+hWEhkCRL4pfl0YqLjMdJVGldVNOiEF+D4DPa84gauHu/j6eFYUqUN436JIlLt8PlYw+anOV3XGUV1+mL3HgZMz7qSrqWMUIAAAgAElEQVTWZIBrjWeYTTk5Wx7p7xNZUahqqetneWY7VbhaDMMW+79+ZfGfuMouFguVKIstav5mc79viWVFoW4peO+fAHiazg3Rfd0Mj2s8c0+ri7p7MaDi+rmcRDQ8WA5uG/BzqQxiyrZH6/zLdI6M4liubiVxnFH/BpCh9/vKm25Gq+o4n4IQURpT4OmVs6N/GujzWVGoAAAFT/u6IfrJUG0oP9Hhq6oXdQMY8BstzbW7Gi3uXmwQ0TDh6K2DfTp7CtXC301HyDCWM7rwYHdT1F0xpQcNxOznXM45xJckRJS+FK+0z24a9PGNWVOo4uhq0xkyTdxyTnA1Qaxmn6L46eXmq5ck/B6q1NZagLp8oUFEGU/0hwrVwYZkTaH2WLnNAAb9n0EfJSquVp4JbOhqArDWpzi+EOB+N+ODRc8eDZf3rRJRxvtbW8dJ/d4qs6OsKdTnZj3xLoBXTefIMCe7Gdxc0xyDyH1+hfFBb4/k3OtmgsI+xacsRJSmRPX7iTySL2sKFQAgkomnJE36TDAy9QA3ExxL7wIQ8ymPp1SxZNsLLTezTvElDBGlKXmxtfOkjy2E35/sKlQ4z5hOkGkEzpfdjG+fEX0DwJ0+xfFSTG3rJjcTtl31PMmfOESUjizo7EQfGJ9VhSqWPAMgbjpHhnFVqAAgNmoAbPAhi2dEcFf7zGUvuZnTO7pwGtwupE9EGUuAJSurok8nOj6rCrVlRvQ9gKd93VBgQvG8qa4edtwyI/oeRGv8yuSBD+O9cdf5RPQCP8IQUVrqUUeudTMhqwoVAFSdB0xnyDAiTnyW20lts5rmK/QJPwINkSNwLmy/Zvl6N5NK54fHApjiUyYiSj+3tM5ucLUgUNYVKnpzfwugy3SMTCKQC4vnlLlabk+hip7cCyGSVldWq+KHLVVNDa4nxjEDcPkEHiLKSAL8I64jf+R2XtYVatt1T2wEJB2PnNJZnpUTqHY7qe26JzaKpV8C4PJKWt882t55Yq3bSSU/O3OUAlf5EYiI0o7C0m9sW07VlawrVABQh6d9XVOdNWlu2X5up7XMiL5iwQoBeMeHVIkTPBTo6D4v0av1dmTl9l4BgE+YIcoGKne3zGx8KpmpWVmoORu3PAkVPn3GnQK17B8kM3Fl1bK/wZFTALzhbaQEKe7cZ9+RFzXXNLu+P/bEn5+2hwKuLkwgooz1RiCvqyrZyVlZqM01zTERvcV0jkyjwIWldeGk7sNsnd3wmvbkHCPAg17nGsRGAJe3VkenLzp7UVK3S+X25N0MYE9vYxFRGoo50AsHenh4IrKyUAHA7uj+FQTrTOfIMJYK7g4tCI1MZnLbdU9sbKmKXqCilwng9wPJ2y3LPq61Krow2Q2URsLFEP2al6GIKF3pD9urGp8dyhaytlCba5q3iKLOdI4MdECsp+BnQ9lA26zGX+Zt7T1QBT8GsNmjXNu9JCpfaK2KlqycufT1ZDcSWhAaqX0rPomH2YgoPa1o6zgpqbe0dpS1hQoAPTZuR5qv6JOmrghGKi4cygZWXL+io21W9EZVp9yrUIC0tnWceFRLdcOQr+KO9xTcDuAzHoQiovT2H7FxfjIXLO4sqwv1uRnRTsjgT2CnAYguLK4vP36om7HE0yPUTi/+UZRGwlcocL4XgYgorW11oOf0raI3dFldqAAQ2LBlDkxdfZrJFPmWymOhSPmnTEfxUnFd+HQF3wogygIKwfShvm+6o6wv1Oaa5i0ieqXpHBlqfAyycriUamkkXGwJfgsgz3QWIvKZ6o9aZ0U9fX5z1hcqALTMalwOYKnpHBlq/zhkRWh++BOmgwzFpHlTJyrQCGCE6SxE5C8BHmmrbvqe19tloW5nBa4C1/hNigIHxeJ4Pjhv6nGmsySjpK6i0nGcFQBGmc5CRD5TPDXSxsUKVa83zULdpnXmkn+L6E2mc2SwfeE4zwTrwmeYDpIogUgwEv6hiD4MoNB0HiLylwDPFsbjZ0ZnRLf6sX0W6g5aZzXNgWiT6RwZbCQE6fwc1I8I1k85HcCN4L2mRFlAXtQ8q2L5Ncu9vvf9f1ioO1CoiiUXwfRC7pQSThy26QxE5D8V/CkQt09rvWLZh37uh4W6k777kfQrAJJa+5WIiNLKasdxTmu+esl//d4RC7UfrVWNzwD4qekcREQ0BKLN2pNz6qrqpg9SsTsW6gDaqhq/qyp8bioRUWZ6NLBhS7jtuic2pmqHLNQBKFQ3dI64FJDfmc5CREQuqMxr6zjxnOaa5i2p3C0LdRAv1SzqCSD3bAAvmc5CRES7tFUE01urG2Z5sa63WyzUXWiuemyDBmJlAN4ynYWIiAa01oGGWmZF7zQVgIWagLarnlwbV+c0qPzLdBYiIvqYdoEzwcuF7pPBQk3QquqmfwRimAjgL6azEBERAEChMq+7cH2oparJ+PoBLFQXmq9tWIc86xSorjKdhYgoy73rKKa0VjfMWj19da/pMAAL1bXWK5Z9GMjbUgZgheksRETZSCH3IM/6THt19EnTWXbEQk1C8zebN+0zfmQ5ILUAUn4lGRFRllqrome2VTVc4vcygslgoSZp0dmL4q1VDTep6FkA0u4vlohoGOkVYI725BzWNqtxiekwA2GhDlHbrMYlsAJHA3jedBYiouFGgadVnWNaqqLXpnLVo2SwUD3QOnPJv0fZmATgZgBp8eY4EVGG+ysU09qqop9vq2562XSYRLBQPRKdEd3aWhW9AY4cocDTpvMQEWUiBd4EcPk+40ce01odXWo6jxsB0wGGm9bZDa8J5LRgffllqvgpgN1NZyIiygAvAfKznI6uXzfXNMdMh0kGC9UHClXMwp2l88OPI45vKzAdQKHpXEREaWilwLmltWp5VKFqOsxQsFB91PewclSXzg//WONyJaDVAEabzkVEZFgHgEfgOAtaZze9aDqMV1ioKbCtWG8qnR/+ucZxNYDLAYwxHIuIKJV6AfwOkF/HdcSjq6oXdZsO5DUWagptK9YbQrWhm+Kj87+gFi6GymQAtulsREQ+6IGiVSGP5jj2o81XL/mv6UB+YqEasO2htw8DeLjkttP3lXjgQii+AuBIw9GIiIbqLYWuEEVUe3N/l+73jnqJhWpY21VPrkXf/as3h26p2Ls3Rz8vgs9D8XkA+xuOR0Q0mB5A/iaizzqKNrECra0zl/zbdChTWKhppPnahnUAHtz2C5PmnXGwo/GTARwJlaMAPQTAePAUMRGlkADvK/AvQP4F6D8BeRlO/C/dI//7Sro86SUdsFDT2MqZS18H8PqOHzuitjJ39OjO/W1b9pa4tYdjOXtaKoUq6XFbjjq6znSGRIllvwpxbjCdgzymkjHPLHagT1si6fE96OhGiMQA6Vbofy113rdF1ufGnPeWX7N8s+l4mYCFmmFeqlnUA+Af237RELRWLfsn+k63ExnRXtX4LIBnTecgb3DpQSIiIg+wUImIiDzAQiUiIvIAC5WIiMgDLFQiIiIPsFCJiIg8wEIlIiLyAAuViIjIAyxUIiIiD7BQiYiIPMBCJSIi8gALlYiIyAMsVCIiIg+wUImIiDzAQiUiIvIAC5WIiMgDLFQiIiIPsFCJiIg8wEIlIiLyAAuViIjIAyxUIiIiD7BQiYiIPMBCJSIi8gALlYiIyAMsVCIiIg+wUImIiDzAQiUiIvIAC5WIiMgDLFQiIiIPsFCJiIg8wEIlIiLyAAuViIjIAyxUIiIiD7BQiYiIPMBCJSIi8gALlYiIyAMsVCIiIg+wUImIiDzAQiUiIvIAC5WIiMgDLFQiIiIPsFCJiIg8wEIlIiLyAAuViIjIAyxUIiIiD7BQiYiIPMBCJSIi8gALlYiIyAMsVCIiIg+wUImIiDzAQiUiIvIAC5WIiMgDLFQiIiIPsFCJiIg8wEIlIiLyAAuViIjIAyxUIiIiD7BQiYiIPMBCJSIi8gALlYiIyAMsVCIiIg+wUImIiDzAQiUiIvIAC5WIiMgDLFQiIiIPsFCJiIg8wEIlIiLyAAuViIjIAwEPt7VvMBJWD7c3nGwF0OVifA+Azf18fAMAVWCzQHr+t13ROBSdO4zphOhGUXQ6QKdAO2EFPkRMN/bagY7nZj3x7pC+GkrIxLrKAnE2j7MDTpEKRmsMo2HLKFEUCTBGgdEKjBYgTyG5AowAVAAZs20TowG1ARQCyNtp83bf5xMmAMbsclQWEojpCDRMeFmoNLA8fPwHYtL6/vnv8Nqlv5cxKtD/jRXAcQALyNFeBCPhXgDrAVkD6LuArAWwDtC1FvAPy8ZrzTOib3uVdziaWFdZYGvnIbDlEKi1nwo+YamOU2A8gL0A7GsLimADqgIoIBb+93e1/a9M/vffHf8S+bqUKBOxULNTDoDxgI7v++P//wB3ADhxIBgJbwLwGiB/B5y/C+TlmNrPrqpeusZEYFOOqK3MLSraeJwF61hRPUwFhwI4xBbsD7G29aBClDVIlO1YqDSQkQCOBfTY7cdPtsQRjITfgeIFWGiDaPsokT9EZ0S3mg7rldAtFXvHAno8RI4DULxbkRYDUgAolGcGiWgQLFRyax8IpkIxFSrYCHQF68JPw8LiXguPPzcj2rnrTaSXkroph4tlTYXiDORgIgDh8SYRucVCpaEq3F6wOQ62BOvCvxNL7tl73xGPLzp7Udx0uIEU31rxSdt2LldIpYh1IPuTiIaKhUreUeRDMFVVp76zZtPaYKTizrjG562qbvrAdLTtgvOmHgcnPsuy5TyF8PufiDzDHyjkl30BrbHFujpYH74DudaPWq9Y9qGpMCX1FZNF9ScAjgNvkyAiH7BQyW8jobgaW51LgvXhn42yEEnlRUwl9eWHilo/EOjZqdonEWUnrpREqbI7FD/dGMdfgpEpp/m9s5KfnTkqWF/xc1F5CSxTIkoBHqFSqh0CWE8GI+E7C2Px2Qh4f/q1ZG74JMnFfVAc7PnGiYgGwCNUMkEATO+y7d8D9rHebVZzS+rDPxILbQDLlIhSi0eoZI7gswq908MtThbFZA+3R0SUMB6hEhEReYCFSkRE5AEWKhERkQdYqERERB5goRIREXkgAMDYcnDDmA1gtOkQRIPoAbDZdIhhR7HFdAQyR1T5mA3TjqitzN1tXNcIAAjEnBGxuJULAJbjFDkBy5J4zFbpK2gB8lSkEADgWCMhmoO+T+wGRwUiYwCMlr5CH6Xb/gtgNwB7AChK9deX5XoBrIeiAxY6odgIyAaF0wGxNoqiE6LdgHZDZQsAiGqnWoiLiiqcDQBgid3jiGwGAMtBlwNsBYCenC0duVa+k9+51Vlx/YoOY18lEbFQs02oNpTvjMod69iBfeHoOLV0nAUZr4oDoXoQRA4GMNZ0zgzRA5F/wtF/qCWvi4O3ALwHcdaKLevtnsD65quX/Nd0SCJKDRYqfczkmycXbSnIOwiOcxSAEwGcBOBw9J3KzkoCvA/F87DwPKDP24q/jx0/6j/p/MxXIkotFiolJLQgNDIeyz9RHYQFMk2Bg0xn8pVgC1SeAnSJZdnNK2cufd10JCJKbyxUSkrp/PBnnTi+JMBlAPY3nccjcQiWwNH7C+POk8uvWc6LdogoYSxUGpLKxZX2O29vnAbIlRB83nSeJP1XBQvtePz2lbOX/8d0GCLKTCxU8kzpvPLPqyMRAEeYzpKgGIC7A/HAjbx4iIiGioVKnpqwcEJOQfe42VD8EGn8NCMB/uCoc0lbddPLprMQ0fDAQiVfBOeVl8CRRwHsZTrLxwgeijsjL1tVvajbdBQiGj5YqOSb4lsrPmlZGoXgs6azbKMKXNdWFZ1jOggRDT8sVPJVyW2n7yuxQCuAA0xngeCG1lnRm03HIKLhiYvjk6/arnpyLaxACMC/DUf5EcuUiPzEI1RKiUlzw8c4NlZBkZ/ynQsebp0VPS/l+yWirMIjVEqJlbOjf1JHqg3s+vVeC5cb2C8RZRkWKqVMW3XD7QDuS9kOBVscSOVzM6KdKdsnEWUtFiqlVCC3+0qo/CslO3P06vaqhj+nZF9ElPX4Hiql3KRI+FQH+B0A8XE3K9uqGkMKfoMTUWrwCJVSbmVV9GkAv/JxF1stWFewTIkolVioZET+1t7ZANb4sW0R/e7KqmV/82PbREQDYaGSESuuX9Ehqtf4sOmXuwrei/iwXSKiQbFQyZiW6saHIdrs5TbVsWasnr6618ttEhElgoVKRqmjMwB4UoACPNI2e5mnBU1ElCgWKhm17fFpCzzYVFc8Ltd7sB0ioqSk7fMqKXvkb+2t2ZKf2w3VpG+jEWB1+9UNb3mZi4jIDd6HSkRE5AGe8iUiIvIAC5WIiMgDLFQiIiIPsFCJiIg8wEIlIiLyAAuViIjIAyxUIiIiD7BQiYiIPMBCJSIi8gALlYiIyAMsVCIiIg+wUImIiDzAQiUiIvIAC5WIiMgDLFQiIiIPsFCJiIg8wEIlIiLyAAuViIjIAyxUIiIiDwRMByDalWBd+VkQGZvIWAU2t1VFH/Q7k1sl9eFzRFGUyFgL+MfKqujTu9xmXfnFIpI39HT9E4ij4nQI0Clib+yNx15dVd30gV/7609xffnxlsoxqdznUHQXrv/V6umre03nIDMCwciU03b8gDqBePvshmcUqqZC9WfSvDMOdpzeT/b3OQFebqlqeifVmSg1FHK0AN9LZKwAKKmb8ue26qaXfY6VsEm3lX1a1H4ICZ4RciAXJTJOROYC2H0o2QajUEAFCkDVgS0WgpHwO6L4EwTLxIkvWzl7+X/82j8AWCpnArjRz314aVRs1EMAWKhZygKsFTv+Est5uri+/ErTwXbmaPzynbNu/6ViTTadj/yTE8CdAOKJjheRr/kYxzUnZl+KBMtUgPcDHV2LfY40FPuoIKzAAsey/x2MhNuCdeEzBCKmgxGZ1u8/cgFuKY5UHJ3qMET9aZ4RfRtANPEZclF4fti3U6FuhGpDAQCXJDpeBfc01zRv8TGS14ohWBKMlD9fWjflBNNhiEzq/1WzIt+CPhxaEBqZ4jxE/RI4d7gYvmdnTM70LYwLvWPywwD2TXC4WmK7+TrThgLHq1jPBiPhBaHaUL7pPEQmDHYa6tB4T8FtKUtCNIjWjpMbFXgz0fGW6KU+xkmYqFzmYvRTK2cufd2/NL6zAFzRO6ZgVXDetP1NhyFKtUHf11Hg4mCk4sJUhSEaiNbUOCL6y4THA6eFIuWf8jHSLk2sO2M8gPJExws0I49OdyaKY9SJrdz29RNljQQulNAFwbkVh/gfhWhwovpLJH4FpdWrkvB7l36wrdglSPzWtHe6Ctc/4WeeVBLgU7bEl0+sm+LbVchE6SaRKw9HwtJHJ9ZVFviehmgQfbdGydJEx4vga5WLK20/Mw24b4hA5auJj8ddw/D+xcNtsRI+q0CU6RJdKelzlmy62dckRAlQwe0uhn9i7ZpNp/sWZhDF9eHTAByY4PC4WoG7fIwTB/BhEr8cD/b9hZJI+HwPtkOU9hJeKUmAq0rrKp5qqW4YNqelKPO0bzjhqZKi599AomWluBRAo6+h+iHqXNa3zERCoq0zl/zbxzivtFZFj0xmYvAXU3dzejFe4lpiiZYrMBUulywV4JYJC6c9tnr6kq5kMrjwCwje8nkfg3rvvbE9JvdPZrlZelBU9O5Jc8uO9nt1FKKBaE2NUxoJL1QgoTMmIjijeE7ZuPZrlq/3O9t2pfPDYwH5QqLj1VE3R90p1XrFsu1Hqy8BuL2kbsrhIlYdADeLqexT0B2bgQT/zpIlwIMts6Ltfu6DaDBuF8ff3bHsh7bdrE5kRDwWvwdAokcCuRKwE1rKzysaw0UAchMaC7zZvvGkJp8jeaatuunlfcaPLBcg4mqiYpap97OJUiWZp82UxEbn13iehChB7dcsXw/BbxMdL8BlKV4aL+GlDy3FnVpT48V7lSmz6OxF8ZaqaLVC7nExbZ931nSG/MpElA6Se3ybyLcnRcKnepyFKHHq6p7NQ0vmTSn2LcsOSuqmBCH4bILDe+yY3O1rIB9tKbSvBLAm8RnWF30LQ5QGBi5UkVcVaBlongM8UDynbJw/sYgG11bVtBIiryY6Xh0rJSsniVguVkbSx5uvbVjnXxp/rZ6+pEtVfuhiyvG+hSFKAwMXqmosx8b5Arw/wIh9rBzrXj5lgkxQqIrjLEx0vEDPPml+eLSfmUKRs8YA+HKi49Wx0/ZipETFAurmcWWfm7BwQo6feYhMGvSUb/OM6NuquARA/89GVZkSrJ9yjR/BiHYlBr0XQHeCw0cEHD3P1zy65SsAChMaLPJq++yGZ/zMkwrPzYh2AvJcgsPzcjfvw7NaNGzt8j3U1uroUgHqB/q8qvy4OFJ+srexiHZtVXXTB4A+muh4S8XX075qJb4QvqreodD+X6hmGAXeSHSshd4xfmYhMimhi5I+6Bh5PYDVA3w6YKn14OSbJxd5F4soMZaV+GlTBY4Pzp1ylB85SuoqJojimASHdzvq3OdHDhNEdKC3hT4+1rL5SEgathIq1JdqFvU4Ns4F0NnvANFPb8nL8XPpNKJ+rZy5bBWAPyc8QeyEb2lxQ0S/nuhYhTzSd3Q9PAgwIuGxlm70MwuRSQkv0NA+I/pGMFL+DUAeGmDIl4OR8PTWqmjCF4pkqtAtFXvHAno8RI4DcAigYwQYo0CuAh3S98LjNQheDqi2NFc1vmk4ckKkttYqLfrDoSrx4xxYx4riEwB2A3QMgDggGyG6HopXROWlnoA2972HZprcBWhiz+4VvSBUG7q+uaZ5i1d7L5tTNgIB+9yEJzjD4zFt2zkOxiZ6aaL0xlmoNGy5WvGotarx18G6is9j4Ic3R4rnTV3VPnPZSx5kSyuhW6ft2RuInWspvqI52Pae8f+/Bbb9dx/5uaJADIJgJPxXCB5ErrVw21Ju/QpGwq8B6G81mbtbq6I/GurXMJDieVOPsBzngpIinOcA+0MF0u91aPq/L1RFkRNHTzASXinAwr3Hj3xs0dmL4v1tPxgpPwWQfp86og7Ob5sdTfSiln7lb+15YEtezs1I7Ehp99jowi8CGOiFoWtdAfscAIleQfznoX69aUdwXIIjY9bGnvd8zUJkkOuFHbpH2DOheGWATxdYjvPwhIXTErvSMQOEImeNCdZX/CRmx94SxXwFkrkA63NQ/BRbnf8E6yt+MsjtG58GcMDOv1RkjyTjD6qkbsrhJZHyxy3H+SuA6wHs73ITuQAmK7D4nbc3v14SCZ/f321U6qAQ/Xxdfb+sIT8WcMX1Kzqg8nCi43XgF4RJEcDFxUgyrI5OJ95adpgAn0pw+KtenhkgSjeuC3X19CVdjm2dg4FvVzg8v6t3wKuCM0lJffmlMWz9J1RvQKK3QwxuBFRvyInjtZL68mkebC8pZXPKRgQj4QUi1osCOdOTjYp+WoAHgpHy9mBk6gGebNMFx3ISLioBQsXzw4k+Wm1QxfOmHuHiRdZG9AYe9GK/6cK27NmJj9Y/+ZeEyLyklh7cdkq3aqDPC+SykvrwOUmnMqx4Ttm40kj4CVG5C8BuPuxiL1F5PBgJ35zqhTGKI+UndwfsPwO4Av2fXh6SvnJxXiiZWx72etuDaZ/V+AcAf0xwuIiT+Hq7g7EcJ+GjUxE82HbdE8PmPcTSyJRjIbgk0fGiiPqZh8i05NbyBdB38ZEuGujzorjDq6OAVJpYN+Ugyw48p4DfR5AC4LpgffmCVJVqSV1FpQV5RoGDfN7VGLHksdJIOOFHmHkk8aNUxVeH+tSkUG0oX4ALEh2vcSfjV0babmLdGeMV1hNI/DqMzQVxZ6mfmYhMG9IPlPytselb8nImoO/9sJ0V2XH8+ojaypKXahZlxEN3g3OnHGVb1nJA90pwSidEX1BYf4bqWkvQAdVeVatILR1nOThaBccDGDvQBlTxjWCk/D1U4XvefBX9K6mr+IaI/hyJv4h6G8BqAf6qKu+LOB0QyQF0DBzZXwXHQHAcFPkDzM9V4JFJ86am7Akjgdzuh2I9BbcgsQuE9o2NLigHkPQP+VhR/lkAEnp/W4BnW2Y3vZjsvtLJpEj4VFvwAIB9XEx7cPk1yzf7lQkAVGVU8BdT/TijNKgP1xduzpSfceSvIRXqiutXdBTXl59rqbShn+c/KnD8bmM2/RhA2i9POGlu2X6w7EYAuypTRxWPCXDvqACejM5o3DrY4MrFlfbatZtPFXUuA+Rs7HQhMAAocGOwrmLVxz/jjdL6ii+J6IL+9r2TTgEWqmU93Dpz2Qu72u7kmycXbc0LnOWIzBxgUYNcx3EeEVtuHGDxSk81f7N5U2l9+CFVfCOR8dsuTkr+qEnw9US/LhVk9NHpxLrKAhubJwl0hgrKsevvpR1ttZy4m0X0kyPaiK2pX3xqzOjN5wAY8GwdZY8hPyi8fVbjH4J14W9DMKffAYrZJXPLn26b3Zi275+UzSkb4QTsJdjlK275naWYvbK64a+JbnvbrSQrAKyYNDf8U7Xw834uYrEgeheGcAp+IMF5U4+D6n0Y/AdgXIC6mDo/cbPgwIrrV3QAuEdqa+8rLnr+PAHmAth5rdZPQOH/D9NtNO7cDstKqFAFUlEambJPS1XTO273M7FuykG2WKckOPyDuDNysdt9eGh8MBJ2f3WxIEdVdxdY+9iixwDISbKu6lfOXv6f5KYSZY4hFyoAtFU3zg3WlZ+qgv4uRBGx5J6S204/uu2qJ9d6sT+vdQUCtwJ69CBDeiF6TdusxvlDWX915ezonyoXVwbXrd10oypuwkdLbnyy2x3IxLrKAlucRzD4FcpvWZb1lW0rDiVl2wOyHzyp/szf5WrvfQqcvtOQ/ZLdtluts5teDNaHn4PipASGB1TlYgA/dbsf27IvhWpCR2kqcu+qqkWJLuLvh90BTHc9SwGBYKBnYyRGXhxlq69vZxClC0+OiBSqCOCrGPhhw2Mlbj9QubjS86tKhyo4r7wEGHTZuC4Fzmyd1TjPi8XMF9KUvAIAABFqSURBVJ29KN4yK/p99N272O9CCF6xZVMNgMEuDHs5rnbxUMp0R8/NeuLdrsL1Uwe7WC0VxM3Dx0W+5vaisL5HkOlXExyuQOK39AwzH1iQ86IzooO+LUI0XHh2irFlRvQ9QC/AQCWhElq3dtONXu3PC1Jba8GR2zHw/4eYiH6xrSra6PW+W6uid4vot7ze7naTIlM/A2DAewQVeNOJxU9dVb10oBdBSVk9fXVvoGPL+QCe8XK7bnQV5iwCsCHB4QeXRKZMcrP9gs1jp0KxdyJjFWhum/V/7Z1/eFTllce/594ZICSIa7uACrv7rKv2sbRWpYUHZhKztZKZYFFRzGJtedouXUGSG1C0XW1g+2ifuoWZwKoVKqgt1YZWBZKZBKizmZmkoHn2R8Uf9Wl1baVSsA35YQKZuffsHzOpCPNO7p3cH5NwP3/mfe97zr2ZmXPve8/5nuivjaw/TugDUbBdaX7daUdcXOzC1Hd2CSX6nwAJ35cx49u+UJXfTJujYcHUgzcC+KRonIF74nXRNqvsJ+pav0/AHivWZmj3AhA1c/5AZvpix91tx6ywHWuIpVPkrQFgyfoj0bVizwCYdHdzYZYMKScR9LdpI+IxnYxUIO+C6AuJupZDTjvi4mInpifBXHhx6XcAtAuGZSLpJ3Mfuc4SKT2jEGhdnuH2DiVqqeITg1lVqRb6m2TromLTwlkMLMtjuMFIYlUhHKzb/UcCObYjQR79275EvKQyfJOuPp0VmxbOYsJCfQvj6GDJ8Rf0+jFOaNPS6jVuMHU5FzE9oDbd2qSqLN8O4H3BlJkTUhN22K0QdCbl4aqrAcwVDKuqqv6LHQ2gO9a2vMNM+jql6ESTpK9C/HT6iqd30BZpyBkXl+7Io/tsKfHVkdcASuicXpLG0O16Jmavrb5cAMYTXSu6Ujp9GNMw8H9EdEtCiVRZtfPh4lLsmB5QAaCzfu8RgrYc4vTAG3yhYK0VtvWisSTWsCXs6lzb9oZdvng9vBmAiT+8lEehiL8ba4ilzbMlpunWJpWIQnbYygVD/1OqHsF82rBBAkivZKGqqbRNr/0xCgPoAHjZiZ6yy+N1LT932iEXFycxpWwmF3GltcUfDoQAyp0YQ/y98nBVIq606tVfNRUiWiyO9xS205fY6si7/sZgMxg3jXatynDg7wASlQAd8fSctLUeMs2lO2Xq3wRgip12AeA8GT/rUxEG8PGR5hLjqvJw1dX5Po++8166Hro78lBrx9qWd/T6OkYYAvAmMprJHexJNxdVKRzxAwBsTwCTNXV8teNzKRjLAioAdPdM+eYFU/v9DHw2x/BEhvSs7+HF19gtGJ55X8afFgz/PlkXeclOfwAAjGZg9AE1DckvvFEg2m3X0+kwnfVNg/7G4AEzbhaMElkdOeVvDD4Fxlo98xnS1wGsFE4g5CuvOnNu8SQjMb0NUjN1qCzPAvFWGPvu/1ZT6fOdayO/s+M1SKEQUyyuRDqc9sPl3MWSLd9hDjc0DTGkGgA9gimXShNSj1npQy7S0snZECsHRZ340fDI2GfOSjxbNEKsOqJWRYz9TtgFAKi0FfqVCZaJevnOa1w8HeAbdK7zzoUXlZpealUwxP0JpfVAQmk9kKhv2QFiXTcYp3GJJOGBYg6mLi7FgKUBFQASSvNbILFwAgO3l4cDy63243RIo0+JxpjYkS3o2OrIuwB0y/4JIeGTN6C/vZmpsMSWZhTnI7Gm5U0GYjqnTy0ZUJfkGvAitRziRK8z2ZaVnCxKEnXRzWB6wtBBxF/zh6rrLHLJxWVcYHlABYBEXXQXGMIEDQb9x/yNCz9hhy8AoBFmisaI8KpdfpwF8+gToZhE5/bnQjRrzWBITjla3G+kFpTBZ9WYEojA0FurmiJo23U75xCe3oG7CHjZ0EHEGxeEgmfKSrq4uGSxJaACgKd3sBYgUfuqUlmWd80PLS2xwxdJy9PeKy05l/JP9CcTVsl9bkSOnddLq37xZwCaU/aztaC6biYIKD/z5i6rpHSpPmv0glM3LkaINcROAtpiAEaSimSJsMsXqhKKobi4nMvYFlBjDbGTzOrtAAYEU2bL1PfvtjhD4oxTj4peW3zIBcGM5Kyc50bMtiZ+nU723ZulvTDz0bWiK0XgJ/XOl2V5+Uf+QKQ7GYmksaPbG1da39PAtwAworV7HpH0nBN9R11cih3bAioAJOtbXyVQnvcwtMoXDtxstR9M4ndhgxM8jiVeEJvSNTRn9iY7+IT4oQvOQR5tG/ReA8JXMgL4wPxQ1QUA9H4m30zUtr5YmIfO0KFEf8nERt+NXkantGeLsdmFi4uT2BpQASCutPyQgJ2icQI9kamltBAm4dOaLKXKLLWdB9ZRL6mDfsHitteBDpMNTo7ZB4D2u9reBrG+TGrGjMkD06oBQJboS2BM0meFHh+LmbDJuujjABl6smbg+qNH+nP3QHZxOUexPaACwJCMlQB+Kxg+P83YWbmh0rIaWWbxtq6c1hzTGaZM38rRkvvcJFPWLogpPdM/hvwNzm2BWH/Q4GEBfNYphE84OeQ99VRhnjlPd09pLQBDNZwMKL7GgKHGAi4u4xlHAurB1ZFeZqpBRnnlbIjmq1Mn/ZtV9iVJOy4cJLrCKrsjwcA0E5bJfW6MGdntS9tRJ2hmnNeokXsGmyHu2XsGXFXeWL0EgLDE6qPTedehVQfMSCpzhMMNTUOeFN0C3dcnAzE9mukp7OLi4khABYBkfUsXMd8nGmfQvb7G6i9YYVtTxaUxrPcH1GQywgF6Ze3EEOGwaEwmylejahlabqUs24k1xNLM0Ft/KTOz7vIXSZKLRxmpQGL3tBwl1m4G4aSBwyZAo58v2Fj9t5Y55uIyRnAsoAJAor41zODdgmGJmH9cHq660Gy7Xi/9SjjIVGW2PT14MVQOE7ZFWcsjokCSvrZjZqNJ1zpiNwdeD7YB0Cu6IC6v+ii/aq9t7izQpaIiXt/6EphWGDxsmiRxZN6WoN7r5eIyLnE0oDKYvar36wDeFUyZBkhPZrp8mEdWlSh3rSDhCv+m6svMtKcLRoUZy2hS3mL9PF1orIOIy52wm4vs/95UCUZCEen2mkBCafkRmDYbOohwhVeD6d9VF5exhOMf/tjaPe8za8sgeGpg4Hrf+YfuMd8y7REPYZX59sRksmDJFPH4zrrWLohuUJg/4Q9XXWeGHb1k36+NeivbTAim1or2D8nirPWxiqd3YC2I9Uo2ZmDc5J96aL01Hrm4FD+OB1QASNa3JoggTkJifAcsbAZeGIwXhGPEX1vw/YW2JdKUDEyvAXCRGWtlyzb2iidIwvfWlqDlqzt2hhkXn9cKwKTWarTz4OqIc2IgFhFriKVJottg8DoxcL+vMXibRW65uBQ1RRFQAWDGRWUP5rkj9gIwNZOwu7f0RYi3mkslr9xopj0RwS3BiQCvN3NN1vC0cJDweX848E9m2hPhC1XPAZBTbN5JssL1pjT/ljT9TczHGvHVkeOShpsgVjfLBRFju3/zomus8svFpVgpmoDadGuTyrL6JYjKPkzmcEPTEBjiRuKMGjvutPs0Wg/g781cM7kmcpCBuHgGba7YtHCWmTbPZM7WOV4i3oYiqD/NRVbAPjXKZQ61r4n8txn+FCuZ8zu7YcAITIamvWBFQqGLSzFTNAEVAJJ37fsDA1+BTTJ1nPJuBdAtGifGDt+m4Dyr7PvCwQCYLXg/DEDj7+UZ/bgmyS1WZmWWDPx1CMBnrFp/tMSV1veYIX6PrgOC/i42Y5mEEn2GmYzqbM9kkp6r3FCpU2XKxWXsY5kaUaEklUi0PBzcyMDdlttat7uvvDF4LzO2CqaUkIQW/+bA4kRtNGmmbd+m4DyS8CwAS/RQk2uiEX84uBeAqCn2p7wq9lVu/OKi2No975tp2x8K3AciWxO7CkKix8Fc6JZ0d5qn/NRUf4qYi2aWfvPokf4rGdDfvo0xLz110lYAX7bOs9PNIewPV5+ww5YIgrYzrkSfdNIHF+couoAKAAOTj32rZGB6OcCfs9pWoi76Q184sAzAtYIpF4Bpvz8cXJVQIqb0uSwPV1WTJP0E+uscC0LS1FWaJFfksTM3Lac7KzYFbzNj63LprqXye0f6HwLRutGuZQcddZED/nDgNwz8g9FjCXiqs75p0Aq/ipGmW5tU/2OLanBKexnAJfqPpDvKw8HDcSXysGXOfcgch3swgBkHHXXAxVGKast3mK4VXSnJk64B0GO1LQaz5FG/CkD8lJYRR3/CHwrunR+qMvzjO0zlo5Vl5eFgiCHtwdlBrg8md4RpX9P2ewZWIv+vzKWahEO+UHCD7+HFBQvY+xoDl//hSP+LAHIFU8v/j4WQzYguJDmJ06o6bpORRCTubO7WJOlGiBowCGDgu/7G6kUWueXiUjQUZUAF/tIdRHcfytHaYtZuhkhbeBjCIpmk1/3hwNPloWCF3iL2yi3BmeWh4LfSQyVvMaAgx3VnpnWwoMVaUonsBPDQCNO8RPi2NCH1tj9cvb5i8w06m2kD5aGqz/kbg9uJ6RUCcgk49DOw3ojPtiJjB4z1AwWA9s61bW9Y4U6x01HbfJjBRvMcJDDvdBuTu4x3inLLd5hEXXSXP1z9OMDfsNpWsr414Q8HlgP0NPJfFw9AdzDhDt/5h476QsEOEP6XCO+QRj1M6gcg+isGTQfjMgIWAPgMKN/NCz2TrG/5gT8c3GLuWWVIKtEHfOHALIzwLouBjwHcoGlqgz8cPAzCy6TxK0w4ylrmKZMkTCXQLAbPBqgCJP1Nvp9WYv5nZvRCKspkX8RXR477G4PPg1Gj9xim8aWMZJSkEn3OHwo8CKL7DRx2HpG0e+4j180dy00EXFzyUdQBFQBULq2XqX8+bBCtTyjRZ/yhYD8IPwVQMuIBjBlEWAJgCRhgYgASwAZqRYhjgyUeo2UJhmAwk0LLfeFANwC9QguzwZjNlDkTOu12IBM/Rz5DYvxrvD76rG9TIGjQZVshDT9g0h1Q/3jiRNnzljo0Bkj2zmvwTT10JcRJb7m4ZELau2vO1jkLu1Z0jbZkycWl6CjaLd9hOuubBklGDYAP7LCXqI/slSTpOgC/s9oWAfsmp7QbulbsMVI4XxAM5oQSURioh/EtTqNoINwXr4+MtNVcFCTqo3EQ6drCJfD2ww1N+V8NnANwQ4M26VTqDr3X7cMDqbJkYJotoikuLnZT9AEVAOKrI68BqLXLXnttc6cHE68kwKqyCA3AgzMuLgu23d1my43CMEklEtZA88B4zYr1CfgTA4sSdZF8dbBFBYOZWZfikUYezRSFpfHA/nv39zC0G2E86exOfyiw0gqfXFycZEwEVABIKJHtzPRju+zFlOdPxJVIDST2A2g3cen/0sC+hBK5PyuBZzsdSsv/dPeWXQXgGzDYUDoPDPCP1LR6RVKJRE1a0za8mPgkRpDYI0Zr+11tb9vj0dggWRf9NRHfBv0t8TIQNVaEg/9ojVcuLs4wZgIqACDlWUnAb+w0maiNJhNK5FqNsTAb0PsKWEYFqIWBYLJn7mc7lOgvzfbTKIcbmoYSSmSrymWXEmFFVke5kCzjHoAfkSB9MqFEv9xxd9sxs321g5jy/AkAP8s3R5PGr27vaIjXRdsANBg8zMNA04ItQQM1rS4uxY0HE6ULcg2k0pojT0/5SK7b3Tc/tPTT8qSBj8iZdR+bbPm2aUd9ZB+AffNDS0sk7quERNcQ4SpouByEqQDORyaRqQdAN0BvMfh1MCVpEu1P3NkslDj8CxOlnB1utJOTT5p5LqeTFSfYBmBbebjqQma5EhJfzYyrCJgFZM+NoIHRD+A4CG9A41dB+MXg5OMdIyWYnCw7vr9EnZHzc+Y99kEhNyiWMEXGij6PpIjGO+5scVSF50w8mHhJemJqxOwwO77LSSX6kO+x6keNHMMAeITPtsplD8qTBjaOyjkbUS38rroUP/8PXXPHndsJX6cAAAAASUVORK5CYII=;" vertex="1" parent="1">
          <mxGeometry x="1050" y="70" width="160" height="142.91" as="geometry" />
        </mxCell>
      </root>
    </mxGraphModel>
  </diagram>
</mxfile>
